SplineFontDB: 3.2
FontName: HoeKomikaSlick-Italic
FullName: Hoe!Komika Slick Italic
FamilyName: Hoe!Komika Slick
Weight: Book
Copyright: (c) 1999-2001, WolfBainX & Apostrophic Lab. All rights reserved. www.apostrophiclab.com or info@apostrophiclab.com for more information.
Version: 2.0
ItalicAngle: -12
UnderlinePosition: -125
UnderlineWidth: 50
Ascent: 800
Descent: 200
InvalidEm: 0
sfntRevision: 0x00010000
LayerCount: 2
Layer: 0 1 "Back" 1
Layer: 1 1 "Fore" 0
XUID: [1021 618 -23699139 2198402]
StyleMap: 0x0001
FSType: 0
OS2Version: 0
OS2_WeightWidthSlopeOnly: 0
OS2_UseTypoMetrics: 0
CreationTime: 992717103
ModificationTime: 1625175874
PfmFamily: 17
TTFWeight: 400
TTFWidth: 5
LineGap: 30
VLineGap: 0
Panose: 2 0 0 0 0 0 0 0 0 0
OS2TypoAscent: 773
OS2TypoAOffset: 0
OS2TypoDescent: -2
OS2TypoDOffset: 0
OS2TypoLinegap: 30
OS2WinAscent: 1034
OS2WinAOffset: 0
OS2WinDescent: 145
OS2WinDOffset: 0
HheadAscent: 1034
HheadAOffset: 0
HheadDescent: -145
HheadDOffset: 0
OS2SubXSize: 100
OS2SubYSize: 100
OS2SubXOff: 0
OS2SubYOff: 140
OS2SupXSize: 100
OS2SupYSize: 100
OS2SupXOff: 0
OS2SupYOff: 140
OS2StrikeYSize: 50
OS2StrikeYPos: 250
OS2Vendor: 'APOS'
OS2CodePages: 00000001.00000000
OS2UnicodeRanges: 80000003.00000000.00000000.00000000
Lookup: 260 0 0 "'mark' Mark Positioning in Latin lookup 0" { "'mark' Mark Positioning in Latin lookup 0-1"  } ['mark' ('DFLT' <'dflt' > 'latn' <'dflt' > ) ]
MarkAttachClasses: 1
DEI: 91125
TtTable: prep
PUSHW_1
 0
CALL
EndTTInstrs
TtTable: fpgm
PUSHW_1
 0
FDEF
MPPEM
PUSHW_1
 9
LT
IF
PUSHB_2
 1
 1
INSTCTRL
EIF
PUSHW_1
 511
SCANCTRL
PUSHW_1
 68
SCVTCI
PUSHW_2
 9
 3
SDS
SDB
ENDF
PUSHW_1
 1
FDEF
DUP
DUP
RCVT
ROUND[Black]
WCVTP
PUSHB_1
 1
ADD
ENDF
PUSHW_1
 2
FDEF
PUSHW_1
 1
LOOPCALL
POP
ENDF
PUSHW_1
 3
FDEF
DUP
GC[cur]
PUSHB_1
 3
CINDEX
GC[cur]
GT
IF
SWAP
EIF
DUP
ROLL
DUP
ROLL
MD[grid]
ABS
ROLL
DUP
GC[cur]
DUP
ROUND[Grey]
SUB
ABS
PUSHB_1
 4
CINDEX
GC[cur]
DUP
ROUND[Grey]
SUB
ABS
GT
IF
SWAP
NEG
ROLL
EIF
MDAP[rnd]
DUP
PUSHB_1
 0
GTEQ
IF
ROUND[Black]
DUP

StartChar: dotaccent
Encoding: 6 6 4
Width: 251
Flags: W
LayerCount: 2
Fore
SplineSet
257 675 m 2,0,-1
 256 669 l 2,1,2
 251 648 251 648 262.5 632.5 c 128,-1,3
 274 617 274 617 300 617 c 0,4,5
 311 617 311 617 323.5 623.5 c 128,-1,6
 336 630 336 630 347 640 c 128,-1,7
 358 650 358 650 366 661.5 c 128,-1,8
 374 673 374 673 376 683 c 2,9,-1
 377 687 l 2,10,11
 382 710 382 710 366 722.5 c 128,-1,12
 350 735 350 735 327 735 c 0,13,14
 299 735 299 735 281 716 c 128,-1,15
 263 697 263 697 257 675 c 2,0,-1
EndSplineSet
EndChar

StartChar: ring
Encoding: 8 8 5
Width: 413
Flags: W
LayerCount: 2
Fore
SplineSet
568 823 m 1,0,-1
 568 825 l 1,1,2
 572 844 572 844 570 862 c 128,-1,3
 568 880 568 880 560 894 c 128,-1,4
 552 908 552 908 536.5 917 c 128,-1,5
 521 926 521 926 499 926 c 0,6,7
 468 926 468 926 441.5 912 c 128,-1,8
 415 898 415 898 394.5 876.5 c 128,-1,9
 374 855 374 855 360.5 829.5 c 128,-1,10
 347 804 347 804 341 780 c 2,11,-1
 339 773 l 2,12,13
 332 741 332 741 348.5 719 c 128,-1,14
 365 697 365 697 398 697 c 0,15,16
 427 697 427 697 454.5 707 c 128,-1,17
 482 717 482 717 504.5 734 c 128,-1,18
 527 751 527 751 543.5 774 c 128,-1,19
 560 797 560 797 568 823 c 1,0,-1
483 847 m 0,20,21
 490 847 490 847 490.5 838.5 c 128,-1,22
 491 830 491 830 489 822 c 0,23,24
 484 804 484 804 468 793.5 c 128,-1,25
 452 783 452 783 432 783 c 0,26,27
 428 783 428 783 425 786 c 2,28,-1
 426 790 l 2,29,30
 428 798 428 798 433.5 808 c 128,-1,31
 439 818 439 818 446.5 826.5 c 128,-1,32
 454 835 454 835 463.5 841 c 128,-1,33
 473 847 473 847 483 847 c 0,20,21
EndSplineSet
EndChar

StartChar: caron
Encoding: 12 12 6
Width: 393
Flags: W
LayerCount: 2
Fore
SplineSet
401 793 m 1,0,1
 399 798 399 798 392.5 801 c 128,-1,2
 386 804 386 804 378 804 c 0,3,4
 376 804 376 804 373 803.5 c 128,-1,5
 370 803 370 803 368 803 c 2,6,-1
 356 803 l 1,7,8
 339 786 339 786 333 776 c 128,-1,9
 327 766 327 766 326 761 c 0,10,11
 326 760 326 760 325 757 c 128,-1,12
 324 754 324 754 324 753 c 0,13,14
 327 749 327 749 329.5 742.5 c 128,-1,15
 332 736 332 736 334 731 c 0,16,17
 343 717 343 717 348.5 706 c 128,-1,18
 354 695 354 695 357 688 c 1,19,-1
 356 692 l 1,20,-1
 356 696 l 1,21,22
 356 696 356 696 356.5 691 c 128,-1,23
 357 686 357 686 359 683 c 1,24,-1
 358 684 l 1,25,26
 361 681 361 681 365 675.5 c 128,-1,27
 369 670 369 670 374 664 c 128,-1,28
 379 658 379 658 384 654 c 128,-1,29
 389 650 389 650 393 650 c 2,30,-1
 401 650 l 2,31,32
 402 650 402 650 413 656.5 c 128,-1,33
 424 663 424 663 438.5 672 c 128,-1,34
 453 681 453 681 467 691 c 128,-1,35
 481 701 481 701 490 707 c 0,36,37
 493 710 493 710 497 712 c 0,38,39
 512 723 512 723 521 732 c 128,-1,40
 530 741 530 741 535 761 c 2,41,-1
 538 776 l 1,42,43
 534 788 534 788 528.5 794 c 128,-1,44
 523 800 523 800 512 800 c 0,45,46
 496 800 496 800 483.5 790 c 128,-1,47
 471 780 471 780 457 768 c 0,48,49
 448 760 448 760 439.5 753 c 128,-1,50
 431 746 431 746 425 744 c 1,51,-1
 399 795 l 1,52,-1
 401 793 l 1,0,1
429 735 m 1,53,-1
 426 742 l 1,54,55
 427 740 427 740 428 738.5 c 128,-1,56
 429 737 429 737 429 735 c 1,53,-1
EndSplineSet
EndChar

StartChar: dotlessi
Encoding: 13 13 7
Width: 207
Flags: W
AnchorPoint: "top" 287 840 basechar 0
LayerCount: 2
Fore
SplineSet
40 70 m 1,0,1
 40 37 40 37 50 28.5 c 128,-1,2
 60 20 60 20 85 20 c 0,3,4
 107 20 107 20 126 35 c 128,-1,5
 145 50 145 50 154 74 c 0,6,7
 197 195 197 195 232.5 312.5 c 128,-1,8
 268 430 268 430 300 554 c 1,9,-1
 300 553 l 1,10,-1
 306 574 l 2,11,12
 308 585 308 585 312.5 602 c 128,-1,13
 317 619 317 619 319 631 c 2,14,-1
 326 652 l 2,15,16
 329 666 329 666 329 681 c 0,17,18
 329 697 329 697 324.5 709.5 c 128,-1,19
 320 722 320 722 310 730 c 128,-1,20
 300 738 300 738 284 738 c 0,21,22
 266 738 266 738 255 729.5 c 128,-1,23
 244 721 244 721 225 698 c 1,24,25
 207 625 207 625 185.5 557.5 c 128,-1,26
 164 490 164 490 141 421 c 0,27,28
 119 352 119 352 97.5 283.5 c 128,-1,29
 76 215 76 215 57 142 c 1,30,-1
 55 131 l 2,31,32
 51 121 51 121 49 106 c 0,33,34
 47 101 47 101 46 96 c 128,-1,35
 45 91 45 91 43 85 c 2,36,-1
 40 70 l 1,0,1
EndSplineSet
EndChar

StartChar: Zcaron
Encoding: 30 30 8
Width: 593
Flags: W
LayerCount: 2
Fore
SplineSet
48 89 m 2,0,1
 46 83 46 83 45 81 c 0,2,3
 40 61 40 61 48.5 49.5 c 128,-1,4
 57 38 57 38 71 27 c 1,5,-1
 75 20 l 1,6,-1
 102 20 l 2,7,8
 103 20 103 20 104.5 19.5 c 128,-1,9
 106 19 106 19 108 19 c 2,10,-1
 128 19 l 2,11,12
 162 19 162 19 198.5 26.5 c 128,-1,13
 235 34 235 34 273 45 c 1,14,-1
 285 45 l 1,15,-1
 292 50 l 1,16,-1
 299 52 l 1,17,-1
 298 51 l 1,18,19
 315 54 315 54 331 58 c 128,-1,20
 347 62 347 62 364 65 c 0,21,22
 388 70 388 70 412 72.5 c 128,-1,23
 436 75 436 75 459 77 c 0,24,25
 467 78 467 78 473 78 c 0,26,27
 480 78 480 78 487 79 c 1,28,-1
 486 79 l 1,29,30
 488 79 488 79 490 79.5 c 128,-1,31
 492 80 492 80 494 80 c 0,32,33
 497 81 497 81 500 81 c 2,34,-1
 516 81 l 2,35,36
 523 81 523 81 527 82 c 0,37,38
 529 82 529 82 531 82.5 c 128,-1,39
 533 83 533 83 535 83 c 0,40,41
 540 84 540 84 545 84.5 c 128,-1,42
 550 85 550 85 553 85 c 0,43,44
 570 85 570 85 582.5 99 c 128,-1,45
 595 113 595 113 600 130 c 1,46,-1
 600 134 l 1,47,48
 605 154 605 154 592 171 c 128,-1,49
 579 188 579 188 562 194 c 1,50,-1
 507 194 l 2,51,52
 470 194 470 194 433.5 188 c 128,-1,53
 397 182 397 182 358 174 c 1,54,-1
 350 174 l 2,55,56
 345 171 345 171 344 171 c 2,57,-1
 342 171 l 1,58,59
 316 166 316 166 290.5 161.5 c 128,-1,60
 265 157 265 157 240 155 c 1,61,62
 247 169 247 169 260.5 185.5 c 128,-1,63
 274 202 274 202 290.5 219 c 128,-1,64
 307 236 307 236 325 253 c 128,-1,65
 343 270 343 270 360 285 c 1,66,-1
 360 286 l 1,67,-1
 365 286 l 1,68,69
 370 294 370 294 373.5 298 c 128,-1,70
 377 302 377 302 377 303 c 2,71,-1
 385 309 l 2,72,73
 399 324 399 324 421.5 342.5 c 128,-1,74
 444 361 444 361 471 382 c 0,75,76
 508 414 508 414 547 449.5 c 128,-1,77
 586 485 586 485 620.5 523 c 128,-1,78
 655 561 655 561 681 601.5 c 128,-1,79
 707 642 707 642 719 685 c 0,80,81
 734 758 734 758 652 758 c 0,82,83
 643 758 643 758 608.5 753.5 c 128,-1,84
 574 749 574 749 526.5 741 c 128,-1,85
 479 733 479 733 426 721.5 c 128,-1,86
 373 710 373 710 327.5 696.5 c 128,-1,87
 282 683 282 683 250.5 668 c 128,-1,88
 219 653 219 653 216 638 c 2,89,-1
 214 629 l 2,90,91
 209 610 209 610 216 599 c 128,-1,92
 223 588 223 588 252 577 c 1,93,94
 250 577 250 577 248 576.5 c 128,-1,95
 246 576 246 576 246 576 c 1,96,-1
 266 576 l 2,97,98
 268 576 268 576 269 575.5 c 128,-1,99
 270 575 270 575 271 575 c 2,100,-1
 283 575 l 2,101,102
 315 575 315 575 346.5 578.5 c 128,-1,103
 378 582 378 582 411 589 c 1,104,-1
 415 589 l 2,105,106
 416 589 416 589 416.5 589.5 c 128,-1,107
 417 590 417 590 419 590 c 0,108,109
 427 590 427 590 435 595 c 1,110,-1
 433 593 l 1,111,112
 434 593 434 593 434.5 593.5 c 128,-1,113
 435 594 435 594 435 594 c 2,114,115
 440 595 440 595 444.5 595.5 c 128,-1,116
 449 596 449 596 454 596 c 0,117,118
 471 598 471 598 490 600.5 c 128,-1,119
 509 603 509 603 526 604 c 1,120,121
 521 597 521 597 514 590 c 128,-1,122
 507 583 507 583 499 575 c 0,123,124
 496 573 496 573 492.5 570 c 128,-1,125
 489 567 489 567 487 564 c 2,126,-1
 486 563 l 1,127,-1
 474 554 l 1,128,-1
 469 547 l 1,129,-1
 248 336 l 1,130,-1
 231 319 l 1,131,-1
 225 312 l 2,132,133
 223 310 223 310 222 309 c 128,-1,134
 221 308 221 308 221 308 c 1,135,-1
 220 307 l 1,136,-1
 214 307 l 1,137,-1
 208 294 l 1,138,139
 184 271 184 271 159 246 c 128,-1,140
 134 221 134 221 111.5 195 c 128,-1,141
 89 169 89 169 72 142 c 128,-1,142
 55 115 55 115 48 90 c 1,143,-1
 48 89 l 2,0,1
478 910 m 1,144,145
 476 916 476 916 469 919.5 c 128,-1,146
 462 923 462 923 454 923 c 0,147,148
 451 923 451 923 448 922.5 c 128,-1,149
 445 922 445 922 442 922 c 2,150,-1
 428 922 l 1,151,152
 410 902 410 902 403 889 c 128,-1,153
 396 876 396 876 394 871 c 0,154,155
 394 869 394 869 393.5 866 c 128,-1,156
 393 863 393 863 393 862 c 0,157,158
 396 857 396 857 399 849 c 128,-1,159
 402 841 402 841 404 835 c 0,160,161
 422 802 422 802 427 782 c 1,162,-1
 426 788 l 1,163,-1
 426 792 l 1,164,165
 426 792 426 792 427 786 c 128,-1,166
 428 780 428 780 430 777 c 1,167,-1
 429 778 l 1,168,169
 431 774 431 774 436 767 c 128,-1,170
 441 760 441 760 446.5 753.5 c 128,-1,171
 452 747 452 747 457.5 742 c 128,-1,172
 463 737 463 737 468 737 c 2,173,-1
 477 737 l 2,174,175
 478 737 478 737 490 745 c 128,-1,176
 502 753 502 753 518 764 c 128,-1,177
 534 775 534 775 550 786.5 c 128,-1,178
 566 798 566 798 576 806 c 0,179,180
 578 808 578 808 580 809 c 128,-1,181
 582 810 582 810 584 812 c 0,182,183
 601 825 601 825 610.5 835.5 c 128,-1,184
 620 846 620 846 626 870 c 2,185,-1
 630 889 l 1,186,187
 624 917 624 917 603 917 c 0,188,189
 585 917 585 917 570.5 905.5 c 128,-1,190
 556 894 556 894 541 879 c 0,191,192
 530 870 530 870 521 861.5 c 128,-1,193
 512 853 512 853 505 850 c 1,194,-1
 477 912 l 1,195,-1
 478 910 l 1,144,145
510 840 m 1,196,-1
 506 847 l 1,197,198
 508 843 508 843 510 840 c 1,196,-1
431 593 m 1,199,-1
 433 593 l 1,200,-1
 431 593 l 1,199,-1
EndSplineSet
EndChar

StartChar: zcaron
Encoding: 31 31 9
Width: 668
Flags: W
LayerCount: 2
Fore
SplineSet
55 113 m 1,0,1
 52 104 52 104 50 94 c 0,2,3
 45 71 45 71 51.5 54.5 c 128,-1,4
 58 38 58 38 80 20 c 1,5,-1
 125 20 l 2,6,7
 177 20 177 20 229 32 c 128,-1,8
 281 44 281 44 334 59 c 1,9,-1
 333 59 l 1,10,11
 359 67 359 67 384 73.5 c 128,-1,12
 409 80 409 80 434 85 c 2,13,14
 434 85 434 85 443 86 c 128,-1,15
 452 87 452 87 462 89 c 0,16,17
 478 91 478 91 499 94 c 128,-1,18
 520 97 520 97 540 100.5 c 128,-1,19
 560 104 560 104 576.5 107 c 128,-1,20
 593 110 593 110 601 112 c 2,21,-1
 602 112 l 1,22,-1
 600 112 l 1,23,-1
 601 112 l 2,24,25
 602 112 602 112 602 112 c 1,26,27
 602 113 602 113 603 113 c 1,28,-1
 602 112 l 1,29,30
 612 114 612 114 625 118.5 c 128,-1,31
 638 123 638 123 650 130.5 c 128,-1,32
 662 138 662 138 672 148 c 128,-1,33
 682 158 682 158 685 172 c 2,34,-1
 685 175 l 1,35,36
 689 195 689 195 684.5 208 c 128,-1,37
 680 221 680 221 669 228.5 c 128,-1,38
 658 236 658 236 642.5 239 c 128,-1,39
 627 242 627 242 611 242 c 0,40,41
 568 242 568 242 522.5 235.5 c 128,-1,42
 477 229 477 229 431 218.5 c 128,-1,43
 385 208 385 208 340 195 c 128,-1,44
 295 182 295 182 252 169 c 1,45,46
 265 190 265 190 288 212 c 128,-1,47
 311 234 311 234 334 255 c 0,48,49
 345 263 345 263 354 271.5 c 128,-1,50
 363 280 363 280 371 288 c 2,51,-1
 503 413 l 2,52,53
 518 427 518 427 534 440.5 c 128,-1,54
 550 454 550 454 569 469 c 0,55,56
 595 491 595 491 622 514 c 128,-1,57
 649 537 649 537 672.5 562 c 128,-1,58
 696 587 696 587 714 613.5 c 128,-1,59
 732 640 732 640 740 668 c 2,60,-1
 743 683 l 2,61,62
 745 693 745 693 746 705 c 128,-1,63
 747 717 747 717 744 727 c 128,-1,64
 741 737 741 737 733.5 743.5 c 128,-1,65
 726 750 726 750 711 750 c 2,66,-1
 612 750 l 2,67,68
 611 750 611 750 595.5 747.5 c 128,-1,69
 580 745 580 745 556.5 740.5 c 128,-1,70
 533 736 533 736 503 730 c 128,-1,71
 473 724 473 724 442.5 718.5 c 128,-1,72
 412 713 412 713 384.5 707.5 c 128,-1,73
 357 702 357 702 337 698 c 1,74,-1
 338 698 l 1,75,76
 320 695 320 695 297 687 c 128,-1,77
 274 679 274 679 252.5 666.5 c 128,-1,78
 231 654 231 654 213.5 637 c 128,-1,79
 196 620 196 620 190 600 c 2,80,-1
 188 595 l 1,81,82
 176 540 176 540 236 540 c 2,83,84
 236 540 236 540 238 540 c 256,85,86
 240 540 240 540 245 541 c 0,87,88
 247 541 247 541 250.5 541.5 c 128,-1,89
 254 542 254 542 256 542 c 0,90,91
 319 564 319 564 387 583 c 128,-1,92
 455 602 455 602 518 602 c 2,93,-1
 533 602 l 2,94,95
 535 602 535 602 537 602 c 0,96,97
 540 602 540 602 542 601 c 0,98,99
 537 590 537 590 520 575.5 c 128,-1,100
 503 561 503 561 488 549 c 0,101,102
 484 546 484 546 479.5 542.5 c 128,-1,103
 475 539 475 539 471 536 c 0,104,105
 459 525 459 525 435 502.5 c 128,-1,106
 411 480 411 480 380.5 452 c 128,-1,107
 350 424 350 424 316 392 c 128,-1,108
 282 360 282 360 250 329 c 0,109,110
 208 289 208 289 172.5 256.5 c 128,-1,111
 137 224 137 224 120 209 c 0,112,113
 102 192 102 192 91.5 180.5 c 128,-1,114
 81 169 81 169 74.5 159 c 128,-1,115
 68 149 68 149 64 138 c 128,-1,116
 60 127 60 127 55 112 c 1,117,-1
 55 113 l 1,0,1
502 906 m 1,118,119
 500 912 500 912 492.5 915.5 c 128,-1,120
 485 919 485 919 477 919 c 0,121,122
 474 919 474 919 471.5 918.5 c 128,-1,123
 469 918 469 918 466 918 c 2,124,-1
 452 918 l 1,125,126
 433 898 433 898 426 885 c 128,-1,127
 419 872 419 872 417 867 c 0,128,129
 417 865 417 865 417 862 c 256,130,131
 417 859 417 859 416 858 c 0,132,133
 419 853 419 853 422 845 c 128,-1,134
 425 837 425 837 428 831 c 0,135,136
 436 814 436 814 442 800.5 c 128,-1,137
 448 787 448 787 451 778 c 1,138,-1
 451 784 l 1,139,-1
 450 788 l 1,140,141
 450 788 450 788 451 782 c 128,-1,142
 452 776 452 776 454 773 c 1,143,-1
 454 774 l 1,144,145
 456 770 456 770 460.5 763 c 128,-1,146
 465 756 465 756 470.5 749.5 c 128,-1,147
 476 743 476 743 481.5 738 c 128,-1,148
 487 733 487 733 492 733 c 2,149,-1
 501 733 l 2,150,151
 502 733 502 733 514.5 741 c 128,-1,152
 527 749 527 749 543 760 c 128,-1,153
 559 771 559 771 575 782.5 c 128,-1,154
 591 794 591 794 601 802 c 0,155,156
 603 804 603 804 609 808 c 0,157,158
 626 821 626 821 635.5 831.5 c 128,-1,159
 645 842 645 842 651 866 c 2,160,-1
 655 885 l 1,161,162
 649 913 649 913 627 913 c 0,163,164
 610 913 610 913 595.5 901.5 c 128,-1,165
 581 890 581 890 565 875 c 0,166,167
 555 866 555 866 545.5 857.5 c 128,-1,168
 536 849 536 849 529 846 c 1,169,-1
 500 908 l 1,170,-1
 502 906 l 1,118,119
534 836 m 1,171,-1
 530 843 l 1,172,173
 532 841 532 841 532 839 c 0,174,175
 532 838 532 838 534 836 c 1,171,-1
EndSplineSet
EndChar

StartChar: exclam
Encoding: 33 33 10
Width: 367
Flags: W
LayerCount: 2
Fore
SplineSet
140 356 m 2,0,-1
 138 348 l 2,1,2
 136 338 136 338 135.5 326 c 128,-1,3
 135 314 135 314 138 304 c 128,-1,4
 141 294 141 294 149 287 c 128,-1,5
 157 280 157 280 172 280 c 0,6,7
 189 280 189 280 199.5 284.5 c 128,-1,8
 210 289 210 289 225 310 c 0,9,10
 262 367 262 367 295 423.5 c 128,-1,11
 328 480 328 480 361 537 c 0,12,13
 389 585 389 585 416.5 632.5 c 128,-1,14
 444 680 444 680 475 729 c 0,15,16
 478 734 478 734 481.5 738 c 128,-1,17
 485 742 485 742 488 746 c 1,18,-1
 487 745 l 1,19,20
 498 761 498 761 505.5 774 c 128,-1,21
 513 787 513 787 518 806 c 0,22,23
 524 834 524 834 512 847 c 128,-1,24
 500 860 500 860 475 860 c 0,25,26
 448 860 448 860 431 845.5 c 128,-1,27
 414 831 414 831 397 811 c 0,28,29
 389 800 389 800 376.5 781.5 c 128,-1,30
 364 763 364 763 351 744.5 c 128,-1,31
 338 726 338 726 328.5 710.5 c 128,-1,32
 319 695 319 695 317 691 c 1,33,-1
 319 697 l 1,34,35
 313 686 313 686 301 664.5 c 128,-1,36
 289 643 289 643 273.5 616 c 128,-1,37
 258 589 258 589 241.5 559.5 c 128,-1,38
 225 530 225 530 210 503 c 128,-1,39
 195 476 195 476 183 454.5 c 128,-1,40
 171 433 171 433 166 423 c 0,41,42
 158 408 158 408 154 396.5 c 128,-1,43
 150 385 150 385 145 374 c 0,44,45
 143 369 143 369 142 365 c 128,-1,46
 141 361 141 361 140 356 c 2,0,-1
45 100 m 2,47,48
 43 90 43 90 42.5 76 c 128,-1,49
 42 62 42 62 45 49.5 c 128,-1,50
 48 37 48 37 56.5 28.5 c 128,-1,51
 65 20 65 20 81 20 c 0,52,53
 100 20 100 20 119 30 c 128,-1,54
 138 40 138 40 153.5 55 c 128,-1,55
 169 70 169 70 180.5 88.5 c 128,-1,56
 192 107 192 107 197 124 c 0,57,58
 200 138 200 138 200.5 153 c 128,-1,59
 201 168 201 168 197 180 c 128,-1,60
 193 192 193 192 183.5 200 c 128,-1,61
 174 208 174 208 157 208 c 0,62,63
 136 208 136 208 118 197 c 128,-1,64
 100 186 100 186 85.5 170 c 128,-1,65
 71 154 71 154 61 135.5 c 128,-1,66
 51 117 51 117 46 102 c 2,67,-1
 45 100 l 2,47,48
EndSplineSet
EndChar

StartChar: quotedbl
Encoding: 34 34 11
Width: 435
Flags: W
LayerCount: 2
Fore
SplineSet
299 519 m 2,0,1
 299 517 299 517 298 515.5 c 128,-1,2
 297 514 297 514 297 513 c 0,3,4
 292 490 292 490 304.5 478 c 128,-1,5
 317 466 317 466 342 466 c 0,6,7
 357 466 357 466 367.5 469 c 128,-1,8
 378 472 378 472 385 477.5 c 128,-1,9
 392 483 392 483 397.5 490.5 c 128,-1,10
 403 498 403 498 408 507 c 0,11,12
 410 512 410 512 412.5 515.5 c 128,-1,13
 415 519 415 519 417 522 c 0,14,15
 422 531 422 531 432.5 548 c 128,-1,16
 443 565 443 565 454 582 c 128,-1,17
 465 599 465 599 473.5 612.5 c 128,-1,18
 482 626 482 626 484 628 c 0,19,20
 493 639 493 639 501.5 648.5 c 128,-1,21
 510 658 510 658 520 668 c 0,22,23
 537 685 537 685 551.5 702 c 128,-1,24
 566 719 566 719 573 742 c 2,25,-1
 574 749 l 2,26,27
 579 770 579 770 572 787.5 c 128,-1,28
 565 805 565 805 536 805 c 0,29,30
 515 805 515 805 490.5 787.5 c 128,-1,31
 466 770 466 770 441 743 c 128,-1,32
 416 716 416 716 392 683 c 128,-1,33
 368 650 368 650 349 618.5 c 128,-1,34
 330 587 330 587 317 560.5 c 128,-1,35
 304 534 304 534 300 521 c 2,36,-1
 299 519 l 2,0,1
136 509 m 1,37,-1
 136 506 l 1,38,39
 131 488 131 488 139 471.5 c 128,-1,40
 147 455 147 455 174 455 c 0,41,42
 190 455 190 455 209.5 471 c 128,-1,43
 229 487 229 487 249.5 512 c 128,-1,44
 270 537 270 537 291 567.5 c 128,-1,45
 312 598 312 598 331 627 c 0,46,47
 348 653 348 653 363 675 c 128,-1,48
 378 697 378 697 392 712 c 1,49,50
 395 726 395 726 396 726 c 256,51,52
 397 726 397 726 399 729 c 0,53,54
 399 731 399 731 400 732 c 128,-1,55
 401 733 401 733 401 733 c 1,56,-1
 401 736 l 1,57,58
 411 779 411 779 366 779 c 0,59,60
 344 779 344 779 319.5 763.5 c 128,-1,61
 295 748 295 748 271 723.5 c 128,-1,62
 247 699 247 699 224.5 668.5 c 128,-1,63
 202 638 202 638 184 608 c 128,-1,64
 166 578 166 578 153 551.5 c 128,-1,65
 140 525 140 525 136 509 c 1,37,-1
EndSplineSet
EndChar

StartChar: numbersign
Encoding: 35 35 12
Width: 624
Flags: W
LayerCount: 2
Fore
SplineSet
203 199 m 0,0,1
 211 199 211 199 211.5 191 c 128,-1,2
 212 183 212 183 212 173 c 0,3,4
 212 162 212 162 212 152 c 256,5,6
 212 142 212 142 215.5 134 c 128,-1,7
 219 126 219 126 227.5 121 c 128,-1,8
 236 116 236 116 252 116 c 0,9,10
 269 116 269 116 289.5 128 c 128,-1,11
 310 140 310 140 315 160 c 2,12,-1
 333 227 l 1,13,-1
 333 226 l 1,14,15
 334 229 334 229 340.5 231.5 c 128,-1,16
 347 234 347 234 355 235 c 128,-1,17
 363 236 363 236 371 236.5 c 128,-1,18
 379 237 379 237 383 237 c 1,19,20
 380 223 380 223 378 202 c 128,-1,21
 376 181 376 181 378.5 161.5 c 128,-1,22
 381 142 381 142 391 128 c 128,-1,23
 401 114 401 114 424 114 c 0,24,25
 446 114 446 114 461 125 c 128,-1,26
 476 136 476 136 486.5 152.5 c 128,-1,27
 497 169 497 169 503 188.5 c 128,-1,28
 509 208 509 208 513 225 c 0,29,30
 515 232 515 232 515.5 238 c 128,-1,31
 516 244 516 244 517 248 c 2,32,-1
 517 250 l 1,33,34
 525 257 525 257 540 258.5 c 128,-1,35
 555 260 555 260 571 261 c 128,-1,36
 587 262 587 262 603 264 c 128,-1,37
 619 266 619 266 632.5 271.5 c 128,-1,38
 646 277 646 277 656.5 288 c 128,-1,39
 667 299 667 299 672 319 c 0,40,41
 676 339 676 339 667.5 351.5 c 128,-1,42
 659 364 659 364 644 370.5 c 128,-1,43
 629 377 629 377 610 379.5 c 128,-1,44
 591 382 591 382 575 382 c 2,45,-1
 557 382 l 1,46,-1
 563 400 l 2,47,48
 568 419 568 419 582 424.5 c 128,-1,49
 596 430 596 430 612 433 c 0,50,51
 625 435 625 435 637.5 438 c 128,-1,52
 650 441 650 441 661 447 c 128,-1,53
 672 453 672 453 681 463.5 c 128,-1,54
 690 474 690 474 695 492 c 2,55,-1
 697 499 l 2,56,57
 698 506 698 506 699.5 514.5 c 128,-1,58
 701 523 701 523 699.5 529.5 c 128,-1,59
 698 536 698 536 692.5 540.5 c 128,-1,60
 687 545 687 545 675 545 c 2,61,-1
 613 545 l 1,62,-1
 611 547 l 1,63,64
 613 552 613 552 616 560.5 c 128,-1,65
 619 569 619 569 621 580 c 0,66,67
 624 593 624 593 625 607 c 128,-1,68
 626 621 626 621 622 632 c 128,-1,69
 618 643 618 643 609 650 c 128,-1,70
 600 657 600 657 584 657 c 0,71,72
 564 657 564 657 551 651 c 128,-1,73
 538 645 538 645 529 634.5 c 128,-1,74
 520 624 520 624 513 611 c 128,-1,75
 506 598 506 598 500 584 c 1,76,-1
 501 584 l 1,77,78
 496 573 496 573 490.5 562 c 128,-1,79
 485 551 485 551 476.5 542 c 128,-1,80
 468 533 468 533 455 527 c 128,-1,81
 442 521 442 521 423 521 c 2,82,-1
 422 521 l 2,83,84
 420 521 420 521 418 519 c 1,85,-1
 444 611 l 1,86,-1
 445 615 l 2,87,88
 450 636 450 636 436 649 c 128,-1,89
 422 662 422 662 402 662 c 0,90,91
 385 662 385 662 371 656 c 128,-1,92
 357 650 357 650 346.5 640 c 128,-1,93
 336 630 336 630 328 618.5 c 128,-1,94
 320 607 320 607 316 595 c 1,95,-1
 318 599 l 1,96,97
 313 591 313 591 304.5 569.5 c 128,-1,98
 296 548 296 548 288 528 c 0,99,100
 283 517 283 517 280 508 c 128,-1,101
 277 499 277 499 277 497 c 1,102,-1
 278 500 l 1,103,-1
 274 494 l 1,104,-1
 271 493 l 2,105,106
 256 488 256 488 238.5 481 c 128,-1,107
 221 474 221 474 205 464.5 c 128,-1,108
 189 455 189 455 177 442 c 128,-1,109
 165 429 165 429 159 411 c 2,110,-1
 154 388 l 2,111,112
 155 380 155 380 162 370 c 128,-1,113
 169 360 169 360 174 360 c 2,114,-1
 240 360 l 1,115,-1
 236 342 l 2,116,117
 234 339 234 339 233 333 c 0,118,119
 231 331 231 331 231 329 c 256,120,121
 231 327 231 327 230 325 c 0,122,123
 222 318 222 318 208.5 315 c 128,-1,124
 195 312 195 312 180 310 c 0,125,126
 163 307 163 307 147 303 c 128,-1,127
 131 299 131 299 117.5 292 c 128,-1,128
 104 285 104 285 93.5 273 c 128,-1,129
 83 261 83 261 78 242 c 1,130,-1
 78 238 l 1,131,132
 72 211 72 211 85.5 201 c 128,-1,133
 99 191 99 191 128 191 c 0,134,135
 148 191 148 191 168 194 c 0,136,137
 178 196 178 196 187.5 197.5 c 128,-1,138
 197 199 197 199 203 199 c 0,0,1
423 409 m 2,139,-1
 438 409 l 1,140,-1
 435 395 l 2,141,142
 427 369 427 369 411.5 359 c 128,-1,143
 396 349 396 349 367 349 c 2,144,-1
 365 349 l 1,145,-1
 380 406 l 2,146,147
 380 407 380 407 386 407.5 c 128,-1,148
 392 408 392 408 399.5 408.5 c 128,-1,149
 407 409 407 409 414 409 c 256,150,151
 421 409 421 409 423 409 c 2,139,-1
EndSplineSet
EndChar

StartChar: dollar
Encoding: 36 36 13
Width: 417
Flags: W
LayerCount: 2
Fore
SplineSet
149 20 m 0,0,1
 172 20 172 20 187.5 27 c 128,-1,2
 203 34 203 34 213.5 45.5 c 128,-1,3
 224 57 224 57 231.5 72 c 128,-1,4
 239 87 239 87 246 102 c 0,5,6
 253 118 253 118 260 131.5 c 128,-1,7
 267 145 267 145 280 151 c 0,8,9
 284 153 284 153 297 157.5 c 128,-1,10
 310 162 310 162 315 162 c 0,11,12
 341 175 341 175 365.5 194.5 c 128,-1,13
 390 214 390 214 411 237.5 c 128,-1,14
 432 261 432 261 447 286 c 128,-1,15
 462 311 462 311 468 335 c 2,16,-1
 469 340 l 2,17,18
 478 380 478 380 462.5 409.5 c 128,-1,19
 447 439 447 439 421.5 459.5 c 128,-1,20
 396 480 396 480 367 492.5 c 128,-1,21
 338 505 338 505 320 512 c 1,22,-1
 319 512 l 1,23,24
 331 525 331 525 359.5 529.5 c 128,-1,25
 388 534 388 534 413 534 c 0,26,27
 423 534 423 534 433 533 c 128,-1,28
 443 532 443 532 451 531 c 1,29,30
 477 544 477 544 486 552.5 c 128,-1,31
 495 561 495 561 499 578 c 1,32,-1
 499 581 l 2,33,34
 502 596 502 596 499 607 c 128,-1,35
 496 618 496 618 489.5 625.5 c 128,-1,36
 483 633 483 633 473 638.5 c 128,-1,37
 463 644 463 644 453 650 c 0,38,39
 443 655 443 655 434.5 659.5 c 128,-1,40
 426 664 426 664 424 671 c 1,41,-1
 424 670 l 1,42,-1
 426 677 l 2,43,44
 428 690 428 690 429.5 707 c 128,-1,45
 431 724 431 724 428.5 739.5 c 128,-1,46
 426 755 426 755 417.5 766 c 128,-1,47
 409 777 409 777 390 777 c 0,48,49
 384 777 384 777 371.5 773.5 c 128,-1,50
 359 770 359 770 346 763.5 c 128,-1,51
 333 757 333 757 322 747.5 c 128,-1,52
 311 738 311 738 309 727 c 2,53,-1
 284 635 l 1,54,55
 284 635 284 635 274 627 c 128,-1,56
 264 619 264 619 250 608 c 0,57,58
 235 596 235 596 217.5 581 c 128,-1,59
 200 566 200 566 184 549 c 128,-1,60
 168 532 168 532 155.5 512.5 c 128,-1,61
 143 493 143 493 137 471 c 1,62,-1
 137 469 l 1,63,64
 132 447 132 447 139 433.5 c 128,-1,65
 146 420 146 420 160.5 411.5 c 128,-1,66
 175 403 175 403 195.5 399 c 128,-1,67
 216 395 216 395 238 391 c 0,68,69
 257 388 257 388 275 385 c 128,-1,70
 293 382 293 382 306.5 376 c 128,-1,71
 320 370 320 370 326.5 360.5 c 128,-1,72
 333 351 333 351 330 336 c 2,73,-1
 330 332 l 1,74,75
 324 308 324 308 306.5 290 c 128,-1,76
 289 272 289 272 261 272 c 0,77,78
 244 272 244 272 235.5 282 c 128,-1,79
 227 292 227 292 221 304 c 0,80,81
 212 322 212 322 200 336.5 c 128,-1,82
 188 351 188 351 159 351 c 0,83,84
 142 351 142 351 130 345 c 128,-1,85
 118 339 118 339 110 329 c 128,-1,86
 102 319 102 319 97 307.5 c 128,-1,87
 92 296 92 296 89 286 c 2,88,-1
 87 278 l 2,89,90
 79 238 79 238 94.5 212 c 128,-1,91
 110 186 110 186 132 162 c 0,92,93
 132 161 132 161 132 161 c 1,94,95
 133 161 133 161 133 160 c 2,96,-1
 107 65 l 2,97,98
 105 56 105 56 108.5 48 c 128,-1,99
 112 40 112 40 118.5 34 c 128,-1,100
 125 28 125 28 133 24 c 128,-1,101
 141 20 141 20 149 20 c 0,0,1
EndSplineSet
EndChar

StartChar: percent
Encoding: 37 37 14
Width: 716
Flags: W
LayerCount: 2
Fore
SplineSet
149 65 m 1,0,1
 158 49 158 49 169 37 c 128,-1,2
 180 25 180 25 200 25 c 0,3,4
 222 25 222 25 242.5 42 c 128,-1,5
 263 59 263 59 282 84.5 c 128,-1,6
 301 110 301 110 318 140.5 c 128,-1,7
 335 171 335 171 349 198 c 0,8,9
 358 216 358 216 365.5 230 c 128,-1,10
 373 244 373 244 378 249 c 0,11,12
 452 354 452 354 542.5 445.5 c 128,-1,13
 633 537 633 537 736 622 c 0,14,15
 741 627 741 627 746.5 630.5 c 128,-1,16
 752 634 752 634 758 639 c 0,17,18
 781 657 781 657 800 676 c 128,-1,19
 819 695 819 695 827 722 c 2,20,-1
 828 725 l 2,21,22
 832 742 832 742 827.5 753.5 c 128,-1,23
 823 765 823 765 813.5 771.5 c 128,-1,24
 804 778 804 778 791 781 c 128,-1,25
 778 784 778 784 763 784 c 0,26,27
 737 784 737 784 712 776.5 c 128,-1,28
 687 769 687 769 663 761 c 128,-1,29
 639 753 639 753 616 745.5 c 128,-1,30
 593 738 593 738 569 738 c 0,31,32
 552 738 552 738 538.5 745 c 128,-1,33
 525 752 525 752 514 762 c 0,34,35
 499 773 499 773 482.5 782.5 c 128,-1,36
 466 792 466 792 439 792 c 0,37,38
 389 792 389 792 342 773.5 c 128,-1,39
 295 755 295 755 256.5 724.5 c 128,-1,40
 218 694 218 694 191 654 c 128,-1,41
 164 614 164 614 153 571 c 2,42,-1
 152 565 l 2,43,44
 147 541 147 541 151.5 518.5 c 128,-1,45
 156 496 156 496 168.5 478.5 c 128,-1,46
 181 461 181 461 201 450.5 c 128,-1,47
 221 440 221 440 248 440 c 0,48,49
 282 440 282 440 315.5 454 c 128,-1,50
 349 468 349 468 379 488.5 c 128,-1,51
 409 509 409 509 436 533 c 128,-1,52
 463 557 463 557 484 577 c 0,53,54
 499 591 499 591 508.5 600.5 c 128,-1,55
 518 610 518 610 518 610 c 1,56,57
 528 610 528 610 535.5 609.5 c 128,-1,58
 543 609 543 609 554 607 c 1,59,60
 550 602 550 602 545.5 598.5 c 128,-1,61
 541 595 541 595 537 591 c 2,62,-1
 450 512 l 2,63,64
 406 469 406 469 360 420.5 c 128,-1,65
 314 372 314 372 273.5 320 c 128,-1,66
 233 268 233 268 202 213.5 c 128,-1,67
 171 159 171 159 157 104 c 2,68,-1
 149 65 l 1,0,1
361 107 m 1,69,70
 365 69 365 69 394.5 44.5 c 128,-1,71
 424 20 424 20 464 20 c 0,72,73
 512 20 512 20 557.5 36.5 c 128,-1,74
 603 53 603 53 640.5 81.5 c 128,-1,75
 678 110 678 110 705.5 147.5 c 128,-1,76
 733 185 733 185 744 228 c 2,77,-1
 747 238 l 2,78,79
 753 268 753 268 749.5 296.5 c 128,-1,80
 746 325 746 325 732 347 c 128,-1,81
 718 369 718 369 693.5 382.5 c 128,-1,82
 669 396 669 396 633 396 c 0,83,84
 582 396 582 396 538.5 373 c 128,-1,85
 495 350 495 350 461.5 315 c 128,-1,86
 428 280 428 280 405 237.5 c 128,-1,87
 382 195 382 195 372 155 c 2,88,-1
 371 150 l 2,89,90
 369 146 369 146 368.5 141.5 c 128,-1,91
 368 137 368 137 366 132 c 2,92,-1
 361 107 l 1,69,70
498 168 m 0,93,94
 502 184 502 184 513 203.5 c 128,-1,95
 524 223 524 223 539 240.5 c 128,-1,96
 554 258 554 258 572.5 269.5 c 128,-1,97
 591 281 591 281 611 281 c 0,98,99
 620 281 620 281 624.5 275.5 c 128,-1,100
 629 270 629 270 630.5 261.5 c 128,-1,101
 632 253 632 253 631.5 243.5 c 128,-1,102
 631 234 631 234 629 226 c 0,103,104
 619 191 619 191 588.5 169 c 128,-1,105
 558 147 558 147 519 147 c 0,106,107
 517 147 517 147 512 147 c 0,108,109
 508 147 508 147 503 148 c 2,110,-1
 496 157 l 2,111,112
 497 160 497 160 497 163 c 256,113,114
 497 166 497 166 498 168 c 0,93,94
377 655 m 0,115,116
 385 655 385 655 391 653 c 128,-1,117
 397 651 397 651 395 646 c 0,118,119
 391 632 391 632 379 617.5 c 128,-1,120
 367 603 367 603 351.5 591 c 128,-1,121
 336 579 336 579 318.5 571.5 c 128,-1,122
 301 564 301 564 285 564 c 0,123,124
 275 564 275 564 277 570 c 2,125,-1
 278 573 l 2,126,127
 282 588 282 588 291.5 602.5 c 128,-1,128
 301 617 301 617 314.5 629 c 128,-1,129
 328 641 328 641 344 648 c 128,-1,130
 360 655 360 655 377 655 c 0,115,116
EndSplineSet
EndChar

StartChar: ampersand
Encoding: 38 38 15
Width: 484
Flags: W
LayerCount: 2
Fore
SplineSet
110 384 m 2,0,-1
 106 366 l 2,1,2
 101 343 101 343 104.5 325.5 c 128,-1,3
 108 308 108 308 117.5 294 c 128,-1,4
 127 280 127 280 141 268.5 c 128,-1,5
 155 257 155 257 170 246 c 0,6,7
 184 237 184 237 195 227 c 0,8,9
 198 225 198 225 198 221 c 256,10,11
 198 217 198 217 199 212 c 0,12,13
 198 197 198 197 203.5 184.5 c 128,-1,14
 209 172 209 172 238 172 c 0,15,16
 261 172 261 172 279 184 c 128,-1,17
 297 196 297 196 310.5 213.5 c 128,-1,18
 324 231 324 231 334 251 c 128,-1,19
 344 271 344 271 352 288 c 0,20,21
 355 293 355 293 354.5 293.5 c 128,-1,22
 354 294 354 294 361 305 c 1,23,-1
 368 310 l 1,24,25
 376 310 376 310 380 311 c 1,26,-1
 379 311 l 1,27,28
 398 312 398 312 424 315 c 128,-1,29
 450 318 450 318 475 325.5 c 128,-1,30
 500 333 500 333 519.5 347 c 128,-1,31
 539 361 539 361 546 385 c 1,32,-1
 546 388 l 1,33,34
 550 406 550 406 543 417 c 128,-1,35
 536 428 536 428 523 434 c 128,-1,36
 510 440 510 440 492.5 442 c 128,-1,37
 475 444 475 444 457 444 c 0,38,39
 443 444 443 444 432 443.5 c 128,-1,40
 421 443 421 443 413 442 c 1,41,-1
 415 452 l 2,42,43
 417 464 417 464 420 479.5 c 128,-1,44
 423 495 423 495 425 508 c 0,45,46
 426 521 426 521 428 527 c 0,47,48
 430 537 430 537 431 550 c 128,-1,49
 432 563 432 563 429 575 c 128,-1,50
 426 587 426 587 417.5 595.5 c 128,-1,51
 409 604 409 604 392 604 c 0,52,53
 384 604 384 604 374 601.5 c 128,-1,54
 364 599 364 599 353.5 593.5 c 128,-1,55
 343 588 343 588 334.5 579.5 c 128,-1,56
 326 571 326 571 323 560 c 2,57,-1
 290 428 l 2,58,59
 290 426 290 426 285 426 c 2,60,-1
 161 426 l 2,61,62
 135 426 135 426 124.5 414.5 c 128,-1,63
 114 403 114 403 110 384 c 2,0,-1
239 321 m 2,64,-1
 247 332 l 1,65,-1
 251 333 l 1,66,-1
 253 333 l 1,67,-1
 245 311 l 1,68,-1
 243 312 l 2,69,70
 239 316 239 316 239 321 c 2,64,-1
243 331 m 1,71,-1
 244 331 l 1,72,-1
 242 329 l 1,73,74
 242 330 242 330 242 330 c 1,75,76
 243 330 243 330 243 331 c 1,71,-1
256 332 m 1,77,78
 256 332 256 332 255.5 331.5 c 128,-1,79
 255 331 255 331 256 330 c 1,80,-1
 254 333 l 1,81,82
 254 333 254 333 254.5 332.5 c 128,-1,83
 255 332 255 332 256 332 c 1,77,78
243 311 m 1,84,-1
 245 311 l 1,85,-1
 245 310 l 1,86,87
 244 310 244 310 244 310 c 1,88,89
 244 311 244 311 243 311 c 1,84,-1
245 310 m 1,90,-1
 246 310 l 1,91,-1
 245 310 l 1,90,-1
245 332 m 1,92,-1
 243 331 l 1,93,94
 244 332 244 332 245 332 c 1,92,-1
EndSplineSet
EndChar

StartChar: quotesingle
Encoding: 39 39 16
Width: 175
Flags: W
LayerCount: 2
Fore
SplineSet
141 523 m 0,0,1
 139 520 139 520 138.5 515.5 c 128,-1,2
 138 511 138 511 137 506 c 0,3,4
 132 483 132 483 138.5 474 c 128,-1,5
 145 465 145 465 171 465 c 0,6,7
 201 465 201 465 221 483.5 c 128,-1,8
 241 502 241 502 254.5 529.5 c 128,-1,9
 268 557 268 557 276 588 c 128,-1,10
 284 619 284 619 290 643 c 0,11,12
 292 650 292 650 293 655 c 128,-1,13
 294 660 294 660 295 665 c 0,14,15
 296 668 296 668 297 671.5 c 128,-1,16
 298 675 298 675 300 680 c 0,17,18
 301 687 301 687 303 695.5 c 128,-1,19
 305 704 305 704 307 713 c 0,20,21
 311 733 311 733 313.5 754.5 c 128,-1,22
 316 776 316 776 314 793.5 c 128,-1,23
 312 811 312 811 303 822.5 c 128,-1,24
 294 834 294 834 276 834 c 0,25,26
 253 834 253 834 232.5 815 c 128,-1,27
 212 796 212 796 204 773 c 0,28,29
 202 761 202 761 200 748.5 c 128,-1,30
 198 736 198 736 196 726 c 0,31,32
 195 718 195 718 194.5 710.5 c 128,-1,33
 194 703 194 703 192 695 c 0,34,35
 190 690 190 690 189 685 c 128,-1,36
 188 680 188 680 186 674 c 0,37,38
 181 657 181 657 176 641.5 c 128,-1,39
 171 626 171 626 166 609 c 0,40,41
 159 588 159 588 153 567 c 128,-1,42
 147 546 147 546 141 523 c 0,0,1
EndSplineSet
EndChar

StartChar: parenleft
Encoding: 40 40 17
Width: 315
Flags: W
LayerCount: 2
Fore
SplineSet
112 391 m 0,0,1
 108 376 108 376 100 338 c 0,2,3
 91 296 91 296 84.5 241 c 128,-1,4
 78 186 78 186 81 137 c 128,-1,5
 84 88 84 88 101.5 54 c 128,-1,6
 119 20 119 20 158 20 c 0,7,8
 191 20 191 20 206.5 39.5 c 128,-1,9
 222 59 222 59 227 86 c 2,10,-1
 232 107 l 2,11,12
 231 110 231 110 230 125 c 128,-1,13
 229 140 229 140 228 158 c 128,-1,14
 227 176 227 176 226.5 191.5 c 128,-1,15
 226 207 226 207 227 211 c 0,16,17
 225 250 225 250 228.5 287.5 c 128,-1,18
 232 325 232 325 240 363 c 0,19,20
 243 376 243 376 246 388.5 c 128,-1,21
 249 401 249 401 252 415 c 0,22,23
 269 478 269 478 298.5 537.5 c 128,-1,24
 328 597 328 597 366 655 c 0,25,26
 373 666 373 666 382 676.5 c 128,-1,27
 391 687 391 687 401 698 c 0,28,29
 421 720 421 720 438 743 c 128,-1,30
 455 766 455 766 463 791 c 2,31,-1
 465 799 l 2,32,33
 470 823 470 823 459.5 838 c 128,-1,34
 449 853 449 853 423 853 c 0,35,36
 391 853 391 853 357 824 c 128,-1,37
 323 795 323 795 290 750 c 128,-1,38
 257 705 257 705 226.5 650.5 c 128,-1,39
 196 596 196 596 172 544.5 c 128,-1,40
 148 493 148 493 132 451.5 c 128,-1,41
 116 410 116 410 112 391 c 0,0,1
EndSplineSet
EndChar

StartChar: parenright
Encoding: 41 41 18
Width: 309
Flags: W
LayerCount: 2
Fore
SplineSet
41 75 m 1,0,-1
 41 73 l 2,1,2
 38 62 38 62 41.5 52 c 128,-1,3
 45 42 45 42 52.5 35 c 128,-1,4
 60 28 60 28 70 24 c 128,-1,5
 80 20 80 20 90 20 c 0,6,7
 123 20 123 20 156 44.5 c 128,-1,8
 189 69 189 69 219 107.5 c 128,-1,9
 249 146 249 146 276 193 c 128,-1,10
 303 240 303 240 324.5 285 c 128,-1,11
 346 330 346 330 360 368.5 c 128,-1,12
 374 407 374 407 380 427 c 0,13,14
 383 441 383 441 390 479.5 c 128,-1,15
 397 518 397 518 403.5 567 c 128,-1,16
 410 616 410 616 412.5 669 c 128,-1,17
 415 722 415 722 409.5 766.5 c 128,-1,18
 404 811 404 811 387 839.5 c 128,-1,19
 370 868 370 868 337 868 c 0,20,21
 311 868 311 868 295 849 c 128,-1,22
 279 830 279 830 272 810 c 2,23,-1
 268 790 l 1,24,25
 278 700 278 700 279.5 613 c 128,-1,26
 281 526 281 526 262 433 c 0,27,28
 260 426 260 426 258.5 419 c 128,-1,29
 257 412 257 412 255 405 c 1,30,-1
 255 406 l 1,31,32
 241 350 241 350 217 302.5 c 128,-1,33
 193 255 193 255 151 206 c 0,34,35
 142 195 142 195 132 185.5 c 128,-1,36
 122 176 122 176 112 168 c 0,37,38
 89 148 89 148 69.5 126 c 128,-1,39
 50 104 50 104 41 75 c 1,0,-1
EndSplineSet
EndChar

StartChar: asterisk
Encoding: 42 42 19
Width: 363
Flags: W
LayerCount: 2
Fore
SplineSet
499 749 m 1,0,1
 497 762 497 762 480 772.5 c 128,-1,2
 463 783 463 783 445 783 c 0,3,4
 429 783 429 783 420 779 c 1,5,6
 423 798 423 798 409 808 c 128,-1,7
 395 818 395 818 372 818 c 0,8,9
 327 818 327 818 298 783 c 1,10,-1
 300 785 l 1,11,12
 288 773 288 773 281 759 c 1,13,14
 269 766 269 766 258 766 c 0,15,16
 253 766 253 766 248 765 c 128,-1,17
 243 764 243 764 239 763 c 0,18,19
 219 758 219 758 205.5 745 c 128,-1,20
 192 732 192 732 187 711 c 0,21,22
 185 698 185 698 187 686 c 128,-1,23
 189 674 189 674 203 662 c 0,24,25
 211 658 211 658 211 658 c 1,26,27
 208 656 208 656 204 654 c 0,28,29
 183 642 183 642 171 627.5 c 128,-1,30
 159 613 159 613 154 599 c 0,31,32
 152 592 152 592 154 585.5 c 128,-1,33
 156 579 156 579 159 568 c 0,34,35
 173 545 173 545 203 545 c 0,36,37
 213 545 213 545 228 550 c 1,38,39
 222 510 222 510 258 499 c 1,40,41
 293 501 293 501 319 516 c 128,-1,42
 345 531 345 531 358 557 c 1,43,44
 375 550 375 550 391 550 c 0,45,46
 428 550 428 550 449 581 c 1,47,-1
 448 580 l 1,48,49
 459 594 459 594 462 608 c 2,50,-1
 463 612 l 2,51,52
 467 631 467 631 459.5 646.5 c 128,-1,53
 452 662 452 662 435 670 c 1,54,55
 461 681 461 681 476 695 c 128,-1,56
 491 709 491 709 497 726 c 0,57,58
 499 731 499 731 498 734 c 128,-1,59
 497 737 497 737 498 742 c 1,60,-1
 498 737 l 1,61,-1
 498 743 l 1,62,-1
 499 749 l 1,0,1
EndSplineSet
EndChar

StartChar: plus
Encoding: 43 43 20
Width: 564
Flags: W
LayerCount: 2
Fore
SplineSet
219 229 m 2,0,-1
 214 212 l 2,1,2
 209 188 209 188 214.5 171 c 128,-1,3
 220 154 220 154 249 154 c 0,4,5
 274 154 274 154 291.5 165 c 128,-1,6
 309 176 309 176 322 194 c 128,-1,7
 335 212 335 212 344 234.5 c 128,-1,8
 353 257 353 257 361 280 c 0,9,10
 368 301 368 301 376 318.5 c 128,-1,11
 384 336 384 336 392 344 c 1,12,-1
 391 344 l 1,13,14
 396 348 396 348 421.5 349.5 c 128,-1,15
 447 351 447 351 477 353 c 0,16,17
 502 354 502 354 526.5 355 c 128,-1,18
 551 356 551 356 571.5 360.5 c 128,-1,19
 592 365 592 365 606.5 373 c 128,-1,20
 621 381 621 381 625 396 c 2,21,-1
 638 442 l 2,22,23
 639 445 639 445 634 454.5 c 128,-1,24
 629 464 629 464 622 466 c 0,25,26
 620 466 620 466 615.5 467 c 128,-1,27
 611 468 611 468 605.5 469 c 128,-1,28
 600 470 600 470 595 470.5 c 128,-1,29
 590 471 590 471 589 471 c 2,30,-1
 446 471 l 1,31,32
 451 485 451 485 458.5 499 c 128,-1,33
 466 513 466 513 474 528 c 1,34,-1
 474 527 l 1,35,36
 485 547 485 547 493.5 566 c 128,-1,37
 502 585 502 585 507 607 c 2,38,-1
 512 629 l 1,39,40
 497 660 497 660 469 660 c 0,41,42
 446 660 446 660 428.5 649 c 128,-1,43
 411 638 411 638 398.5 622.5 c 128,-1,44
 386 607 386 607 377.5 590 c 128,-1,45
 369 573 369 573 363 561 c 0,46,47
 359 555 359 555 352.5 542 c 128,-1,48
 346 529 346 529 339.5 514.5 c 128,-1,49
 333 500 333 500 327.5 487 c 128,-1,50
 322 474 322 474 320 469 c 0,51,52
 312 461 312 461 297.5 459 c 128,-1,53
 283 457 283 457 266 457 c 2,54,-1
 240 457 l 2,55,56
 232 457 232 457 226 457.5 c 128,-1,57
 220 458 220 458 214 458 c 0,58,59
 177 458 177 458 147.5 446.5 c 128,-1,60
 118 435 118 435 108 395 c 1,61,-1
 108 393 l 1,62,63
 103 373 103 373 116 360.5 c 128,-1,64
 129 348 129 348 151 348 c 2,65,-1
 264 348 l 1,66,-1
 263 342 l 2,67,68
 259 328 259 328 252.5 312 c 128,-1,69
 246 296 246 296 239 279 c 1,70,-1
 241 280 l 1,71,72
 234 266 234 266 228 252.5 c 128,-1,73
 222 239 222 239 219 229 c 2,0,-1
EndSplineSet
EndChar

StartChar: comma
Encoding: 44 44 21
Width: 231
Flags: W
LayerCount: 2
Fore
SplineSet
9 -72 m 2,0,-1
 8 -73 l 1,1,2
 6 -84 6 -84 8.5 -91 c 128,-1,3
 11 -98 11 -98 16.5 -102 c 128,-1,4
 22 -106 22 -106 30 -107.5 c 128,-1,5
 38 -109 38 -109 46 -109 c 0,6,7
 72 -109 72 -109 102 -85 c 128,-1,8
 132 -61 132 -61 159 -28 c 128,-1,9
 186 5 186 5 205.5 39.5 c 128,-1,10
 225 74 225 74 230 94 c 1,11,-1
 230 93 l 1,12,-1
 232 100 l 1,13,-1
 239 134 l 1,14,15
 238 150 238 150 230 161.5 c 128,-1,16
 222 173 222 173 202 173 c 256,17,18
 182 173 182 173 168.5 165.5 c 128,-1,19
 155 158 155 158 145 146 c 128,-1,20
 135 134 135 134 129 119 c 128,-1,21
 123 104 123 104 118 90 c 0,22,23
 116 85 116 85 113.5 78 c 128,-1,24
 111 71 111 71 108 65 c 0,25,26
 100 52 100 52 88 35 c 128,-1,27
 76 18 76 18 62.5 1 c 128,-1,28
 49 -16 49 -16 36.5 -32.5 c 128,-1,29
 24 -49 24 -49 14 -60 c 0,30,31
 10 -68 10 -68 9.5 -69 c 128,-1,32
 9 -70 9 -70 9 -72 c 2,0,-1
EndSplineSet
EndChar

StartChar: hyphen
Encoding: 45 45 22
Width: 421
Flags: W
LayerCount: 2
Fore
SplineSet
92 271 m 2,0,-1
 91 266 l 2,1,2
 89 257 89 257 93 249.5 c 128,-1,3
 97 242 97 242 104.5 237 c 128,-1,4
 112 232 112 232 122 228 c 128,-1,5
 132 224 132 224 142 221 c 2,6,-1
 186 221 l 2,7,8
 217 221 217 221 243.5 221.5 c 128,-1,9
 270 222 270 222 297 224 c 128,-1,10
 324 226 324 226 354 228.5 c 128,-1,11
 384 231 384 231 421 236 c 1,12,13
 441 244 441 244 448 253.5 c 128,-1,14
 455 263 455 263 459 274 c 0,15,16
 463 294 463 294 445 305 c 128,-1,17
 427 316 427 316 402 316 c 2,18,-1
 176 316 l 2,19,20
 148 316 148 316 122.5 304.5 c 128,-1,21
 97 293 97 293 92 271 c 2,0,-1
EndSplineSet
EndChar

StartChar: period
Encoding: 46 46 23
Width: 166
Flags: W
LayerCount: 2
Fore
SplineSet
47 78 m 2,0,-1
 45 72 l 2,1,2
 40 50 40 50 51.5 34.5 c 128,-1,3
 63 19 63 19 88 19 c 0,4,5
 100 19 100 19 112.5 25.5 c 128,-1,6
 125 32 125 32 135.5 42 c 128,-1,7
 146 52 146 52 154 63.5 c 128,-1,8
 162 75 162 75 164 86 c 2,9,-1
 165 89 l 2,10,11
 170 112 170 112 154 124.5 c 128,-1,12
 138 137 138 137 115 137 c 0,13,14
 87 137 87 137 69.5 118.5 c 128,-1,15
 52 100 52 100 47 78 c 2,0,-1
EndSplineSet
EndChar

StartChar: slash
Encoding: 47 47 24
Width: 529
Flags: W
LayerCount: 2
Fore
SplineSet
40 77 m 2,0,-1
 39 71 l 2,1,2
 34 51 34 51 40 35.5 c 128,-1,3
 46 20 46 20 72 20 c 0,4,5
 93 20 93 20 109 27 c 128,-1,6
 125 34 125 34 137.5 45.5 c 128,-1,7
 150 57 150 57 160.5 70.5 c 128,-1,8
 171 84 171 84 180 97 c 0,9,10
 185 106 185 106 190 113 c 0,11,12
 206 134 206 134 230 165.5 c 128,-1,13
 254 197 254 197 281 232.5 c 128,-1,14
 308 268 308 268 336 304 c 128,-1,15
 364 340 364 340 387.5 370.5 c 128,-1,16
 411 401 411 401 428 423 c 128,-1,17
 445 445 445 445 451 453 c 0,18,19
 455 456 455 456 472 474.5 c 128,-1,20
 489 493 489 493 510 517 c 128,-1,21
 531 541 531 541 552.5 565.5 c 128,-1,22
 574 590 574 590 587 605 c 1,23,-1
 585 604 l 1,24,-1
 596 615 l 2,25,26
 617 636 617 636 633 657.5 c 128,-1,27
 649 679 649 679 659 707 c 2,28,-1
 661 713 l 2,29,30
 666 739 666 739 656.5 751.5 c 128,-1,31
 647 764 647 764 616 764 c 0,32,33
 601 764 601 764 569.5 738.5 c 128,-1,34
 538 713 538 713 496.5 670.5 c 128,-1,35
 455 628 455 628 406 573 c 128,-1,36
 357 518 357 518 308 458.5 c 128,-1,37
 259 399 259 399 213 339 c 128,-1,38
 167 279 167 279 130 227 c 128,-1,39
 93 175 93 175 69 135.5 c 128,-1,40
 45 96 45 96 40 77 c 2,0,-1
EndSplineSet
EndChar

StartChar: zero
Encoding: 48 48 25
Width: 680
Flags: W
LayerCount: 2
Fore
SplineSet
92 278 m 1,0,-1
 89 263 l 2,1,2
 78 213 78 213 84.5 169 c 128,-1,3
 91 125 91 125 114 92 c 128,-1,4
 137 59 137 59 178 39.5 c 128,-1,5
 219 20 219 20 278 20 c 0,6,7
 332 20 332 20 385 38.5 c 128,-1,8
 438 57 438 57 487 89 c 128,-1,9
 536 121 536 121 579 163 c 128,-1,10
 622 205 622 205 657 251 c 128,-1,11
 692 297 692 297 716.5 345 c 128,-1,12
 741 393 741 393 753 437 c 2,13,-1
 755 447 l 2,14,15
 761 476 761 476 762.5 509 c 128,-1,16
 764 542 764 542 759.5 574 c 128,-1,17
 755 606 755 606 743 636 c 128,-1,18
 731 666 731 666 711.5 688.5 c 128,-1,19
 692 711 692 711 663 724.5 c 128,-1,20
 634 738 634 738 595 738 c 0,21,22
 500 738 500 738 417.5 694 c 128,-1,23
 335 650 335 650 269 582 c 128,-1,24
 203 514 203 514 157.5 433 c 128,-1,25
 112 352 112 352 92 278 c 1,0,-1
542 603 m 0,26,27
 574 603 574 603 594 588 c 128,-1,28
 614 573 614 573 624 549.5 c 128,-1,29
 634 526 634 526 635.5 498.5 c 128,-1,30
 637 471 637 471 632 446 c 2,31,-1
 630 438 l 2,32,33
 620 401 620 401 591.5 352 c 128,-1,34
 563 303 563 303 523.5 258.5 c 128,-1,35
 484 214 484 214 438.5 183.5 c 128,-1,36
 393 153 393 153 348 153 c 0,37,38
 316 153 316 153 294.5 163.5 c 128,-1,39
 273 174 273 174 261 192 c 128,-1,40
 249 210 249 210 245.5 233.5 c 128,-1,41
 242 257 242 257 248 283 c 2,42,-1
 251 296 l 2,43,44
 258 323 258 323 272.5 356 c 128,-1,45
 287 389 287 389 307 423.5 c 128,-1,46
 327 458 327 458 352 490 c 128,-1,47
 377 522 377 522 407 547.5 c 128,-1,48
 437 573 437 573 471 588 c 128,-1,49
 505 603 505 603 542 603 c 0,26,27
EndSplineSet
EndChar

StartChar: one
Encoding: 49 49 26
Width: 282
Flags: W
LayerCount: 2
Fore
SplineSet
134 155 m 1,0,-1
 124 124 l 2,1,2
 121 108 121 108 118 89.5 c 128,-1,3
 115 71 115 71 117 55.5 c 128,-1,4
 119 40 119 40 127 30 c 128,-1,5
 135 20 135 20 153 20 c 0,6,7
 182 20 182 20 204.5 40 c 128,-1,8
 227 60 227 60 241 88 c 1,9,10
 258 160 258 160 279 232 c 128,-1,11
 300 304 300 304 322 377 c 0,12,13
 339 432 339 432 355.5 487.5 c 128,-1,14
 372 543 372 543 386 597 c 2,15,-1
 390 610 l 1,16,-1
 399 655 l 1,17,-1
 405 672 l 1,18,19
 404 685 404 685 398.5 697 c 128,-1,20
 393 709 393 709 384 718 c 128,-1,21
 375 727 375 727 364 732.5 c 128,-1,22
 353 738 353 738 342 738 c 0,23,24
 336 738 336 738 318 722.5 c 128,-1,25
 300 707 300 707 277 683 c 128,-1,26
 254 659 254 659 228.5 629.5 c 128,-1,27
 203 600 203 600 181.5 573 c 128,-1,28
 160 546 160 546 145 524 c 128,-1,29
 130 502 130 502 128 492 c 2,30,-1
 127 489 l 2,31,32
 121 462 121 462 131 453 c 128,-1,33
 141 444 141 444 167 444 c 0,34,35
 180 444 180 444 189.5 448.5 c 128,-1,36
 199 453 199 453 208 459 c 0,37,38
 210 460 210 460 213 461.5 c 128,-1,39
 216 463 216 463 219 465 c 1,40,-1
 212 438 l 2,41,42
 205 409 205 409 196.5 379.5 c 128,-1,43
 188 350 188 350 179 321 c 0,44,45
 167 279 167 279 155 237.5 c 128,-1,46
 143 196 143 196 134 155 c 1,0,-1
EndSplineSet
EndChar

StartChar: two
Encoding: 50 50 27
Width: 529
Flags: W
LayerCount: 2
Fore
SplineSet
71 159 m 1,0,-1
 47 71 l 1,1,-1
 46 68 l 2,2,3
 43 53 43 53 50 44 c 128,-1,4
 57 35 57 35 68 29.5 c 128,-1,5
 79 24 79 24 92 22 c 128,-1,6
 105 20 105 20 114 20 c 0,7,8
 137 20 137 20 162.5 25.5 c 128,-1,9
 188 31 188 31 214 37 c 0,10,11
 233 42 233 42 252 46 c 128,-1,12
 271 50 271 50 294 52 c 0,13,14
 304 53 304 53 326.5 53.5 c 128,-1,15
 349 54 349 54 377 54 c 256,16,17
 405 54 405 54 428 53.5 c 128,-1,18
 451 53 451 53 462 52 c 1,19,20
 511 67 511 67 520 105 c 2,21,-1
 522 111 l 2,22,23
 526 133 526 133 518.5 148 c 128,-1,24
 511 163 511 163 496.5 171.5 c 128,-1,25
 482 180 482 180 463 183.5 c 128,-1,26
 444 187 444 187 426 187 c 0,27,28
 398 187 398 187 372.5 184.5 c 128,-1,29
 347 182 347 182 321 178 c 1,30,-1
 322 178 l 1,31,32
 307 176 307 176 293 174.5 c 128,-1,33
 279 173 279 173 266 172 c 1,34,35
 324 212 324 212 382 257 c 128,-1,36
 440 302 440 302 490 352.5 c 128,-1,37
 540 403 540 403 578 460 c 128,-1,38
 616 517 616 517 633 583 c 2,39,-1
 634 587 l 2,40,41
 646 644 646 644 629.5 684.5 c 128,-1,42
 613 725 613 725 551 736 c 1,43,-1
 535 736 l 2,44,45
 531 736 531 736 528 736.5 c 128,-1,46
 525 737 525 737 521 737 c 0,47,48
 516 738 516 738 510 738 c 256,49,50
 504 738 504 738 498 738 c 2,51,-1
 484 738 l 2,52,53
 472 738 472 738 448 735.5 c 128,-1,54
 424 733 424 733 394 727.5 c 128,-1,55
 364 722 364 722 332 713.5 c 128,-1,56
 300 705 300 705 273 693 c 128,-1,57
 246 681 246 681 226 665.5 c 128,-1,58
 206 650 206 650 201 631 c 2,59,-1
 200 625 l 2,60,61
 184 549 184 549 261 549 c 0,62,63
 287 549 287 549 310 559.5 c 128,-1,64
 333 570 333 570 356 581 c 0,65,66
 376 591 376 591 396 599.5 c 128,-1,67
 416 608 416 608 439 608 c 0,68,69
 464 608 464 608 481 600 c 128,-1,70
 498 592 498 592 494 570 c 1,71,-1
 494 568 l 1,72,73
 487 542 487 542 471.5 516.5 c 128,-1,74
 456 491 456 491 435.5 467 c 128,-1,75
 415 443 415 443 391 421.5 c 128,-1,76
 367 400 367 400 343 381 c 0,77,78
 330 370 330 370 299 346.5 c 128,-1,79
 268 323 268 323 231 295 c 0,80,81
 209 278 209 278 186 261 c 128,-1,82
 163 244 163 244 144.5 230 c 128,-1,83
 126 216 126 216 113 206 c 128,-1,84
 100 196 100 196 98 194 c 2,85,-1
 71 159 l 1,0,-1
EndSplineSet
EndChar

StartChar: three
Encoding: 51 51 28
Width: 599
Flags: W
LayerCount: 2
Fore
SplineSet
56 115 m 2,0,-1
 54 104 l 2,1,2
 50 85 50 85 56 70.5 c 128,-1,3
 62 56 62 56 74.5 45.5 c 128,-1,4
 87 35 87 35 103 29 c 128,-1,5
 119 23 119 23 134 20 c 2,6,-1
 208 20 l 2,7,8
 264 20 264 20 327 34 c 128,-1,9
 390 48 390 48 446.5 76.5 c 128,-1,10
 503 105 503 105 546.5 149.5 c 128,-1,11
 590 194 590 194 607 256 c 2,12,-1
 609 264 l 2,13,14
 616 298 616 298 610.5 326 c 128,-1,15
 605 354 605 354 591 377 c 128,-1,16
 577 400 577 400 557.5 420.5 c 128,-1,17
 538 441 538 441 517 460 c 0,18,19
 516 460 516 460 515 461 c 1,20,21
 522 465 522 465 534 473.5 c 128,-1,22
 546 482 546 482 562 493 c 0,23,24
 584 509 584 509 609 527.5 c 128,-1,25
 634 546 634 546 656 565.5 c 128,-1,26
 678 585 678 585 694 604 c 128,-1,27
 710 623 710 623 715 641 c 2,28,-1
 716 646 l 2,29,30
 724 683 724 683 704.5 705.5 c 128,-1,31
 685 728 685 728 653 740.5 c 128,-1,32
 621 753 621 753 583 757.5 c 128,-1,33
 545 762 545 762 516 762 c 0,34,35
 499 762 499 762 471.5 759.5 c 128,-1,36
 444 757 444 757 411 751 c 128,-1,37
 378 745 378 745 344 736 c 128,-1,38
 310 727 310 727 280.5 713.5 c 128,-1,39
 251 700 251 700 229.5 682 c 128,-1,40
 208 664 208 664 202 641 c 0,41,42
 200 629 200 629 205 618 c 128,-1,43
 210 607 210 607 219 598.5 c 128,-1,44
 228 590 228 590 240 584.5 c 128,-1,45
 252 579 252 579 264 579 c 0,46,47
 266 579 266 579 267.5 579.5 c 128,-1,48
 269 580 269 580 270 580 c 2,49,-1
 275 580 l 1,50,51
 329 603 329 603 375 616.5 c 128,-1,52
 421 630 421 630 473 630 c 2,53,-1
 481 630 l 2,54,55
 485 630 485 630 488.5 629.5 c 128,-1,56
 492 629 492 629 496 629 c 2,57,-1
 516 629 l 2,58,59
 521 627 521 627 526 623.5 c 128,-1,60
 531 620 531 620 530 617 c 0,61,62
 526 603 526 603 510.5 588 c 128,-1,63
 495 573 495 573 472.5 557.5 c 128,-1,64
 450 542 450 542 422 526.5 c 128,-1,65
 394 511 394 511 366 496 c 0,66,67
 339 481 339 481 313 466.5 c 128,-1,68
 287 452 287 452 266 437.5 c 128,-1,69
 245 423 245 423 230.5 408 c 128,-1,70
 216 393 216 393 212 377 c 2,71,-1
 211 372 l 2,72,73
 199 317 199 317 259 317 c 0,74,75
 275 317 275 317 291.5 320.5 c 128,-1,76
 308 324 308 324 325 328 c 0,77,78
 339 332 339 332 352.5 335 c 128,-1,79
 366 338 366 338 381 338 c 0,80,81
 397 338 397 338 413.5 332.5 c 128,-1,82
 430 327 430 327 443 318 c 128,-1,83
 456 309 456 309 462.5 296 c 128,-1,84
 469 283 469 283 466 268 c 2,85,-1
 465 265 l 2,86,87
 457 234 457 234 432 214.5 c 128,-1,88
 407 195 407 195 374.5 183.5 c 128,-1,89
 342 172 342 172 307 168 c 128,-1,90
 272 164 272 164 244 164 c 0,91,92
 230 164 230 164 216.5 165 c 128,-1,93
 203 166 203 166 189 168 c 128,-1,94
 175 170 175 170 162 171 c 128,-1,95
 149 172 149 172 132 172 c 2,96,-1
 100 172 l 1,97,98
 74 158 74 158 67 143.5 c 128,-1,99
 60 129 60 129 56 115 c 2,0,-1
EndSplineSet
EndChar

StartChar: four
Encoding: 52 52 29
Width: 611
Flags: W
LayerCount: 2
Fore
SplineSet
388 331 m 2,0,-1
 447 331 l 1,1,-1
 385 91 l 2,2,3
 384 87 384 87 383 84 c 128,-1,4
 382 81 382 81 382 78 c 0,5,6
 376 49 376 49 385 34 c 128,-1,7
 394 19 394 19 429 19 c 2,8,-1
 438 19 l 2,9,10
 453 19 453 19 467 24 c 128,-1,11
 481 29 481 29 498 55 c 1,12,13
 509 97 509 97 519.5 130.5 c 128,-1,14
 530 164 530 164 541 195.5 c 128,-1,15
 552 227 552 227 565 259.5 c 128,-1,16
 578 292 578 292 594 332 c 0,17,18
 598 344 598 344 606 355 c 128,-1,19
 614 366 614 366 623 375 c 0,20,21
 637 390 637 390 648 404 c 128,-1,22
 659 418 659 418 663 438 c 1,23,-1
 664 440 l 2,24,25
 666 449 666 449 665.5 456 c 128,-1,26
 665 463 665 463 664 471 c 0,27,28
 663 476 663 476 662 481.5 c 128,-1,29
 661 487 661 487 662 491 c 0,30,31
 667 509 667 509 676.5 531.5 c 128,-1,32
 686 554 686 554 696 577 c 0,33,34
 706 599 706 599 715 621 c 128,-1,35
 724 643 724 643 731 670 c 2,36,-1
 737 688 l 2,37,38
 742 708 742 708 741.5 729 c 128,-1,39
 741 750 741 750 723 760 c 0,40,41
 718 762 718 762 706.5 763.5 c 128,-1,42
 695 765 695 765 691 765 c 2,43,-1
 676 765 l 2,44,45
 662 765 662 765 646.5 759 c 128,-1,46
 631 753 631 753 617 730 c 0,47,48
 613 720 613 720 606.5 704 c 128,-1,49
 600 688 600 688 592 669.5 c 128,-1,50
 584 651 584 651 574.5 630 c 128,-1,51
 565 609 565 609 556 589 c 0,52,53
 542 556 542 556 529 528.5 c 128,-1,54
 516 501 516 501 512 490 c 1,55,-1
 513 491 l 1,56,57
 504 473 504 473 491.5 466 c 128,-1,58
 479 459 479 459 457 459 c 2,59,-1
 293 459 l 1,60,61
 300 485 300 485 319 509.5 c 128,-1,62
 338 534 338 534 360 560 c 0,63,64
 385 589 385 589 407 618 c 128,-1,65
 429 647 429 647 438 680 c 1,66,-1
 438 683 l 1,67,68
 450 740 450 740 389 740 c 0,69,70
 363 740 363 740 332 716.5 c 128,-1,71
 301 693 301 693 270.5 656.5 c 128,-1,72
 240 620 240 620 210.5 574.5 c 128,-1,73
 181 529 181 529 158 484 c 0,74,75
 134 437 134 437 118.5 404.5 c 128,-1,76
 103 372 103 372 98 349 c 0,77,78
 92 321 92 321 102 307 c 128,-1,79
 112 293 112 293 144 291 c 0,80,81
 161 291 161 291 172 296 c 128,-1,82
 183 301 183 301 194 308 c 0,83,84
 207 315 207 315 215 316 c 0,85,86
 260 327 260 327 303 329 c 128,-1,87
 346 331 346 331 388 331 c 2,0,-1
EndSplineSet
EndChar

StartChar: five
Encoding: 53 53 30
Width: 654
Flags: W
LayerCount: 2
Fore
SplineSet
76 184 m 2,0,-1
 74 173 l 2,1,2
 64 125 64 125 82 95 c 128,-1,3
 100 65 100 65 134 48.5 c 128,-1,4
 168 32 168 32 212 26 c 128,-1,5
 256 20 256 20 298 20 c 0,6,7
 360 20 360 20 420.5 40.5 c 128,-1,8
 481 61 481 61 531 97 c 128,-1,9
 581 133 581 133 617.5 182.5 c 128,-1,10
 654 232 654 232 669 290 c 1,11,-1
 671 302 l 2,12,13
 678 336 678 336 676.5 372 c 128,-1,14
 675 408 675 408 661.5 437.5 c 128,-1,15
 648 467 648 467 620.5 486 c 128,-1,16
 593 505 593 505 548 505 c 2,17,-1
 326 505 l 1,18,19
 327 509 327 509 332 523.5 c 128,-1,20
 337 538 337 538 342 552 c 0,21,22
 347 563 347 563 350.5 573 c 128,-1,23
 354 583 354 583 356 590 c 0,24,25
 365 601 365 601 381.5 608.5 c 128,-1,26
 398 616 398 616 417 620.5 c 128,-1,27
 436 625 436 625 454.5 627 c 128,-1,28
 473 629 473 629 486 629 c 0,29,30
 510 629 510 629 534 626.5 c 128,-1,31
 558 624 558 624 583 621 c 0,32,33
 608 619 608 619 633 616 c 128,-1,34
 658 613 658 613 686 613 c 0,35,36
 700 613 700 613 713.5 615 c 128,-1,37
 727 617 727 617 739 622.5 c 128,-1,38
 751 628 751 628 760.5 638.5 c 128,-1,39
 770 649 770 649 776 666 c 2,40,-1
 777 671 l 2,41,42
 784 703 784 703 764.5 720.5 c 128,-1,43
 745 738 745 738 714.5 746 c 128,-1,44
 684 754 684 754 650 755.5 c 128,-1,45
 616 757 616 757 594 757 c 2,46,-1
 591 757 l 2,47,48
 514 757 514 757 440 741 c 128,-1,49
 366 725 366 725 284 703 c 0,50,51
 282 701 282 701 279 698.5 c 128,-1,52
 276 696 276 696 274 694 c 0,53,54
 266 689 266 689 258.5 682 c 128,-1,55
 251 675 251 675 245 663 c 0,56,57
 238 638 238 638 229.5 613 c 128,-1,58
 221 588 221 588 212 563 c 0,59,60
 198 522 198 522 185 483 c 128,-1,61
 172 444 172 444 161 402 c 0,62,63
 158 392 158 392 156 382 c 0,64,65
 153 367 153 367 156 356 c 128,-1,66
 159 345 159 345 174 335 c 0,67,68
 179 330 179 330 184.5 329.5 c 128,-1,69
 190 329 190 329 198 329 c 2,70,-1
 212 329 l 2,71,72
 239 329 239 329 266.5 335.5 c 128,-1,73
 294 342 294 342 323 350 c 0,74,75
 350 358 350 358 378 364 c 128,-1,76
 406 370 406 370 432 370 c 2,77,-1
 458 370 l 2,78,79
 463 370 463 370 466.5 369.5 c 128,-1,80
 470 369 470 369 475 369 c 2,81,-1
 482 369 l 1,82,83
 511 355 511 355 524.5 336 c 128,-1,84
 538 317 538 317 531 287 c 2,85,-1
 529 278 l 2,86,87
 521 249 521 249 501.5 225.5 c 128,-1,88
 482 202 482 202 455.5 186 c 128,-1,89
 429 170 429 170 397.5 161.5 c 128,-1,90
 366 153 366 153 335 153 c 0,91,92
 301 153 301 153 273.5 156 c 128,-1,93
 246 159 246 159 224 177 c 0,94,95
 219 181 219 181 214.5 189 c 128,-1,96
 210 197 210 197 206 205 c 0,97,98
 196 223 196 223 184.5 237.5 c 128,-1,99
 173 252 173 252 150 252 c 0,100,101
 117 252 117 252 99 230.5 c 128,-1,102
 81 209 81 209 76 184 c 2,0,-1
EndSplineSet
EndChar

StartChar: six
Encoding: 54 54 31
Width: 600
Flags: W
LayerCount: 2
Fore
SplineSet
101 318 m 2,0,1
 99 313 99 313 97.5 306.5 c 128,-1,2
 96 300 96 300 95 295 c 0,3,4
 84 246 84 246 83.5 197 c 128,-1,5
 83 148 83 148 99.5 108.5 c 128,-1,6
 116 69 116 69 152 44.5 c 128,-1,7
 188 20 188 20 251 20 c 256,8,9
 314 20 314 20 378.5 44.5 c 128,-1,10
 443 69 443 69 497.5 109.5 c 128,-1,11
 552 150 552 150 592 203 c 128,-1,12
 632 256 632 256 646 313 c 0,13,14
 646 317 646 317 650 327 c 0,15,16
 655 352 655 352 653.5 376 c 128,-1,17
 652 400 652 400 642 420.5 c 128,-1,18
 632 441 632 441 613 456 c 128,-1,19
 594 471 594 471 566 479 c 1,20,-1
 553 479 l 2,21,22
 544 479 544 479 539 480 c 0,23,24
 534 480 534 480 529.5 480.5 c 128,-1,25
 525 481 525 481 520 481 c 2,26,-1
 509 481 l 2,27,28
 474 481 474 481 444.5 476 c 128,-1,29
 415 471 415 471 386.5 461.5 c 128,-1,30
 358 452 358 452 330 439 c 128,-1,31
 302 426 302 426 272 411 c 1,32,33
 290 457 290 457 323.5 494.5 c 128,-1,34
 357 532 357 532 400 563 c 128,-1,35
 443 594 443 594 493 618.5 c 128,-1,36
 543 643 543 643 595 663 c 1,37,38
 620 678 620 678 628.5 691.5 c 128,-1,39
 637 705 637 705 643 725 c 2,40,-1
 646 740 l 2,41,42
 649 754 649 754 645 764.5 c 128,-1,43
 641 775 641 775 619 783 c 0,44,45
 617 783 617 783 611.5 783.5 c 128,-1,46
 606 784 606 784 602 784 c 2,47,-1
 589 784 l 2,48,49
 569 784 569 784 552 781 c 128,-1,50
 535 778 535 778 519.5 772 c 128,-1,51
 504 766 504 766 488.5 758 c 128,-1,52
 473 750 473 750 455 740 c 0,53,54
 450 737 450 737 445.5 735 c 128,-1,55
 441 733 441 733 435 730 c 0,56,57
 305 656 305 656 219 550 c 128,-1,58
 133 444 133 444 101 319 c 1,59,-1
 101 318 l 2,0,1
451 338 m 0,60,61
 471 338 471 338 485 333 c 128,-1,62
 499 328 499 328 496 313 c 2,63,-1
 494 308 l 2,64,65
 487 280 487 280 466 254 c 128,-1,66
 445 228 445 228 417 207.5 c 128,-1,67
 389 187 389 187 357 174.5 c 128,-1,68
 325 162 325 162 295 162 c 0,69,70
 279 162 279 162 264 165.5 c 128,-1,71
 249 169 249 169 238 176 c 128,-1,72
 227 183 227 183 221.5 194 c 128,-1,73
 216 205 216 205 219 220 c 2,74,-1
 219 222 l 1,75,76
 226 248 226 248 253.5 269.5 c 128,-1,77
 281 291 281 291 316.5 306 c 128,-1,78
 352 321 352 321 388.5 329.5 c 128,-1,79
 425 338 425 338 451 338 c 0,60,61
EndSplineSet
EndChar

StartChar: seven
Encoding: 55 55 32
Width: 565
Flags: W
LayerCount: 2
Fore
SplineSet
79 84 m 2,0,-1
 78 82 l 1,1,2
 73 54 73 54 87.5 37 c 128,-1,3
 102 20 102 20 132 20 c 0,4,5
 156 20 156 20 176.5 35 c 128,-1,6
 197 50 197 50 215 73.5 c 128,-1,7
 233 97 233 97 248 124 c 128,-1,8
 263 151 263 151 275 175 c 0,9,10
 289 205 289 205 299 218 c 0,11,12
 370 317 370 317 462 403.5 c 128,-1,13
 554 490 554 490 650 571 c 0,14,15
 657 581 657 581 663 590 c 128,-1,16
 669 599 669 599 671 605 c 2,17,-1
 678 635 l 1,18,-1
 678 634 l 1,19,-1
 680 642 l 1,20,-1
 683 654 l 2,21,22
 684 656 684 656 684 658 c 0,23,24
 684 661 684 661 686 664 c 2,25,-1
 689 676 l 2,26,27
 689 688 689 688 683 699.5 c 128,-1,28
 677 711 677 711 667.5 721 c 128,-1,29
 658 731 658 731 646 739 c 128,-1,30
 634 747 634 747 622 751 c 1,31,-1
 572 751 l 2,32,33
 537 751 537 751 503 747.5 c 128,-1,34
 469 744 469 744 436 740 c 0,35,36
 403 735 403 735 371 732 c 128,-1,37
 339 729 339 729 309 729 c 0,38,39
 297 729 297 729 285 729 c 0,40,41
 274 729 274 729 262 731 c 1,42,43
 240 725 240 725 224 714.5 c 128,-1,44
 208 704 208 704 196.5 690 c 128,-1,45
 185 676 185 676 178 661 c 128,-1,46
 171 646 171 646 167 631 c 1,47,-1
 167 632 l 1,48,49
 163 616 163 616 160 601 c 0,50,51
 154 574 154 574 165.5 561.5 c 128,-1,52
 177 549 177 549 215 549 c 0,53,54
 243 549 243 549 258 560.5 c 128,-1,55
 273 572 273 572 285 586 c 1,56,-1
 283 585 l 1,57,58
 289 591 289 591 294.5 596 c 128,-1,59
 300 601 300 601 306 603 c 0,60,61
 349 617 349 617 392.5 621 c 128,-1,62
 436 625 436 625 479 625 c 2,63,-1
 522 625 l 1,64,65
 455 569 455 569 397 511 c 128,-1,66
 339 453 339 453 287.5 391.5 c 128,-1,67
 236 330 236 330 190 265 c 128,-1,68
 144 200 144 200 101 130 c 1,69,-1
 101 131 l 1,70,71
 90 114 90 114 86.5 106 c 128,-1,72
 83 98 83 98 79 84 c 2,0,-1
EndSplineSet
EndChar

StartChar: eight
Encoding: 56 56 33
Width: 651
Flags: W
LayerCount: 2
Fore
SplineSet
73 186 m 2,0,-1
 70 176 l 2,1,2
 62 138 62 138 71.5 108.5 c 128,-1,3
 81 79 81 79 103.5 59.5 c 128,-1,4
 126 40 126 40 159.5 30 c 128,-1,5
 193 20 193 20 233 20 c 0,6,7
 267 20 267 20 311.5 29 c 128,-1,8
 356 38 356 38 403.5 54.5 c 128,-1,9
 451 71 451 71 497.5 94 c 128,-1,10
 544 117 544 117 583.5 145.5 c 128,-1,11
 623 174 623 174 651.5 207.5 c 128,-1,12
 680 241 680 241 690 277 c 2,13,-1
 692 285 l 2,14,15
 698 312 698 312 693 337 c 128,-1,16
 688 362 688 362 676.5 383.5 c 128,-1,17
 665 405 665 405 648.5 424 c 128,-1,18
 632 443 632 443 614 458 c 1,19,20
 619 467 619 467 630.5 480.5 c 128,-1,21
 642 494 642 494 657 511 c 0,22,23
 682 540 682 540 708.5 575.5 c 128,-1,24
 735 611 735 611 746 653 c 1,25,-1
 747 660 l 2,26,27
 751 681 751 681 748 706.5 c 128,-1,28
 745 732 745 732 734.5 753.5 c 128,-1,29
 724 775 724 775 705.5 789.5 c 128,-1,30
 687 804 687 804 660 804 c 2,31,-1
 539 804 l 2,32,33
 513 804 513 804 479 790.5 c 128,-1,34
 445 777 445 777 408.5 755 c 128,-1,35
 372 733 372 733 336 704.5 c 128,-1,36
 300 676 300 676 270 646.5 c 128,-1,37
 240 617 240 617 219.5 589 c 128,-1,38
 199 561 199 561 193 539 c 2,39,-1
 192 535 l 2,40,41
 187 510 187 510 195 492 c 128,-1,42
 203 474 203 474 214 457 c 0,43,44
 222 445 222 445 228 432 c 128,-1,45
 234 419 234 419 231 405 c 2,46,-1
 231 403 l 2,47,48
 229 398 229 398 217 384.5 c 128,-1,49
 205 371 205 371 188 353 c 0,50,51
 171 336 171 336 153.5 317 c 128,-1,52
 136 298 136 298 120 277 c 128,-1,53
 104 256 104 256 91.5 233 c 128,-1,54
 79 210 79 210 73 186 c 2,0,-1
458 365 m 0,55,56
 477 365 477 365 491.5 358 c 128,-1,57
 506 351 506 351 514 339 c 128,-1,58
 522 327 522 327 524.5 312 c 128,-1,59
 527 297 527 297 524 281 c 2,60,-1
 522 274 l 2,61,62
 515 246 515 246 491.5 222 c 128,-1,63
 468 198 468 198 436.5 180 c 128,-1,64
 405 162 405 162 370.5 152 c 128,-1,65
 336 142 336 142 306 142 c 0,66,67
 298 142 298 142 282.5 142.5 c 128,-1,68
 267 143 267 143 251 145 c 128,-1,69
 235 147 235 147 221.5 151 c 128,-1,70
 208 155 208 155 204 161 c 1,71,-1
 208 177 l 2,72,73
 217 213 217 213 242 246.5 c 128,-1,74
 267 280 267 280 301.5 306.5 c 128,-1,75
 336 333 336 333 377 349 c 128,-1,76
 418 365 418 365 458 365 c 0,55,56
342 533 m 0,77,78
 348 557 348 557 370.5 583 c 128,-1,79
 393 609 393 609 423 630.5 c 128,-1,80
 453 652 453 652 485 666.5 c 128,-1,81
 517 681 517 681 543 681 c 0,82,83
 574 681 574 681 585.5 674 c 128,-1,84
 597 667 597 667 592 645 c 2,85,-1
 590 635 l 2,86,87
 579 595 579 595 558.5 566.5 c 128,-1,88
 538 538 538 538 509 520 c 128,-1,89
 480 502 480 502 443.5 494 c 128,-1,90
 407 486 407 486 366 486 c 0,91,92
 358 486 358 486 352.5 491 c 128,-1,93
 347 496 347 496 344 503 c 128,-1,94
 341 510 341 510 340.5 518 c 128,-1,95
 340 526 340 526 342 533 c 0,77,78
EndSplineSet
EndChar

StartChar: nine
Encoding: 57 57 34
Width: 591
Flags: W
LayerCount: 2
Fore
SplineSet
290 58 m 1,0,1
 287 44 287 44 290.5 36.5 c 128,-1,2
 294 29 294 29 300.5 25.5 c 128,-1,3
 307 22 307 22 315 21 c 128,-1,4
 323 20 323 20 330 20 c 0,5,6
 351 20 351 20 366.5 28 c 128,-1,7
 382 36 382 36 393 48.5 c 128,-1,8
 404 61 404 61 411.5 77 c 128,-1,9
 419 93 419 93 425 108 c 1,10,-1
 425 107 l 1,11,-1
 465 209 l 1,12,13
 516 327 516 327 581 441 c 128,-1,14
 646 555 646 555 712 664 c 1,15,-1
 716 683 l 2,16,17
 723 716 723 716 711 738 c 128,-1,18
 699 760 699 760 676 773.5 c 128,-1,19
 653 787 653 787 623.5 793 c 128,-1,20
 594 799 594 799 567 799 c 0,21,22
 501 799 501 799 432 775.5 c 128,-1,23
 363 752 363 752 303 711.5 c 128,-1,24
 243 671 243 671 198 616 c 128,-1,25
 153 561 153 561 135 497 c 0,26,27
 133 492 133 492 131.5 486.5 c 128,-1,28
 130 481 130 481 129 476 c 0,29,30
 121 440 121 440 122 406.5 c 128,-1,31
 123 373 123 373 136.5 347.5 c 128,-1,32
 150 322 150 322 177.5 307 c 128,-1,33
 205 292 205 292 250 292 c 0,34,35
 266 292 266 292 280 294 c 128,-1,36
 294 296 294 296 308 298 c 0,37,38
 320 300 320 300 331.5 301 c 128,-1,39
 343 302 343 302 353 303 c 1,40,-1
 291 59 l 1,41,-1
 290 58 l 1,0,1
535 681 m 0,42,43
 544 681 544 681 552 680 c 128,-1,44
 560 679 560 679 566 676 c 1,45,-1
 565 672 l 2,46,47
 561 658 561 658 549 642 c 128,-1,48
 537 626 537 626 526 610 c 1,49,-1
 527 611 l 1,50,51
 517 598 517 598 509 586 c 128,-1,52
 501 574 501 574 495 563 c 1,53,-1
 496 565 l 1,54,55
 493 560 493 560 490 555.5 c 128,-1,56
 487 551 487 551 483 546 c 0,57,58
 467 520 467 520 450.5 496 c 128,-1,59
 434 472 434 472 413.5 453.5 c 128,-1,60
 393 435 393 435 367.5 424 c 128,-1,61
 342 413 342 413 307 413 c 0,62,63
 292 413 292 413 282.5 420 c 128,-1,64
 273 427 273 427 268 438.5 c 128,-1,65
 263 450 263 450 262 463.5 c 128,-1,66
 261 477 261 477 264 490 c 2,67,-1
 265 496 l 2,68,69
 274 531 274 531 303 564.5 c 128,-1,70
 332 598 332 598 371 624 c 128,-1,71
 410 650 410 650 453.5 665.5 c 128,-1,72
 497 681 497 681 535 681 c 0,42,43
EndSplineSet
EndChar

StartChar: colon
Encoding: 58 58 35
Width: 207
Flags: W
LayerCount: 2
Fore
SplineSet
132 418 m 2,0,-1
 131 412 l 2,1,2
 126 388 126 388 133 367.5 c 128,-1,3
 140 347 140 347 168 347 c 0,4,5
 183 347 183 347 197 352.5 c 128,-1,6
 211 358 211 358 224 367 c 128,-1,7
 237 376 237 376 249 387 c 128,-1,8
 261 398 261 398 272 408 c 1,9,-1
 274 419 l 2,10,11
 276 424 276 424 277.5 428 c 128,-1,12
 279 432 279 432 279 434 c 2,13,-1
 280 436 l 1,14,15
 286 464 286 464 275 486 c 128,-1,16
 264 508 264 508 232 508 c 0,17,18
 215 508 215 508 198.5 499.5 c 128,-1,19
 182 491 182 491 168 478 c 128,-1,20
 154 465 154 465 144.5 449 c 128,-1,21
 135 433 135 433 132 418 c 2,0,-1
53 110 m 0,22,23
 50 102 50 102 47 91 c 0,24,25
 42 70 42 70 48.5 57.5 c 128,-1,26
 55 45 55 45 81 45 c 0,27,28
 97 45 97 45 116 51.5 c 128,-1,29
 135 58 135 58 152 70 c 128,-1,30
 169 82 169 82 183 98 c 128,-1,31
 197 114 197 114 202 132 c 0,32,33
 205 145 205 145 200 157.5 c 128,-1,34
 195 170 195 170 186 179.5 c 128,-1,35
 177 189 177 189 165 195 c 128,-1,36
 153 201 153 201 141 201 c 0,37,38
 122 201 122 201 107.5 192.5 c 128,-1,39
 93 184 93 184 82 170.5 c 128,-1,40
 71 157 71 157 63.5 141 c 128,-1,41
 56 125 56 125 53 110 c 0,22,23
EndSplineSet
EndChar

StartChar: semicolon
Encoding: 59 59 36
Width: 267
Flags: W
LayerCount: 2
Fore
SplineSet
16 -37 m 1,0,-1
 16 -39 l 1,1,2
 10 -65 10 -65 22 -72.5 c 128,-1,3
 34 -80 34 -80 53 -80 c 0,4,5
 89 -80 89 -80 120 -62 c 128,-1,6
 151 -44 151 -44 175.5 -17 c 128,-1,7
 200 10 200 10 217 42.5 c 128,-1,8
 234 75 234 75 241 104 c 2,9,-1
 247 134 l 1,10,-1
 251 144 l 1,11,12
 249 169 249 169 242.5 176 c 128,-1,13
 236 183 236 183 215 183 c 0,14,15
 195 183 195 183 180.5 175.5 c 128,-1,16
 166 168 166 168 155.5 156 c 128,-1,17
 145 144 145 144 136.5 128.5 c 128,-1,18
 128 113 128 113 120 97 c 0,19,20
 113 85 113 85 107.5 74.5 c 128,-1,21
 102 64 102 64 96 58 c 0,22,23
 91 50 91 50 84 44 c 128,-1,24
 77 38 77 38 69 31 c 0,25,26
 52 17 52 17 36.5 0.5 c 128,-1,27
 21 -16 21 -16 16 -37 c 1,0,-1
196 416 m 0,28,29
 194 412 194 412 193.5 407 c 128,-1,30
 193 402 193 402 191 397 c 0,31,32
 186 372 186 372 193.5 357 c 128,-1,33
 201 342 201 342 231 342 c 0,34,35
 247 342 247 342 264.5 348 c 128,-1,36
 282 354 282 354 297 365 c 128,-1,37
 312 376 312 376 322.5 391 c 128,-1,38
 333 406 333 406 337 424 c 2,39,-1
 338 428 l 2,40,41
 345 459 345 459 331.5 481 c 128,-1,42
 318 503 318 503 283 503 c 0,43,44
 263 503 263 503 248.5 494.5 c 128,-1,45
 234 486 234 486 223.5 473 c 128,-1,46
 213 460 213 460 206 444.5 c 128,-1,47
 199 429 199 429 196 416 c 0,28,29
EndSplineSet
EndChar

StartChar: less
Encoding: 60 60 37
Width: 431
Flags: W
LayerCount: 2
Fore
SplineSet
255 30 m 1,0,1
 264 20 264 20 277 20 c 2,2,-1
 289 20 l 2,3,4
 319 20 319 20 336.5 35.5 c 128,-1,5
 354 51 354 51 360 76 c 2,6,-1
 362 86 l 2,7,8
 370 123 370 123 364.5 160 c 128,-1,9
 359 197 359 197 346.5 231.5 c 128,-1,10
 334 266 334 266 316.5 298 c 128,-1,11
 299 330 299 330 283 358 c 0,12,13
 278 366 278 366 273.5 374 c 128,-1,14
 269 382 269 382 264 390 c 1,15,-1
 265 393 l 2,16,17
 269 407 269 407 282.5 424.5 c 128,-1,18
 296 442 296 442 316 462 c 128,-1,19
 336 482 336 482 360.5 503.5 c 128,-1,20
 385 525 385 525 410 546 c 0,21,22
 436 568 436 568 461 590 c 128,-1,23
 486 612 486 612 507 633 c 128,-1,24
 528 654 528 654 542.5 673 c 128,-1,25
 557 692 557 692 562 709 c 0,26,27
 563 712 563 712 563 715 c 256,28,29
 563 718 563 718 564 721 c 0,30,31
 566 732 566 732 563 741.5 c 128,-1,32
 560 751 560 751 543 757 c 1,33,-1
 516 757 l 2,34,35
 499 757 499 757 477 753 c 128,-1,36
 455 749 455 749 437 729 c 1,37,-1
 438 730 l 1,38,-1
 141 439 l 1,39,-1
 142 440 l 1,40,41
 126 426 126 426 120 417 c 128,-1,42
 114 408 114 408 111 393 c 2,43,-1
 106 374 l 2,44,45
 101 351 101 351 106 331 c 128,-1,46
 111 311 111 311 121 292.5 c 128,-1,47
 131 274 131 274 145 257 c 128,-1,48
 159 240 159 240 173 224 c 0,49,50
 184 211 184 211 194 199 c 128,-1,51
 204 187 204 187 211 176 c 1,52,-1
 211 177 l 1,53,54
 228 145 228 145 237 107.5 c 128,-1,55
 246 70 246 70 254 36 c 2,56,-1
 255 30 l 1,0,1
EndSplineSet
EndChar

StartChar: equal
Encoding: 61 61 38
Width: 403
Flags: W
LayerCount: 2
Fore
SplineSet
117 415 m 1,0,-1
 117 412 l 1,1,2
 111 386 111 386 128 373.5 c 128,-1,3
 145 361 145 361 169 361 c 0,4,5
 190 361 190 361 204 363 c 128,-1,6
 218 365 218 365 239 370 c 0,7,8
 248 372 248 372 260.5 374.5 c 128,-1,9
 273 377 273 377 290 380 c 1,10,-1
 288 380 l 1,11,12
 298 381 298 381 318 383 c 0,13,14
 339 384 339 384 364.5 387 c 128,-1,15
 390 390 390 390 414 397.5 c 128,-1,16
 438 405 438 405 456 418.5 c 128,-1,17
 474 432 474 432 480 455 c 2,18,-1
 481 460 l 2,19,20
 484 476 484 476 482 485.5 c 128,-1,21
 480 495 480 495 458 505 c 1,22,-1
 431 505 l 2,23,24
 427 505 427 505 424 505.5 c 128,-1,25
 421 506 421 506 418 506 c 2,26,-1
 408 506 l 2,27,28
 392 506 392 506 365.5 504.5 c 128,-1,29
 339 503 339 503 308.5 499 c 128,-1,30
 278 495 278 495 246 488 c 128,-1,31
 214 481 214 481 187 471 c 128,-1,32
 160 461 160 461 141 447 c 128,-1,33
 122 433 122 433 117 415 c 1,0,-1
89 253 m 0,34,35
 88 251 88 251 87.5 249 c 128,-1,36
 87 247 87 247 86 245 c 0,37,38
 80 216 80 216 94.5 211 c 128,-1,39
 109 206 109 206 138 206 c 2,40,-1
 179 206 l 2,41,42
 210 206 210 206 252 209.5 c 128,-1,43
 294 213 294 213 332.5 223 c 128,-1,44
 371 233 371 233 400.5 251 c 128,-1,45
 430 269 430 269 438 298 c 0,46,47
 445 330 445 330 434.5 340 c 128,-1,48
 424 350 424 350 392 350 c 0,49,50
 376 350 376 350 348 347 c 128,-1,51
 320 344 320 344 287.5 338.5 c 128,-1,52
 255 333 255 333 221 325 c 128,-1,53
 187 317 187 317 159 306 c 128,-1,54
 131 295 131 295 111.5 282 c 128,-1,55
 92 269 92 269 89 253 c 0,34,35
EndSplineSet
EndChar

StartChar: greater
Encoding: 62 62 39
Width: 460
Flags: W
LayerCount: 2
Fore
SplineSet
48 82 m 2,0,-1
 47 77 l 2,1,2
 41 48 41 48 55 34 c 128,-1,3
 69 20 69 20 98 20 c 2,4,-1
 108 20 l 2,5,6
 122 20 122 20 133.5 24.5 c 128,-1,7
 145 29 145 29 159 52 c 0,8,9
 218 156 218 156 308.5 242.5 c 128,-1,10
 399 329 399 329 506 403 c 0,11,12
 523 417 523 417 528 431 c 128,-1,13
 533 445 533 445 538 463 c 2,14,-1
 540 471 l 2,15,16
 544 492 544 492 541 510 c 128,-1,17
 538 528 538 528 529.5 543.5 c 128,-1,18
 521 559 521 559 510 573 c 128,-1,19
 499 587 499 587 489 600 c 1,20,-1
 489 599 l 1,21,22
 487 602 487 602 485 604.5 c 128,-1,23
 483 607 483 607 481 610 c 2,24,-1
 337 791 l 1,25,-1
 308 804 l 1,26,-1
 301 804 l 2,27,28
 277 804 277 804 256.5 790 c 128,-1,29
 236 776 236 776 229 749 c 0,30,31
 226 732 226 732 229 716 c 128,-1,32
 232 700 232 700 243 686 c 0,33,34
 244 684 244 684 252 673.5 c 128,-1,35
 260 663 260 663 273 646 c 128,-1,36
 286 629 286 629 296 616 c 1,37,-1
 295 616 l 1,38,39
 310 592 310 592 326 571.5 c 128,-1,40
 342 551 342 551 351 542 c 2,41,-1
 360 531 l 1,42,-1
 359 532 l 1,43,44
 371 518 371 518 383 498.5 c 128,-1,45
 395 479 395 479 391 461 c 1,46,-1
 389 457 l 1,47,-1
 367 438 l 2,48,49
 351 424 351 424 330.5 407.5 c 128,-1,50
 310 391 310 391 291 374.5 c 128,-1,51
 272 358 272 358 256.5 344.5 c 128,-1,52
 241 331 241 331 235 324 c 1,53,-1
 236 324 l 1,54,55
 211 303 211 303 181.5 273.5 c 128,-1,56
 152 244 152 244 125 211.5 c 128,-1,57
 98 179 98 179 77 145.5 c 128,-1,58
 56 112 56 112 48 82 c 2,0,-1
EndSplineSet
EndChar

StartChar: question
Encoding: 63 63 40
Width: 596
Flags: W
LayerCount: 2
Fore
SplineSet
567 667 m 0,0,1
 560 642 560 642 539 618.5 c 128,-1,2
 518 595 518 595 490 573.5 c 128,-1,3
 462 552 462 552 430 533 c 128,-1,4
 398 514 398 514 369 497 c 0,5,6
 325 471 325 471 294 449.5 c 128,-1,7
 263 428 263 428 255 404 c 2,8,-1
 229 299 l 1,9,-1
 228 297 l 2,10,11
 225 283 225 283 228 275 c 128,-1,12
 231 267 231 267 238 263.5 c 128,-1,13
 245 260 245 260 254.5 259.5 c 128,-1,14
 264 259 264 259 273 259 c 0,15,16
 295 259 295 259 309 263.5 c 128,-1,17
 323 268 323 268 332 276 c 128,-1,18
 341 284 341 284 346.5 294.5 c 128,-1,19
 352 305 352 305 358 318 c 1,20,-1
 356 317 l 1,21,22
 364 332 364 332 375 351 c 128,-1,23
 386 370 386 370 415 388 c 0,24,25
 427 396 427 396 439 403.5 c 128,-1,26
 451 411 451 411 463 419 c 0,27,28
 505 446 505 446 546.5 473.5 c 128,-1,29
 588 501 588 501 623 533 c 128,-1,30
 658 565 658 565 684 603 c 128,-1,31
 710 641 710 641 722 688 c 2,32,-1
 724 696 l 2,33,34
 732 733 732 733 724.5 760 c 128,-1,35
 717 787 717 787 697.5 804.5 c 128,-1,36
 678 822 678 822 648.5 830.5 c 128,-1,37
 619 839 619 839 583 839 c 0,38,39
 562 839 562 839 525 832.5 c 128,-1,40
 488 826 488 826 444 814 c 128,-1,41
 400 802 400 802 353.5 785.5 c 128,-1,42
 307 769 307 769 267.5 748 c 128,-1,43
 228 727 228 727 200 703 c 128,-1,44
 172 679 172 679 165 652 c 2,45,-1
 163 643 l 2,46,47
 158 624 158 624 161.5 611.5 c 128,-1,48
 165 599 165 599 185 585 c 0,49,50
 186 585 186 585 190.5 584.5 c 128,-1,51
 195 584 195 584 200 584 c 0,52,53
 205 583 205 583 209 583 c 256,54,55
 213 583 213 583 216 583 c 0,56,57
 251 583 251 583 283 599 c 128,-1,58
 315 615 315 615 349 636 c 0,59,60
 385 658 385 658 425.5 678 c 128,-1,61
 466 698 466 698 514 698 c 2,62,-1
 520 698 l 2,63,64
 524 698 524 698 528 697.5 c 128,-1,65
 532 697 532 697 535 697 c 2,66,-1
 552 697 l 1,67,68
 563 692 563 692 566 685 c 128,-1,69
 569 678 569 678 567 667 c 0,0,1
157 91 m 2,70,-1
 156 83 l 2,71,72
 149 52 149 52 165 36 c 128,-1,73
 181 20 181 20 212 20 c 0,74,75
 230 20 230 20 248.5 25.5 c 128,-1,76
 267 31 267 31 282.5 41.5 c 128,-1,77
 298 52 298 52 309.5 66.5 c 128,-1,78
 321 81 321 81 325 99 c 0,79,80
 328 114 328 114 324 127.5 c 128,-1,81
 320 141 320 141 311 151.5 c 128,-1,82
 302 162 302 162 289 168 c 128,-1,83
 276 174 276 174 262 174 c 0,84,85
 244 174 244 174 227 167 c 128,-1,86
 210 160 210 160 196 148.5 c 128,-1,87
 182 137 182 137 171.5 122 c 128,-1,88
 161 107 161 107 157 91 c 2,70,-1
EndSplineSet
EndChar

StartChar: at
Encoding: 64 64 41
Width: 747
Flags: W
LayerCount: 2
Fore
SplineSet
105 324 m 2,0,-1
 101 307 l 2,1,2
 89 251 89 251 95.5 199.5 c 128,-1,3
 102 148 102 148 128 108 c 128,-1,4
 154 68 154 68 200.5 44 c 128,-1,5
 247 20 247 20 317 20 c 0,6,7
 342 20 342 20 376 23.5 c 128,-1,8
 410 27 410 27 442 38.5 c 128,-1,9
 474 50 474 50 500 70.5 c 128,-1,10
 526 91 526 91 536 124 c 2,11,-1
 537 128 l 2,12,13
 543 156 543 156 527.5 169 c 128,-1,14
 512 182 512 182 486 182 c 0,15,16
 467 182 467 182 450 178 c 128,-1,17
 433 174 433 174 416 167 c 0,18,19
 402 162 402 162 387.5 157.5 c 128,-1,20
 373 153 373 153 359 153 c 0,21,22
 316 153 316 153 290 166.5 c 128,-1,23
 264 180 264 180 251 203 c 128,-1,24
 238 226 238 226 237 256.5 c 128,-1,25
 236 287 236 287 243 322 c 0,26,27
 245 327 245 327 246 332.5 c 128,-1,28
 247 338 247 338 249 345 c 0,29,30
 262 395 262 395 296 449 c 128,-1,31
 330 503 330 503 378 547.5 c 128,-1,32
 426 592 426 592 484 621 c 128,-1,33
 542 650 542 650 603 650 c 2,34,-1
 611 650 l 2,35,36
 614 650 614 650 619 649.5 c 128,-1,37
 624 649 624 649 629 648 c 1,38,-1
 627 649 l 1,39,40
 635 647 635 647 636 647 c 0,41,42
 660 636 660 636 674.5 616 c 128,-1,43
 689 596 689 596 695.5 572 c 128,-1,44
 702 548 702 548 702 521 c 256,45,46
 702 494 702 494 696 468 c 2,47,-1
 694 455 l 2,48,49
 692 445 692 445 685 424.5 c 128,-1,50
 678 404 678 404 668 383 c 128,-1,51
 658 362 658 362 645.5 346 c 128,-1,52
 633 330 633 330 620 330 c 0,53,54
 609 330 609 330 604.5 339 c 128,-1,55
 600 348 600 348 599.5 361.5 c 128,-1,56
 599 375 599 375 600.5 390.5 c 128,-1,57
 602 406 602 406 605 418 c 0,58,59
 606 427 606 427 609 433 c 0,60,61
 614 450 614 450 622.5 465 c 128,-1,62
 631 480 631 480 640 495 c 1,63,-1
 639 495 l 1,64,65
 650 512 650 512 659 528 c 128,-1,66
 668 544 668 544 673 561 c 2,67,-1
 674 565 l 2,68,69
 681 596 681 596 663 609 c 128,-1,70
 645 622 645 622 614 622 c 0,71,72
 577 622 577 622 540.5 609.5 c 128,-1,73
 504 597 504 597 470 575.5 c 128,-1,74
 436 554 436 554 406 526 c 128,-1,75
 376 498 376 498 352 467 c 128,-1,76
 328 436 328 436 311.5 403.5 c 128,-1,77
 295 371 295 371 288 341 c 0,78,79
 288 338 288 338 287 334.5 c 128,-1,80
 286 331 286 331 285 329 c 0,81,82
 279 303 279 303 282.5 279.5 c 128,-1,83
 286 256 286 256 298 238.5 c 128,-1,84
 310 221 310 221 331 211 c 128,-1,85
 352 201 352 201 381 201 c 0,86,87
 404 201 404 201 422.5 206.5 c 128,-1,88
 441 212 441 212 458 219 c 0,89,90
 472 225 472 225 486.5 230 c 128,-1,91
 501 235 501 235 514 235 c 0,92,93
 522 235 522 235 529 231.5 c 128,-1,94
 536 228 536 228 544 225 c 1,95,-1
 544 226 l 1,96,97
 554 221 554 221 564 217.5 c 128,-1,98
 574 214 574 214 588 214 c 0,99,100
 636 214 636 214 676 240 c 128,-1,101
 716 266 716 266 746.5 304.5 c 128,-1,102
 777 343 777 343 797 386 c 128,-1,103
 817 429 817 429 825 463 c 2,104,-1
 829 481 l 2,105,106
 842 540 842 540 835.5 593 c 128,-1,107
 829 646 829 646 802 686 c 128,-1,108
 775 726 775 726 727.5 749.5 c 128,-1,109
 680 773 680 773 611 773 c 2,110,-1
 599 773 l 2,111,112
 594 773 594 773 588 772.5 c 128,-1,113
 582 772 582 772 577 772 c 0,114,115
 572 771 572 771 568 771 c 0,116,117
 565 771 565 771 562 771 c 2,118,-1
 547 771 l 1,119,120
 466 756 466 756 393 707.5 c 128,-1,121
 320 659 320 659 261 595 c 128,-1,122
 202 531 202 531 161.5 459 c 128,-1,123
 121 387 121 387 105 324 c 2,0,-1
417 356 m 2,124,125
 419 367 419 367 430 388 c 128,-1,126
 441 409 441 409 455.5 429.5 c 128,-1,127
 470 450 470 450 485 465.5 c 128,-1,128
 500 481 500 481 511 481 c 2,129,-1
 513 481 l 1,130,-1
 513 478 l 2,131,132
 511 466 511 466 508 452.5 c 128,-1,133
 505 439 505 439 502 425 c 2,134,-1
 493 380 l 2,135,136
 491 371 491 371 489 364.5 c 128,-1,137
 487 358 487 358 485 353 c 2,138,-1
 484 346 l 1,139,-1
 483 344 l 2,140,141
 479 332 479 332 465 327 c 128,-1,142
 451 322 451 322 439 322 c 0,143,144
 421 322 421 322 416.5 327 c 128,-1,145
 412 332 412 332 414 343 c 0,146,147
 414 344 414 344 416 352 c 2,148,-1
 417 356 l 2,124,125
EndSplineSet
EndChar

StartChar: A
Encoding: 65 65 42
Width: 552
Flags: W
AnchorPoint: "top" 527 873 basechar 0
LayerCount: 2
Fore
SplineSet
426 61 m 1,0,1
 428 45 428 45 436.5 32.5 c 128,-1,2
 445 20 445 20 468 20 c 0,3,4
 481 20 481 20 492.5 26 c 128,-1,5
 504 32 504 32 513 41.5 c 128,-1,6
 522 51 522 51 528 62 c 128,-1,7
 534 73 534 73 537 83 c 2,8,-1
 603 334 l 1,9,10
 601 353 601 353 605.5 388.5 c 128,-1,11
 610 424 610 424 616 468 c 0,12,13
 624 520 624 520 631 576 c 128,-1,14
 638 632 638 632 637 678.5 c 128,-1,15
 636 725 636 725 623 755.5 c 128,-1,16
 610 786 610 786 578 786 c 0,17,18
 549 786 549 786 518 770 c 128,-1,19
 487 754 487 754 457 729 c 128,-1,20
 427 704 427 704 398.5 672.5 c 128,-1,21
 370 641 370 641 345 609 c 128,-1,22
 320 577 320 577 300.5 548.5 c 128,-1,23
 281 520 281 520 268 501 c 0,24,25
 260 489 260 489 240 456 c 128,-1,26
 220 423 220 423 197 388 c 0,27,28
 180 359 180 359 163.5 332.5 c 128,-1,29
 147 306 147 306 138 291 c 1,30,31
 114 277 114 277 100 264 c 128,-1,32
 86 251 86 251 80 223 c 2,33,-1
 71 177 l 2,34,35
 66 153 66 153 62 126.5 c 128,-1,36
 58 100 58 100 59.5 77.5 c 128,-1,37
 61 55 61 55 70 40 c 128,-1,38
 79 25 79 25 100 25 c 0,39,40
 123 25 123 25 138.5 33.5 c 128,-1,41
 154 42 154 42 164.5 56 c 128,-1,42
 175 70 175 70 181.5 87.5 c 128,-1,43
 188 105 188 105 193 124 c 0,44,45
 200 144 200 144 207 161.5 c 128,-1,46
 214 179 214 179 225 184 c 0,47,48
 263 204 263 204 309 209 c 128,-1,49
 355 214 355 214 393 214 c 2,50,-1
 438 214 l 1,51,52
 447 209 447 209 449 201.5 c 128,-1,53
 451 194 451 194 449 182 c 1,54,-1
 448 181 l 1,55,-1
 449 182 l 1,56,-1
 448 180 l 1,57,-1
 448 181 l 1,58,-1
 448 175 l 2,59,60
 448 173 448 173 447.5 168 c 128,-1,61
 447 163 447 163 446 158 c 0,62,63
 444 150 444 150 442.5 140.5 c 128,-1,64
 441 131 441 131 439 121 c 2,65,-1
 426 61 l 1,0,1
486 455 m 0,66,67
 481 435 481 435 476.5 415.5 c 128,-1,68
 472 396 472 396 467 380 c 0,69,70
 466 376 466 376 465 372.5 c 128,-1,71
 464 369 464 369 463 366 c 1,72,-1
 463 367 l 1,73,-1
 459 352 l 1,74,75
 451 346 451 346 433.5 342.5 c 128,-1,76
 416 339 416 339 395 336.5 c 128,-1,77
 374 334 374 334 352 332.5 c 128,-1,78
 330 331 330 331 314 330 c 1,79,80
 324 356 324 356 343.5 390 c 128,-1,81
 363 424 363 424 387 458.5 c 128,-1,82
 411 493 411 493 436.5 523 c 128,-1,83
 462 553 462 553 486 571 c 1,84,85
 497 553 497 553 495 520.5 c 128,-1,86
 493 488 493 488 486 455 c 0,66,67
EndSplineSet
EndChar

StartChar: B
Encoding: 66 66 43
Width: 572
Flags: W
LayerCount: 2
Fore
SplineSet
62 135 m 2,0,-1
 61 131 l 2,1,2
 56 107 56 107 66 86.5 c 128,-1,3
 76 66 76 66 95.5 51 c 128,-1,4
 115 36 115 36 140 28 c 128,-1,5
 165 20 165 20 190 20 c 0,6,7
 221 20 221 20 261.5 30 c 128,-1,8
 302 40 302 40 346 58 c 128,-1,9
 390 76 390 76 433.5 100.5 c 128,-1,10
 477 125 477 125 513 153.5 c 128,-1,11
 549 182 549 182 575.5 213 c 128,-1,12
 602 244 602 244 611 276 c 2,13,-1
 612 280 l 2,14,15
 618 307 618 307 612 327 c 128,-1,16
 606 347 606 347 593.5 362 c 128,-1,17
 581 377 581 377 564.5 388.5 c 128,-1,18
 548 400 548 400 532 409 c 0,19,20
 519 417 519 417 510 422 c 128,-1,21
 501 427 501 427 501 429 c 2,22,-1
 501 430 l 1,23,24
 505 444 505 444 520.5 462 c 128,-1,25
 536 480 536 480 553 500 c 0,26,27
 579 529 579 529 605.5 561.5 c 128,-1,28
 632 594 632 594 641 631 c 2,29,-1
 642 636 l 2,30,31
 650 672 650 672 637.5 696.5 c 128,-1,32
 625 721 625 721 600.5 736 c 128,-1,33
 576 751 576 751 544 757.5 c 128,-1,34
 512 764 512 764 481 764 c 0,35,36
 456 764 456 764 415.5 760 c 128,-1,37
 375 756 375 756 334.5 744 c 128,-1,38
 294 732 294 732 261 709 c 128,-1,39
 228 686 228 686 219 649 c 2,40,-1
 217 639 l 2,41,42
 215 628 215 628 215 620 c 256,43,44
 215 612 215 612 220 604 c 1,45,46
 219 598 219 598 217.5 591 c 128,-1,47
 216 584 216 584 214 573 c 0,48,49
 211 559 211 559 208.5 547 c 128,-1,50
 206 535 206 535 203 524 c 1,51,-1
 204 525 l 1,52,-1
 197 502 l 2,53,54
 176 424 176 424 146 346.5 c 128,-1,55
 116 269 116 269 81 187 c 2,56,-1
 70 159 l 2,57,58
 65 148 65 148 64.5 145.5 c 128,-1,59
 64 143 64 143 62 135 c 2,0,-1
373 317 m 1,60,-1
 377 317 l 2,61,62
 382 318 382 318 387 318.5 c 128,-1,63
 392 319 392 319 394 319 c 0,64,65
 404 319 404 319 419 317.5 c 128,-1,66
 434 316 434 316 447.5 312.5 c 128,-1,67
 461 309 461 309 470 303 c 128,-1,68
 479 297 479 297 478 288 c 0,69,70
 471 263 471 263 442 238 c 128,-1,71
 413 213 413 213 376.5 193 c 128,-1,72
 340 173 340 173 302.5 160.5 c 128,-1,73
 265 148 265 148 240 148 c 0,74,75
 226 148 226 148 217.5 149 c 128,-1,76
 209 150 209 150 204 156 c 1,77,-1
 208 174 l 2,78,79
 219 217 219 217 228 242 c 128,-1,80
 237 267 237 267 253 281.5 c 128,-1,81
 269 296 269 296 297 303 c 128,-1,82
 325 310 325 310 373 317 c 1,60,-1
456 629 m 2,83,-1
 463 629 l 2,84,85
 468 629 468 629 470.5 628.5 c 128,-1,86
 473 628 473 628 475 628 c 2,87,-1
 490 628 l 1,88,89
 497 624 497 624 496 623 c 0,90,91
 496 621 496 621 495 618 c 128,-1,92
 494 615 494 615 493 613 c 0,93,94
 486 589 486 589 469.5 563 c 128,-1,95
 453 537 453 537 430 515 c 128,-1,96
 407 493 407 493 379.5 477 c 128,-1,97
 352 461 352 461 323 457 c 1,98,-1
 335 513 l 2,99,100
 340 537 340 537 348.5 558 c 128,-1,101
 357 579 357 579 370.5 595 c 128,-1,102
 384 611 384 611 405 620 c 128,-1,103
 426 629 426 629 456 629 c 2,83,-1
EndSplineSet
EndChar

StartChar: C
Encoding: 67 67 44
Width: 577
Flags: W
LayerCount: 2
Fore
SplineSet
83 233 m 2,0,-1
 80 219 l 2,1,2
 59 122 59 122 105 71 c 128,-1,3
 151 20 151 20 257 20 c 0,4,5
 277 20 277 20 308 26 c 128,-1,6
 339 32 339 32 374.5 42.5 c 128,-1,7
 410 53 410 53 447 68 c 128,-1,8
 484 83 484 83 515 101.5 c 128,-1,9
 546 120 546 120 568.5 141.5 c 128,-1,10
 591 163 591 163 597 187 c 1,11,-1
 597 190 l 1,12,13
 602 212 602 212 592 226 c 128,-1,14
 582 240 582 240 560 240 c 0,15,16
 534 240 534 240 506.5 227 c 128,-1,17
 479 214 479 214 448 197 c 0,18,19
 413 177 413 177 373 159 c 128,-1,20
 333 141 333 141 291 141 c 0,21,22
 265 141 265 141 250.5 148.5 c 128,-1,23
 236 156 236 156 229.5 169.5 c 128,-1,24
 223 183 223 183 223 201 c 256,25,26
 223 219 223 219 228 240 c 0,27,28
 230 245 230 245 231 250.5 c 128,-1,29
 232 256 232 256 234 262 c 0,30,31
 237 278 237 278 252 311 c 128,-1,32
 267 344 267 344 289.5 384.5 c 128,-1,33
 312 425 312 425 340 467 c 128,-1,34
 368 509 368 509 398 544 c 128,-1,35
 428 579 428 579 458 601 c 128,-1,36
 488 623 488 623 514 623 c 0,37,38
 517 623 517 623 518 622 c 2,39,-1
 513 602 l 2,40,41
 510 588 510 588 507.5 572 c 128,-1,42
 505 556 505 556 507.5 542 c 128,-1,43
 510 528 510 528 519 519 c 128,-1,44
 528 510 528 510 549 510 c 0,45,46
 574 510 574 510 593 522 c 128,-1,47
 612 534 612 534 626 551.5 c 128,-1,48
 640 569 640 569 649 589.5 c 128,-1,49
 658 610 658 610 661 627 c 2,50,-1
 664 638 l 2,51,52
 667 650 667 650 669.5 668 c 128,-1,53
 672 686 672 686 670.5 703.5 c 128,-1,54
 669 721 669 721 661.5 734.5 c 128,-1,55
 654 748 654 748 636 751 c 0,56,57
 607 757 607 757 577 757 c 0,58,59
 507 757 507 757 445.5 725.5 c 128,-1,60
 384 694 384 694 331.5 645 c 128,-1,61
 279 596 279 596 236 535.5 c 128,-1,62
 193 475 193 475 161.5 417 c 128,-1,63
 130 359 130 359 110 309.5 c 128,-1,64
 90 260 90 260 83 233 c 2,0,-1
EndSplineSet
EndChar

StartChar: D
Encoding: 68 68 45
Width: 574
Flags: W
LayerCount: 2
Fore
SplineSet
96 274 m 2,0,-1
 89 243 l 2,1,2
 86 233 86 233 83.5 223 c 128,-1,3
 81 213 81 213 79 204 c 2,4,-1
 73 173 l 1,5,-1
 68 155 l 2,6,7
 66 147 66 147 64.5 140 c 128,-1,8
 63 133 63 133 61 126 c 0,9,10
 53 91 53 91 53.5 70.5 c 128,-1,11
 54 50 54 50 66 38.5 c 128,-1,12
 78 27 78 27 103.5 23.5 c 128,-1,13
 129 20 129 20 171 20 c 0,14,15
 243 20 243 20 317 46.5 c 128,-1,16
 391 73 391 73 454 119 c 128,-1,17
 517 165 517 165 563.5 225.5 c 128,-1,18
 610 286 610 286 628 354 c 1,19,-1
 628 353 l 1,20,21
 630 359 630 359 631.5 365.5 c 128,-1,22
 633 372 633 372 635 379 c 0,23,24
 649 446 649 446 643 513 c 128,-1,25
 637 580 637 580 608.5 632.5 c 128,-1,26
 580 685 580 685 526.5 718 c 128,-1,27
 473 751 473 751 393 751 c 2,28,-1
 331 751 l 1,29,30
 316 746 316 746 300.5 741 c 128,-1,31
 285 736 285 736 270 728 c 128,-1,32
 255 720 255 720 242 709 c 128,-1,33
 229 698 229 698 221 683 c 1,34,35
 207 623 207 623 188.5 565 c 128,-1,36
 170 507 170 507 150 449 c 0,37,38
 136 406 136 406 122 362.5 c 128,-1,39
 108 319 108 319 96 274 c 2,0,-1
213 228 m 0,40,41
 225 274 225 274 237.5 316 c 128,-1,42
 250 358 250 358 264.5 400 c 128,-1,43
 279 442 279 442 296.5 485.5 c 128,-1,44
 314 529 314 529 335 579 c 1,45,46
 346 590 346 590 353.5 593 c 128,-1,47
 361 596 361 596 375 596 c 0,48,49
 415 596 415 596 441.5 575 c 128,-1,50
 468 554 468 554 482.5 522.5 c 128,-1,51
 497 491 497 491 499.5 453.5 c 128,-1,52
 502 416 502 416 495 383 c 2,53,-1
 494 376 l 1,54,55
 483 336 483 336 455 298.5 c 128,-1,56
 427 261 427 261 389.5 231.5 c 128,-1,57
 352 202 352 202 307.5 184 c 128,-1,58
 263 166 263 166 218 166 c 0,59,60
 216 166 216 166 210 166.5 c 128,-1,61
 204 167 204 167 201 168 c 2,62,-1
 198 171 l 2,63,64
 199 175 199 175 200.5 180 c 128,-1,65
 202 185 202 185 204 191 c 0,66,67
 205 199 205 199 209 212 c 0,68,69
 210 216 210 216 211.5 220.5 c 128,-1,70
 213 225 213 225 213 228 c 0,40,41
EndSplineSet
EndChar

StartChar: E
Encoding: 69 69 46
Width: 563
Flags: W
AnchorPoint: "top" 467 860 basechar 0
LayerCount: 2
Fore
SplineSet
72 184 m 1,0,-1
 71 177 l 2,1,2
 65 148 65 148 74 120 c 128,-1,3
 83 92 83 92 102 69.5 c 128,-1,4
 121 47 121 47 147 33.5 c 128,-1,5
 173 20 173 20 202 20 c 0,6,7
 224 20 224 20 257 27 c 128,-1,8
 290 34 290 34 327.5 46 c 128,-1,9
 365 58 365 58 403.5 75.5 c 128,-1,10
 442 93 442 93 474.5 113.5 c 128,-1,11
 507 134 507 134 530 158 c 128,-1,12
 553 182 553 182 560 208 c 0,13,14
 572 265 572 265 514 265 c 0,15,16
 479 265 479 265 449 247 c 128,-1,17
 419 229 419 229 390 206 c 0,18,19
 364 186 364 186 337.5 169.5 c 128,-1,20
 311 153 311 153 284 153 c 0,21,22
 267 153 267 153 255 160.5 c 128,-1,23
 243 168 243 168 236 180 c 128,-1,24
 229 192 229 192 227 207 c 128,-1,25
 225 222 225 222 228 237 c 2,26,-1
 230 243 l 2,27,28
 240 282 240 282 266 307 c 128,-1,29
 292 332 292 332 327.5 348.5 c 128,-1,30
 363 365 363 365 403 374 c 128,-1,31
 443 383 443 383 481 391 c 0,32,33
 511 397 511 397 538 403 c 128,-1,34
 565 409 565 409 587 418 c 128,-1,35
 609 427 609 427 623.5 440 c 128,-1,36
 638 453 638 453 644 473 c 1,37,-1
 644 475 l 1,38,39
 650 504 650 504 629.5 523.5 c 128,-1,40
 609 543 609 543 580 543 c 0,41,42
 550 543 550 543 521 536.5 c 128,-1,43
 492 530 492 530 463 522 c 1,44,-1
 464 522 l 1,45,46
 438 515 438 515 413 509 c 128,-1,47
 388 503 388 503 362 503 c 2,48,-1
 360 503 l 2,49,50
 355 503 355 503 353 500 c 1,51,-1
 357 516 l 1,52,-1
 360 524 l 2,53,54
 369 558 369 558 386 579.5 c 128,-1,55
 403 601 403 601 426.5 612 c 128,-1,56
 450 623 450 623 478 627 c 128,-1,57
 506 631 506 631 536 631 c 0,58,59
 558 631 558 631 580.5 630 c 128,-1,60
 603 629 603 629 624 628 c 1,61,62
 673 641 673 641 684 680 c 1,63,-1
 684 684 l 1,64,65
 689 708 689 708 681.5 723 c 128,-1,66
 674 738 674 738 658.5 746 c 128,-1,67
 643 754 643 754 622 756.5 c 128,-1,68
 601 759 601 759 580 759 c 0,69,70
 572 759 572 759 564 758.5 c 128,-1,71
 556 758 556 758 548 758 c 0,72,73
 542 758 542 758 536 757.5 c 128,-1,74
 530 757 530 757 525 757 c 2,75,-1
 498 757 l 2,76,77
 487 757 487 757 476 757.5 c 128,-1,78
 465 758 465 758 453 758 c 0,79,80
 421 758 421 758 385.5 755 c 128,-1,81
 350 752 350 752 319 742.5 c 128,-1,82
 288 733 288 733 264.5 714.5 c 128,-1,83
 241 696 241 696 232 665 c 1,84,-1
 231 657 l 2,85,86
 225 630 225 630 225 605 c 1,87,-1
 225 606 l 1,88,89
 224 600 224 600 223 591 c 128,-1,90
 222 582 222 582 221 573.5 c 128,-1,91
 220 565 220 565 219.5 558.5 c 128,-1,92
 219 552 219 552 219 552 c 2,93,94
 217 546 217 546 217 545 c 0,95,96
 204 497 204 497 183.5 452 c 128,-1,97
 163 407 163 407 143 362 c 0,98,99
 121 316 121 316 102 271.5 c 128,-1,100
 83 227 83 227 72 184 c 1,0,-1
EndSplineSet
EndChar

StartChar: F
Encoding: 70 70 47
Width: 629
Flags: W
LayerCount: 2
Fore
SplineSet
70 174 m 1,0,1
 68 169 68 169 66.5 162 c 128,-1,2
 65 155 65 155 63 148 c 0,3,4
 59 127 59 127 57.5 104.5 c 128,-1,5
 56 82 56 82 61.5 63.5 c 128,-1,6
 67 45 67 45 80 32.5 c 128,-1,7
 93 20 93 20 118 20 c 0,8,9
 158 20 158 20 172 55 c 0,10,11
 173 61 173 61 179 79.5 c 128,-1,12
 185 98 185 98 191.5 119 c 128,-1,13
 198 140 198 140 204.5 159 c 128,-1,14
 211 178 211 178 214 185 c 2,15,-1
 217 196 l 1,16,17
 217 196 217 196 217 196 c 1,18,19
 217 197 217 197 218 198 c 1,20,-1
 218 197 l 1,21,22
 220 200 220 200 220.5 204 c 128,-1,23
 221 208 221 208 223 213 c 0,24,25
 229 228 229 228 236 246.5 c 128,-1,26
 243 265 243 265 250.5 282.5 c 128,-1,27
 258 300 258 300 267 314.5 c 128,-1,28
 276 329 276 329 285 337 c 0,29,30
 296 345 296 345 311 346 c 128,-1,31
 326 347 326 347 347 347 c 2,32,-1
 578 347 l 2,33,34
 588 347 588 347 600 354.5 c 128,-1,35
 612 362 612 362 622 372.5 c 128,-1,36
 632 383 632 383 639 394.5 c 128,-1,37
 646 406 646 406 648 413 c 2,38,-1
 648 414 l 2,39,40
 651 430 651 430 646 441.5 c 128,-1,41
 641 453 641 453 630.5 461 c 128,-1,42
 620 469 620 469 606 473 c 128,-1,43
 592 477 592 477 577 477 c 0,44,45
 566 477 566 477 555 476.5 c 128,-1,46
 544 476 544 476 533 475 c 0,47,48
 527 475 527 475 521.5 474.5 c 128,-1,49
 516 474 516 474 510 474 c 2,50,-1
 504 474 l 2,51,52
 502 474 502 474 498 473.5 c 128,-1,53
 494 473 494 473 492 473 c 0,54,55
 478 471 478 471 465.5 470 c 128,-1,56
 453 469 453 469 439 469 c 2,57,-1
 409 469 l 2,58,59
 389 469 389 469 369.5 471 c 128,-1,60
 350 473 350 473 345 481 c 1,61,-1
 346 484 l 1,62,-1
 351 503 l 1,63,-1
 353 512 l 1,64,-1
 356 528 l 2,65,66
 368 572 368 572 382 604.5 c 128,-1,67
 396 637 396 637 407 642 c 1,68,-1
 405 642 l 1,69,70
 424 651 424 651 461 651 c 2,71,-1
 482 651 l 2,72,73
 487 651 487 651 492 651 c 256,74,75
 497 651 497 651 503 650 c 0,76,77
 504 650 504 650 505.5 649.5 c 128,-1,78
 507 649 507 649 509 649 c 1,79,-1
 506 649 l 1,80,81
 510 648 510 648 514.5 647.5 c 128,-1,82
 519 647 519 647 525 647 c 2,83,-1
 542 647 l 2,84,85
 558 647 558 647 570.5 646 c 128,-1,86
 583 645 583 645 597 642 c 0,87,88
 600 641 600 641 604 641 c 0,89,90
 623 637 623 637 643 635.5 c 128,-1,91
 663 634 663 634 682 634 c 0,92,93
 712 634 712 634 731 650 c 128,-1,94
 750 666 750 666 756 692 c 2,95,-1
 757 695 l 2,96,97
 763 724 763 724 746.5 740.5 c 128,-1,98
 730 757 730 757 703 765 c 128,-1,99
 676 773 676 773 645.5 775 c 128,-1,100
 615 777 615 777 593 777 c 2,101,-1
 578 777 l 2,102,103
 567 776 567 776 544 774.5 c 128,-1,104
 521 773 521 773 492.5 771.5 c 128,-1,105
 464 770 464 770 433.5 769 c 128,-1,106
 403 768 403 768 377 767 c 0,107,108
 367 766 367 766 356.5 765.5 c 128,-1,109
 346 765 346 765 338 765 c 0,110,111
 333 763 333 763 331 763 c 256,112,113
 329 763 329 763 327 763 c 2,114,-1
 318 763 l 1,115,116
 244 743 244 743 227 682 c 0,117,118
 223 671 223 671 220 661 c 0,119,120
 218 648 218 648 218 636 c 256,121,122
 218 624 218 624 222 608 c 1,123,-1
 210 551 l 1,124,-1
 206 537 l 2,125,126
 193 490 193 490 176.5 447 c 128,-1,127
 160 404 160 404 141 360 c 1,128,129
 141 362 141 362 142 364 c 1,130,131
 140 362 140 362 138 358 c 128,-1,132
 136 354 136 354 136 351 c 1,133,-1
 136 352 l 1,134,135
 116 308 116 308 99.5 263 c 128,-1,136
 83 218 83 218 70 172 c 1,137,-1
 70 174 l 1,0,1
EndSplineSet
EndChar

StartChar: G
Encoding: 71 71 48
Width: 625
Flags: W
LayerCount: 2
Fore
SplineSet
80 226 m 1,0,-1
 78 215 l 2,1,2
 68 168 68 168 79 131.5 c 128,-1,3
 90 95 90 95 117 70.5 c 128,-1,4
 144 46 144 46 183.5 33 c 128,-1,5
 223 20 223 20 270 20 c 0,6,7
 321 20 321 20 382.5 35 c 128,-1,8
 444 50 444 50 500.5 80 c 128,-1,9
 557 110 557 110 600 153.5 c 128,-1,10
 643 197 643 197 658 254 c 0,11,12
 659 258 659 258 660.5 262.5 c 128,-1,13
 662 267 662 267 663 272 c 0,14,15
 668 295 668 295 669.5 324 c 128,-1,16
 671 353 671 353 664.5 379 c 128,-1,17
 658 405 658 405 641 423 c 128,-1,18
 624 441 624 441 592 441 c 2,19,-1
 581 441 l 2,20,21
 578 441 578 441 563 437 c 128,-1,22
 548 433 548 433 534 429 c 0,23,24
 525 426 525 426 518 423.5 c 128,-1,25
 511 421 511 421 510 421 c 0,26,27
 502 420 502 420 490.5 419.5 c 128,-1,28
 479 419 479 419 465 419 c 0,29,30
 453 419 453 419 439.5 419.5 c 128,-1,31
 426 420 426 420 421 422 c 0,32,33
 384 413 384 413 364 389 c 128,-1,34
 344 365 344 365 338 341 c 2,35,-1
 337 335 l 2,36,37
 332 309 332 309 349 290.5 c 128,-1,38
 366 272 366 272 394 272 c 0,39,40
 413 272 413 272 431 277 c 128,-1,41
 449 282 449 282 464 287 c 0,42,43
 478 292 478 292 491.5 295.5 c 128,-1,44
 505 299 505 299 517 299 c 2,45,-1
 518 299 l 1,46,-1
 516 290 l 1,47,-1
 511 270 l 2,48,49
 495 207 495 207 442.5 174.5 c 128,-1,50
 390 142 390 142 317 142 c 0,51,52
 276 142 276 142 249.5 160.5 c 128,-1,53
 223 179 223 179 221 214 c 1,54,-1
 230 252 l 1,55,-1
 234 262 l 2,56,57
 239 282 239 282 256 317 c 128,-1,58
 273 352 273 352 297 392 c 128,-1,59
 321 432 321 432 351 473.5 c 128,-1,60
 381 515 381 515 412.5 548.5 c 128,-1,61
 444 582 444 582 476 603 c 128,-1,62
 508 624 508 624 536 624 c 0,63,64
 546 624 546 624 546.5 614 c 128,-1,65
 547 604 547 604 546 591 c 128,-1,66
 545 578 545 578 544.5 565 c 128,-1,67
 544 552 544 552 548.5 541.5 c 128,-1,68
 553 531 553 531 563.5 524.5 c 128,-1,69
 574 518 574 518 595 518 c 0,70,71
 617 518 617 518 632 525 c 128,-1,72
 647 532 647 532 657.5 544 c 128,-1,73
 668 556 668 556 675 571 c 128,-1,74
 682 586 682 586 687 602 c 2,75,-1
 690 614 l 2,76,77
 695 639 695 639 694.5 669 c 128,-1,78
 694 699 694 699 684.5 724.5 c 128,-1,79
 675 750 675 750 655 767 c 128,-1,80
 635 784 635 784 602 784 c 0,81,82
 571 784 571 784 544.5 770 c 128,-1,83
 518 756 518 756 493 740 c 1,84,-1
 495 741 l 1,85,86
 492 739 492 739 489.5 737.5 c 128,-1,87
 487 736 487 736 485 735 c 0,88,89
 413 687 413 687 348.5 629.5 c 128,-1,90
 284 572 284 572 231 507.5 c 128,-1,91
 178 443 178 443 139 372 c 128,-1,92
 100 301 100 301 80 226 c 1,0,-1
EndSplineSet
EndChar

StartChar: H
Encoding: 72 72 49
Width: 569
Flags: W
LayerCount: 2
Fore
SplineSet
51 105 m 2,0,1
 50 91 50 91 50.5 76 c 128,-1,2
 51 61 51 61 56 48.5 c 128,-1,3
 61 36 61 36 72 28 c 128,-1,4
 83 20 83 20 103 20 c 0,5,6
 115 20 115 20 128.5 24 c 128,-1,7
 142 28 142 28 154 35.5 c 128,-1,8
 166 43 166 43 175 54 c 128,-1,9
 184 65 184 65 188 78 c 0,10,11
 189 87 189 87 195.5 108.5 c 128,-1,12
 202 130 202 130 210 154.5 c 128,-1,13
 218 179 218 179 225.5 201.5 c 128,-1,14
 233 224 233 224 237 233 c 0,15,16
 246 265 246 265 272 276 c 128,-1,17
 298 287 298 287 329 292 c 1,18,-1
 338 295 l 1,19,-1
 341 295 l 2,20,21
 348 297 348 297 353 299 c 128,-1,22
 358 301 358 301 365 304 c 2,23,-1
 370 304 l 2,24,25
 373 304 373 304 374 296.5 c 128,-1,26
 375 289 375 289 373.5 276 c 128,-1,27
 372 263 372 263 369 247 c 128,-1,28
 366 231 366 231 363 213 c 0,29,30
 362 210 362 210 362 206 c 0,31,32
 362 203 362 203 361 199 c 0,33,34
 357 170 357 170 353.5 141.5 c 128,-1,35
 350 113 350 113 352 90 c 128,-1,36
 354 67 354 67 365 52.5 c 128,-1,37
 376 38 376 38 401 38 c 0,38,39
 409 38 409 38 420.5 40.5 c 128,-1,40
 432 43 432 43 443.5 48 c 128,-1,41
 455 53 455 53 464 60.5 c 128,-1,42
 473 68 473 68 476 79 c 2,43,-1
 581 474 l 2,44,45
 588 503 588 503 602 530 c 128,-1,46
 616 557 616 557 632 584 c 1,47,-1
 632 583 l 1,48,49
 636 591 636 591 638.5 595 c 128,-1,50
 641 599 641 599 643 603 c 0,51,52
 645 608 645 608 648 612.5 c 128,-1,53
 651 617 651 617 653 622 c 0,54,55
 670 651 670 651 684.5 679.5 c 128,-1,56
 699 708 699 708 705 736 c 1,57,-1
 707 741 l 1,58,59
 712 768 712 768 700.5 786.5 c 128,-1,60
 689 805 689 805 659 805 c 0,61,62
 632 805 632 805 612.5 792 c 128,-1,63
 593 779 593 779 577 757.5 c 128,-1,64
 561 736 561 736 548 706.5 c 128,-1,65
 535 677 535 677 522 644 c 0,66,67
 507 605 507 605 488.5 564.5 c 128,-1,68
 470 524 470 524 444 491.5 c 128,-1,69
 418 459 418 459 381 438 c 128,-1,70
 344 417 344 417 290 417 c 0,71,72
 285 417 285 417 287 425 c 0,73,74
 310 498 310 498 341 559 c 0,75,76
 343 563 343 563 344 566 c 0,77,78
 359 598 359 598 372.5 629.5 c 128,-1,79
 386 661 386 661 394 694 c 0,80,81
 394 696 394 696 395 699 c 128,-1,82
 396 702 396 702 397 705 c 0,83,84
 403 733 403 733 393 756 c 128,-1,85
 383 779 383 779 349 779 c 0,86,87
 317 779 317 779 298.5 760 c 128,-1,88
 280 741 280 741 266 719 c 0,89,90
 206 591 206 591 160.5 470.5 c 128,-1,91
 115 350 115 350 82 223 c 2,92,-1
 62 148 l 1,93,-1
 59 131 l 1,94,-1
 51 105 l 2,0,1
EndSplineSet
EndChar

StartChar: I
Encoding: 73 73 50
Width: 524
Flags: W
AnchorPoint: "top" 420 893 basechar 0
LayerCount: 2
Fore
SplineSet
58 86 m 1,0,1
 54 68 54 68 60.5 55 c 128,-1,2
 67 42 67 42 79 34.5 c 128,-1,3
 91 27 91 27 107 23.5 c 128,-1,4
 123 20 123 20 138 20 c 0,5,6
 148 20 148 20 177.5 24 c 128,-1,7
 207 28 207 28 246 34.5 c 128,-1,8
 285 41 285 41 327.5 50 c 128,-1,9
 370 59 370 59 406 69 c 128,-1,10
 442 79 442 79 467 89.5 c 128,-1,11
 492 100 492 100 496 110 c 2,12,-1
 498 116 l 2,13,14
 502 138 502 138 495 151 c 128,-1,15
 488 164 488 164 474 171.5 c 128,-1,16
 460 179 460 179 441.5 181.5 c 128,-1,17
 423 184 423 184 404 184 c 0,18,19
 396 184 396 184 388.5 183.5 c 128,-1,20
 381 183 381 183 374 183 c 0,21,22
 370 183 370 183 367 182.5 c 128,-1,23
 364 182 364 182 362 182 c 2,24,25
 362 182 362 182 361 182 c 1,26,27
 361 182 361 182 361 183 c 2,28,-1
 368 209 l 1,29,-1
 378 254 l 2,30,31
 380 266 380 266 383.5 277 c 128,-1,32
 387 288 387 288 389 298 c 2,33,-1
 397 326 l 1,34,-1
 397 325 l 1,35,36
 399 333 399 333 401 340.5 c 128,-1,37
 403 348 403 348 405 357 c 0,38,39
 426 438 426 438 449 519 c 128,-1,40
 472 600 472 600 506 681 c 1,41,-1
 512 681 l 2,42,43
 520 681 520 681 528.5 680 c 128,-1,44
 537 679 537 679 547 678 c 0,45,46
 566 675 566 675 588 675 c 2,47,-1
 600 675 l 2,48,49
 604 675 604 675 609 675.5 c 128,-1,50
 614 676 614 676 616 676 c 0,51,52
 641 683 641 683 647 694 c 128,-1,53
 653 705 653 705 657 718 c 2,54,-1
 658 725 l 2,55,56
 665 757 665 757 650 775.5 c 128,-1,57
 635 794 635 794 605 804 c 1,58,-1
 596 804 l 2,59,60
 592 804 592 804 588 804.5 c 128,-1,61
 584 805 584 805 579 805 c 256,62,63
 574 805 574 805 569 805.5 c 128,-1,64
 564 806 564 806 560 806 c 2,65,-1
 545 806 l 2,66,67
 541 806 541 806 535.5 805.5 c 128,-1,68
 530 805 530 805 525 805 c 0,69,70
 516 805 516 805 513 805 c 0,71,72
 511 805 511 805 504 804 c 1,73,-1
 506 804 l 1,74,75
 501 804 501 804 484 801.5 c 128,-1,76
 467 799 467 799 448 795 c 128,-1,77
 429 791 429 791 412 787.5 c 128,-1,78
 395 784 395 784 389 783 c 1,79,-1
 391 784 l 1,80,81
 382 782 382 782 372 781.5 c 128,-1,82
 362 781 362 781 350 780 c 0,83,84
 326 779 326 779 299 776.5 c 128,-1,85
 272 774 272 774 247 765.5 c 128,-1,86
 222 757 222 757 203 740.5 c 128,-1,87
 184 724 184 724 177 696 c 1,88,-1
 177 695 l 2,89,90
 174 679 174 679 179 667 c 128,-1,91
 184 655 184 655 194.5 646.5 c 128,-1,92
 205 638 205 638 219 633.5 c 128,-1,93
 233 629 233 629 247 629 c 256,94,95
 261 629 261 629 273 631.5 c 128,-1,96
 285 634 285 634 299 639 c 1,97,-1
 298 639 l 1,98,99
 307 641 307 641 317.5 643.5 c 128,-1,100
 328 646 328 646 340 646 c 2,101,-1
 341 646 l 1,102,-1
 341 645 l 1,103,-1
 212 150 l 2,104,105
 210 142 210 142 195 141 c 128,-1,106
 180 140 180 140 163 140 c 256,107,108
 146 140 146 140 130 139 c 128,-1,109
 114 138 114 138 100 133.5 c 128,-1,110
 86 129 86 129 75.5 118 c 128,-1,111
 65 107 65 107 59 88 c 2,112,-1
 58 86 l 1,0,1
EndSplineSet
EndChar

StartChar: J
Encoding: 74 74 51
Width: 564
Flags: W
LayerCount: 2
Fore
SplineSet
74 217 m 2,0,-1
 69 194 l 2,1,2
 59 146 59 146 66.5 112.5 c 128,-1,3
 74 79 74 79 97.5 58.5 c 128,-1,4
 121 38 121 38 159.5 29 c 128,-1,5
 198 20 198 20 251 20 c 2,6,-1
 308 20 l 1,7,8
 348 35 348 35 386 56.5 c 128,-1,9
 424 78 424 78 456 105 c 128,-1,10
 488 132 488 132 513.5 165 c 128,-1,11
 539 198 539 198 555 236 c 0,12,13
 559 249 559 249 567 277.5 c 128,-1,14
 575 306 575 306 585.5 341.5 c 128,-1,15
 596 377 596 377 608 416 c 128,-1,16
 620 455 620 455 630.5 490.5 c 128,-1,17
 641 526 641 526 649.5 554 c 128,-1,18
 658 582 658 582 662 595 c 2,19,-1
 666 608 l 2,20,21
 668 613 668 613 669.5 618.5 c 128,-1,22
 671 624 671 624 673 631 c 0,23,24
 677 641 677 641 680 655 c 2,25,-1
 686 673 l 1,26,-1
 690 690 l 1,27,-1
 689 689 l 1,28,29
 693 699 693 699 696 715 c 2,30,-1
 705 757 l 2,31,32
 706 778 706 778 691.5 791.5 c 128,-1,33
 677 805 677 805 652 805 c 0,34,35
 629 805 629 805 612 796.5 c 128,-1,36
 595 788 595 788 583 774.5 c 128,-1,37
 571 761 571 761 563 745 c 128,-1,38
 555 729 555 729 551 713 c 0,39,40
 542 676 542 676 534 640 c 128,-1,41
 526 604 526 604 518 568 c 0,42,43
 510 533 510 533 501.5 498.5 c 128,-1,44
 493 464 493 464 482 427 c 0,45,46
 477 407 477 407 469 378.5 c 128,-1,47
 461 350 461 350 449.5 318.5 c 128,-1,48
 438 287 438 287 422.5 255.5 c 128,-1,49
 407 224 407 224 386 198.5 c 128,-1,50
 365 173 365 173 338 157.5 c 128,-1,51
 311 142 311 142 277 142 c 0,52,53
 250 142 250 142 237 148.5 c 128,-1,54
 224 155 224 155 218.5 165.5 c 128,-1,55
 213 176 213 176 214 188.5 c 128,-1,56
 215 201 215 201 217 214 c 0,57,58
 220 230 220 230 221.5 245.5 c 128,-1,59
 223 261 223 261 218.5 272.5 c 128,-1,60
 214 284 214 284 202 291 c 128,-1,61
 190 298 190 298 166 298 c 0,62,63
 143 298 143 298 126.5 289 c 128,-1,64
 110 280 110 280 87 263 c 1,65,-1
 84 248 l 2,66,67
 79 240 79 240 78 229 c 0,68,69
 76 221 76 221 74 217 c 2,0,-1
EndSplineSet
EndChar

StartChar: K
Encoding: 75 75 52
Width: 580
Flags: W
LayerCount: 2
Fore
SplineSet
278 233 m 1,0,-1
 280 230 l 1,1,2
 273 230 273 230 272 230 c 256,3,4
 271 230 271 230 271 229 c 1,5,6
 281 229 281 229 281 230 c 1,7,8
 284 223 284 223 292 220 c 1,9,10
 309 198 309 198 330 175 c 128,-1,11
 351 152 351 152 377 133 c 128,-1,12
 403 114 403 114 433.5 102 c 128,-1,13
 464 90 464 90 501 90 c 0,14,15
 520 90 520 90 535.5 95.5 c 128,-1,16
 551 101 551 101 573 118 c 1,17,-1
 577 137 l 2,18,19
 579 141 579 141 579 141 c 1,20,-1
 582 149 l 2,21,22
 586 169 586 169 582 183 c 128,-1,23
 578 197 578 197 568.5 206.5 c 128,-1,24
 559 216 559 216 544 223.5 c 128,-1,25
 529 231 529 231 512 239 c 1,26,-1
 512 240 l 1,27,28
 521 240 521 240 523 240 c 256,29,30
 525 240 525 240 525 241 c 1,31,-1
 511 241 l 1,32,33
 498 247 498 247 487.5 252 c 128,-1,34
 477 257 477 257 474 262 c 2,35,-1
 391 353 l 2,36,37
 388 355 388 355 387 356.5 c 128,-1,38
 386 358 386 358 384 360 c 0,39,40
 384 369 384 369 379.5 371 c 128,-1,41
 375 373 375 373 367 373 c 0,42,43
 363 376 363 376 362 384 c 2,44,-1
 364 395 l 1,45,46
 372 403 372 403 381 409.5 c 128,-1,47
 390 416 390 416 399 424 c 1,48,-1
 398 424 l 1,49,50
 406 429 406 429 413.5 436 c 128,-1,51
 421 443 421 443 429 450 c 1,52,-1
 428 449 l 1,53,-1
 448 464 l 2,54,55
 490 497 490 497 534 532.5 c 128,-1,56
 578 568 578 568 616 605.5 c 128,-1,57
 654 643 654 643 682 681 c 128,-1,58
 710 719 710 719 721 757 c 0,59,60
 723 766 723 766 722 777 c 128,-1,61
 721 788 721 788 717 797 c 128,-1,62
 713 806 713 806 705 812.5 c 128,-1,63
 697 819 697 819 685 819 c 0,64,65
 662 819 662 819 638 806 c 128,-1,66
 614 793 614 793 590 772.5 c 128,-1,67
 566 752 566 752 542 726 c 128,-1,68
 518 700 518 700 495 674 c 0,69,70
 481 657 481 657 467 642.5 c 128,-1,71
 453 628 453 628 433 611 c 0,72,73
 424 604 424 604 412 595.5 c 128,-1,74
 400 587 400 587 388 578.5 c 128,-1,75
 376 570 376 570 365.5 562.5 c 128,-1,76
 355 555 355 555 349 551 c 2,77,-1
 348 550 l 1,78,-1
 345 550 l 1,79,-1
 391 719 l 1,80,-1
 391 721 l 1,81,82
 398 753 398 753 376.5 769.5 c 128,-1,83
 355 786 355 786 326 786 c 0,84,85
 295 786 295 786 279.5 768.5 c 128,-1,86
 264 751 264 751 251 728 c 0,87,88
 245 712 245 712 233.5 679.5 c 128,-1,89
 222 647 222 647 207.5 606.5 c 128,-1,90
 193 566 193 566 177 521 c 128,-1,91
 161 476 161 476 147 435 c 128,-1,92
 133 394 133 394 122 360.5 c 128,-1,93
 111 327 111 327 106 309 c 2,94,-1
 104 302 l 2,95,96
 99 291 99 291 94.5 275.5 c 128,-1,97
 90 260 90 260 87 244 c 2,98,-1
 77 205 l 2,99,100
 73 194 73 194 69.5 179.5 c 128,-1,101
 66 165 66 165 64 154 c 2,102,-1
 63 149 l 2,103,104
 62 147 62 147 62.5 146.5 c 128,-1,105
 63 146 63 146 63 145 c 2,106,-1
 59 133 l 2,107,108
 57 117 57 117 57.5 97 c 128,-1,109
 58 77 58 77 64 60 c 128,-1,110
 70 43 70 43 83 31 c 128,-1,111
 96 19 96 19 119 19 c 2,112,-1
 123 19 l 2,113,114
 136 19 136 19 149 23 c 128,-1,115
 162 27 162 27 180 50 c 1,116,-1
 187 78 l 1,117,-1
 187 79 l 1,118,-1
 189 87 l 1,119,-1
 194 109 l 2,120,121
 195 114 195 114 196.5 120 c 128,-1,122
 198 126 198 126 198 131 c 2,123,-1
 201 148 l 2,124,125
 202 154 202 154 203 160.5 c 128,-1,126
 204 167 204 167 206 174 c 2,127,-1
 212 202 l 1,128,-1
 217 221 l 2,129,130
 219 232 219 232 224.5 241 c 128,-1,131
 230 250 230 250 245 250 c 0,132,133
 254 250 254 250 259.5 248.5 c 128,-1,134
 265 247 265 247 273 242 c 1,135,-1
 273 241 l 1,136,-1
 277 234 l 1,137,-1
 278 233 l 1,0,-1
298 266 m 1,138,139
 312 266 312 266 313.5 264 c 128,-1,140
 315 262 315 262 312 248 c 1,141,-1
 278 234 l 1,142,-1
 298 266 l 1,138,139
EndSplineSet
EndChar

StartChar: L
Encoding: 76 76 53
Width: 512
Flags: W
LayerCount: 2
Fore
SplineSet
78 203 m 2,0,-1
 76 195 l 2,1,2
 74 189 74 189 72 177 c 0,3,4
 66 148 66 148 67.5 120 c 128,-1,5
 69 92 69 92 81 70 c 128,-1,6
 93 48 93 48 116 34 c 128,-1,7
 139 20 139 20 175 20 c 0,8,9
 212 20 212 20 254 35.5 c 128,-1,10
 296 51 296 51 327 66 c 0,11,12
 332 68 332 68 338.5 71.5 c 128,-1,13
 345 75 345 75 353 80 c 1,14,-1
 353 79 l 1,15,16
 369 87 369 87 390 98 c 128,-1,17
 411 109 411 109 431.5 119.5 c 128,-1,18
 452 130 452 130 468.5 139 c 128,-1,19
 485 148 485 148 492 152 c 0,20,21
 512 162 512 162 522.5 180.5 c 128,-1,22
 533 199 533 199 538 216 c 2,23,-1
 539 219 l 2,24,25
 544 245 544 245 530.5 258.5 c 128,-1,26
 517 272 517 272 488 272 c 0,27,28
 457 272 457 272 422.5 254 c 128,-1,29
 388 236 388 236 351 213 c 0,30,31
 316 191 316 191 279.5 172.5 c 128,-1,32
 243 154 243 154 211 154 c 1,33,-1
 210 163 l 1,34,-1
 211 168 l 1,35,-1
 215 187 l 2,36,37
 216 190 216 190 216 193 c 256,38,39
 216 196 216 196 218 199 c 2,40,-1
 221 212 l 2,41,42
 235 264 235 264 254.5 317.5 c 128,-1,43
 274 371 274 371 296 425 c 0,44,45
 317 479 317 479 337 531.5 c 128,-1,46
 357 584 357 584 371 641 c 2,47,-1
 378 671 l 2,48,49
 380 676 380 676 381 681.5 c 128,-1,50
 382 687 382 687 383 693 c 2,51,-1
 386 706 l 2,52,53
 388 723 388 723 374.5 740 c 128,-1,54
 361 757 361 757 344 757 c 0,55,56
 318 757 318 757 299 742 c 128,-1,57
 280 727 280 727 266.5 706 c 128,-1,58
 253 685 253 685 244.5 663 c 128,-1,59
 236 641 236 641 231 626 c 0,60,61
 230 623 230 623 229 620 c 128,-1,62
 228 617 228 617 228 615 c 0,63,64
 227 611 227 611 221.5 593.5 c 128,-1,65
 216 576 216 576 210 556 c 128,-1,66
 204 536 204 536 198 518.5 c 128,-1,67
 192 501 192 501 190 497 c 0,68,69
 188 491 188 491 181.5 475.5 c 128,-1,70
 175 460 175 460 167 438.5 c 128,-1,71
 159 417 159 417 149 391.5 c 128,-1,72
 139 366 139 366 129 342 c 0,73,74
 114 304 114 304 101.5 274 c 128,-1,75
 89 244 89 244 86 235 c 2,76,-1
 82 217 l 2,77,78
 81 214 81 214 80 210.5 c 128,-1,79
 79 207 79 207 78 203 c 2,0,-1
EndSplineSet
EndChar

StartChar: M
Encoding: 77 77 54
Width: 698
Flags: W
LayerCount: 2
Fore
SplineSet
94 180 m 2,0,-1
 88 161 l 1,1,-1
 88 162 l 1,2,3
 84 151 84 151 80 137 c 128,-1,4
 76 123 76 123 73 107 c 0,5,6
 69 90 69 90 68 74.5 c 128,-1,7
 67 59 67 59 71 47 c 128,-1,8
 75 35 75 35 85.5 27.5 c 128,-1,9
 96 20 96 20 116 20 c 0,10,11
 126 20 126 20 138 21.5 c 128,-1,12
 150 23 150 23 161.5 28 c 128,-1,13
 173 33 173 33 182 41.5 c 128,-1,14
 191 50 191 50 195 64 c 0,15,16
 197 68 197 68 197.5 73 c 128,-1,17
 198 78 198 78 200 84 c 0,18,19
 202 92 202 92 202.5 98.5 c 128,-1,20
 203 105 203 105 204 111 c 0,21,22
 205 126 205 126 207 138 c 0,23,24
 208 140 208 140 208 141 c 256,25,26
 208 142 208 142 210 146 c 0,27,28
 223 197 223 197 240 243 c 128,-1,29
 257 289 257 289 277 334 c 1,30,31
 283 304 283 304 290.5 278.5 c 128,-1,32
 298 253 298 253 308.5 229 c 128,-1,33
 319 205 319 205 335 182 c 128,-1,34
 351 159 351 159 374 136 c 1,35,-1
 394 136 l 2,36,37
 419 136 419 136 446 155 c 128,-1,38
 473 174 473 174 499 202 c 128,-1,39
 525 230 525 230 548.5 261.5 c 128,-1,40
 572 293 572 293 589 318 c 0,41,42
 594 326 594 326 598.5 332 c 128,-1,43
 603 338 603 338 605 342 c 1,44,45
 605 328 605 328 604.5 310 c 128,-1,46
 604 292 604 292 604 291 c 1,47,-1
 604 292 l 1,48,-1
 542 52 l 2,49,50
 540 43 540 43 543 36.5 c 128,-1,51
 546 30 546 30 551.5 26.5 c 128,-1,52
 557 23 557 23 564 21.5 c 128,-1,53
 571 20 571 20 578 20 c 2,54,-1
 586 20 l 2,55,56
 620 20 620 20 641.5 35.5 c 128,-1,57
 663 51 663 51 677 75 c 128,-1,58
 691 99 691 99 698.5 127.5 c 128,-1,59
 706 156 706 156 711 181 c 1,60,-1
 713 186 l 2,61,62
 715 194 715 194 716 202 c 128,-1,63
 717 210 717 210 719 217 c 0,64,65
 721 225 721 225 723 233 c 128,-1,66
 725 241 725 241 727 249 c 0,67,68
 734 281 734 281 738.5 313.5 c 128,-1,69
 743 346 743 346 748 378 c 128,-1,70
 753 410 753 410 757.5 443.5 c 128,-1,71
 762 477 762 477 769 509 c 0,72,73
 771 518 771 518 773 526 c 128,-1,74
 775 534 775 534 777 543 c 0,75,76
 783 562 783 562 789.5 580.5 c 128,-1,77
 796 599 796 599 802 618 c 0,78,79
 807 635 807 635 813 653 c 128,-1,80
 819 671 819 671 824 688 c 0,81,82
 828 710 828 710 817.5 730.5 c 128,-1,83
 807 751 807 751 779 751 c 0,84,85
 759 751 759 751 738 737 c 128,-1,86
 717 723 717 723 705 706 c 0,87,88
 700 698 700 698 695.5 690 c 128,-1,89
 691 682 691 682 685 674 c 0,90,91
 655 627 655 627 625.5 581.5 c 128,-1,92
 596 536 596 536 564.5 491.5 c 128,-1,93
 533 447 533 447 498.5 402 c 128,-1,94
 464 357 464 357 424 310 c 1,95,96
 415 315 415 315 411 339.5 c 128,-1,97
 407 364 407 364 406 394 c 128,-1,98
 405 424 405 424 406 452.5 c 128,-1,99
 407 481 407 481 408 494 c 2,100,-1
 434 700 l 1,101,-1
 434 699 l 1,102,103
 433 700 433 700 433 703 c 0,104,105
 433 712 433 712 432.5 721.5 c 128,-1,106
 432 731 432 731 428.5 739 c 128,-1,107
 425 747 425 747 417.5 752 c 128,-1,108
 410 757 410 757 396 757 c 0,109,110
 375 757 375 757 351.5 735 c 128,-1,111
 328 713 328 713 304 676 c 128,-1,112
 280 639 280 639 255.5 591.5 c 128,-1,113
 231 544 231 544 208.5 493 c 128,-1,114
 186 442 186 442 166.5 391.5 c 128,-1,115
 147 341 147 341 131.5 298 c 128,-1,116
 116 255 116 255 106.5 223.5 c 128,-1,117
 97 192 97 192 94 180 c 2,0,-1
427 310 m 2,118,-1
 431 310 l 1,119,-1
 428 310 l 1,120,-1
 426 309 l 1,121,-1
 425 309 l 1,122,123
 426 309 426 309 426 309 c 1,124,125
 426 310 426 310 427 310 c 2,118,-1
422 308 m 1,126,-1
 422 307 l 1,127,-1
 422 308 l 1,126,-1
EndSplineSet
EndChar

StartChar: N
Encoding: 78 78 55
Width: 609
Flags: W
LayerCount: 2
Fore
SplineSet
69 77 m 1,0,-1
 69 76 l 1,1,2
 65 57 65 57 76.5 38.5 c 128,-1,3
 88 20 88 20 108 20 c 0,4,5
 142 20 142 20 160.5 41.5 c 128,-1,6
 179 63 179 63 187 87 c 0,7,8
 190 97 190 97 196.5 120 c 128,-1,9
 203 143 203 143 211.5 172 c 128,-1,10
 220 201 220 201 229 233.5 c 128,-1,11
 238 266 238 266 246.5 295 c 128,-1,12
 255 324 255 324 261.5 347.5 c 128,-1,13
 268 371 268 371 271 382 c 0,14,15
 272 387 272 387 278 403 c 128,-1,16
 284 419 284 419 289 432 c 1,17,-1
 312 324 l 1,18,-1
 311 325 l 1,19,20
 312 315 312 315 317.5 295 c 128,-1,21
 323 275 323 275 329 254 c 128,-1,22
 335 233 335 233 340.5 214.5 c 128,-1,23
 346 196 346 196 349 190 c 1,24,-1
 350 191 l 1,25,26
 351 187 351 187 351.5 184 c 128,-1,27
 352 181 352 181 353 176 c 0,28,29
 358 160 358 160 365 140.5 c 128,-1,30
 372 121 372 121 383 104.5 c 128,-1,31
 394 88 394 88 409 76.5 c 128,-1,32
 424 65 424 65 445 65 c 0,33,34
 474 65 474 65 497.5 80.5 c 128,-1,35
 521 96 521 96 538.5 118.5 c 128,-1,36
 556 141 556 141 569 165.5 c 128,-1,37
 582 190 582 190 590 208 c 1,38,-1
 590 207 l 1,39,40
 592 209 592 209 593 213 c 128,-1,41
 594 217 594 217 596 219 c 0,42,43
 600 229 600 229 604 245 c 0,44,45
 611 264 611 264 620.5 291 c 128,-1,46
 630 318 630 318 639 344.5 c 128,-1,47
 648 371 648 371 655 393.5 c 128,-1,48
 662 416 662 416 665 427 c 2,49,-1
 670 445 l 1,50,-1
 669 444 l 1,51,52
 680 478 680 478 689 523 c 2,53,-1
 698 556 l 1,54,-1
 706 583 l 2,55,56
 707 586 707 586 708 590 c 128,-1,57
 709 594 709 594 710 599 c 0,58,59
 715 615 715 615 718 630.5 c 128,-1,60
 721 646 721 646 727 660 c 2,61,-1
 736 690 l 1,62,-1
 736 706 l 2,63,64
 736 721 736 721 735.5 735 c 128,-1,65
 735 749 735 749 730.5 760 c 128,-1,66
 726 771 726 771 715 777.5 c 128,-1,67
 704 784 704 784 683 784 c 0,68,69
 663 784 663 784 648.5 772 c 128,-1,70
 634 760 634 760 623.5 743 c 128,-1,71
 613 726 613 726 606 707 c 128,-1,72
 599 688 599 688 594 674 c 1,73,-1
 595 676 l 1,74,75
 593 671 593 671 590.5 665.5 c 128,-1,76
 588 660 588 660 589 661 c 1,77,78
 581 629 581 629 573.5 596 c 128,-1,79
 566 563 566 563 559 531 c 128,-1,80
 552 499 552 499 545 467.5 c 128,-1,81
 538 436 538 436 530 403 c 2,82,-1
 524 377 l 2,83,84
 522 369 522 369 519.5 360 c 128,-1,85
 517 351 517 351 515 342 c 0,86,87
 514 338 514 338 513 336.5 c 128,-1,88
 512 335 512 335 511 332.5 c 128,-1,89
 510 330 510 330 508.5 325 c 128,-1,90
 507 320 507 320 505 310 c 2,91,-1
 498 288 l 1,92,-1
 498 285 l 1,93,94
 493 277 493 277 489 267 c 128,-1,95
 485 257 485 257 486 257 c 1,96,97
 478 257 478 257 470.5 270 c 128,-1,98
 463 283 463 283 457 304 c 128,-1,99
 451 325 451 325 445.5 350 c 128,-1,100
 440 375 440 375 436.5 398.5 c 128,-1,101
 433 422 433 422 430.5 442 c 128,-1,102
 428 462 428 462 428 471 c 2,103,-1
 421 550 l 2,104,105
 420 556 420 556 417.5 572.5 c 128,-1,106
 415 589 415 589 411 609 c 0,107,108
 409 628 409 628 406.5 646 c 128,-1,109
 404 664 404 664 403 671 c 0,110,111
 388 696 388 696 363.5 714.5 c 128,-1,112
 339 733 339 733 304 733 c 0,113,114
 285 733 285 733 270.5 723 c 128,-1,115
 256 713 256 713 246 699 c 128,-1,116
 236 685 236 685 229 670.5 c 128,-1,117
 222 656 222 656 218 646 c 0,118,119
 215 637 215 637 208.5 617 c 128,-1,120
 202 597 202 597 195 574.5 c 128,-1,121
 188 552 188 552 182 531.5 c 128,-1,122
 176 511 176 511 174 502 c 2,123,-1
 168 482 l 2,124,125
 166 474 166 474 163.5 464.5 c 128,-1,126
 161 455 161 455 159 446 c 0,127,128
 156 435 156 435 152.5 422.5 c 128,-1,129
 149 410 149 410 146 399 c 2,130,-1
 138 365 l 1,131,-1
 117 290 l 2,132,133
 108 255 108 255 100 222 c 128,-1,134
 92 189 92 189 84 153 c 0,135,136
 79 135 79 135 76 116 c 128,-1,137
 73 97 73 97 69 77 c 1,0,-1
EndSplineSet
EndChar

StartChar: O
Encoding: 79 79 56
Width: 841
Flags: W
AnchorPoint: "top" 607 847 basechar 0
LayerCount: 2
Fore
SplineSet
96 282 m 2,0,-1
 93 269 l 2,1,2
 80 209 80 209 92 162.5 c 128,-1,3
 104 116 104 116 135 84.5 c 128,-1,4
 166 53 166 53 214.5 36.5 c 128,-1,5
 263 20 263 20 324 20 c 0,6,7
 417 20 417 20 511 51 c 128,-1,8
 605 82 605 82 686 137.5 c 128,-1,9
 767 193 767 193 827.5 270 c 128,-1,10
 888 347 888 347 913 438 c 0,11,12
 914 443 914 443 915.5 447 c 128,-1,13
 917 451 917 451 918 456 c 0,14,15
 931 518 931 518 918.5 570.5 c 128,-1,16
 906 623 906 623 873 661.5 c 128,-1,17
 840 700 840 700 789 721.5 c 128,-1,18
 738 743 738 743 673 743 c 0,19,20
 611 743 611 743 548.5 724.5 c 128,-1,21
 486 706 486 706 426.5 673.5 c 128,-1,22
 367 641 367 641 313.5 597 c 128,-1,23
 260 553 260 553 216.5 501.5 c 128,-1,24
 173 450 173 450 141.5 394 c 128,-1,25
 110 338 110 338 96 282 c 2,0,-1
616 625 m 0,26,27
 659 625 659 625 691 606 c 128,-1,28
 723 587 723 587 742.5 557 c 128,-1,29
 762 527 762 527 768.5 488.5 c 128,-1,30
 775 450 775 450 767 411 c 2,31,-1
 766 406 l 2,32,33
 754 356 754 356 714 309 c 128,-1,34
 674 262 674 262 621 225.5 c 128,-1,35
 568 189 568 189 508 167 c 128,-1,36
 448 145 448 145 396 145 c 0,37,38
 357 145 357 145 326 155.5 c 128,-1,39
 295 166 295 166 275.5 186.5 c 128,-1,40
 256 207 256 207 248.5 236 c 128,-1,41
 241 265 241 265 249 302 c 2,42,-1
 252 314 l 2,43,44
 259 344 259 344 279.5 379 c 128,-1,45
 300 414 300 414 329 448.5 c 128,-1,46
 358 483 358 483 393.5 515 c 128,-1,47
 429 547 429 547 467 571.5 c 128,-1,48
 505 596 505 596 543.5 610.5 c 128,-1,49
 582 625 582 625 616 625 c 0,26,27
EndSplineSet
EndChar

StartChar: P
Encoding: 80 80 57
Width: 599
Flags: W
LayerCount: 2
Fore
SplineSet
48 51 m 1,0,1
 53 29 53 29 63 24 c 128,-1,2
 73 19 73 19 91 19 c 0,3,4
 101 19 101 19 114.5 24 c 128,-1,5
 128 29 128 29 141 37.5 c 128,-1,6
 154 46 154 46 163.5 56 c 128,-1,7
 173 66 173 66 176 76 c 2,8,-1
 216 220 l 1,9,10
 216 218 216 218 225.5 221 c 128,-1,11
 235 224 235 224 250.5 229 c 128,-1,12
 266 234 266 234 285.5 241 c 128,-1,13
 305 248 305 248 323 254 c 0,14,15
 347 263 347 263 364.5 269 c 128,-1,16
 382 275 382 275 396 282 c 1,17,-1
 395 281 l 1,18,19
 439 302 439 302 487.5 332 c 128,-1,20
 536 362 536 362 579.5 399.5 c 128,-1,21
 623 437 623 437 656 481 c 128,-1,22
 689 525 689 525 701 572 c 2,23,-1
 703 583 l 2,24,25
 713 630 713 630 700 663 c 128,-1,26
 687 696 687 696 658.5 717 c 128,-1,27
 630 738 630 738 589.5 747.5 c 128,-1,28
 549 757 549 757 503 757 c 0,29,30
 489 757 489 757 460.5 753.5 c 128,-1,31
 432 750 432 750 397 743 c 128,-1,32
 362 736 362 736 324.5 726 c 128,-1,33
 287 716 287 716 254.5 702.5 c 128,-1,34
 222 689 222 689 199 672.5 c 128,-1,35
 176 656 176 656 171 637 c 1,36,-1
 171 635 l 1,37,38
 166 615 166 615 170.5 595 c 128,-1,39
 175 575 175 575 187 561 c 1,40,-1
 183 540 l 2,41,42
 182 536 182 536 181 533 c 128,-1,43
 180 530 180 530 178 526 c 2,44,-1
 175 512 l 2,45,46
 163 470 163 470 150 431 c 128,-1,47
 137 392 137 392 125 352 c 0,48,49
 108 303 108 303 92.5 252.5 c 128,-1,50
 77 202 77 202 64 151 c 2,51,-1
 57 119 l 2,52,53
 55 110 55 110 53.5 98 c 128,-1,54
 52 86 52 86 50 76 c 0,55,56
 49 69 49 69 48.5 65 c 128,-1,57
 48 61 48 61 48 59 c 2,58,-1
 48 51 l 1,0,1
282 430 m 1,59,-1
 284 439 l 2,60,61
 284 440 284 440 288 448 c 128,-1,62
 292 456 292 456 297 469 c 128,-1,63
 302 482 302 482 308.5 497 c 128,-1,64
 315 512 315 512 321 526 c 1,65,-1
 320 525 l 1,66,67
 325 537 325 537 330 547.5 c 128,-1,68
 335 558 335 558 338 565 c 1,69,-1
 337 564 l 1,70,71
 346 584 346 584 362 595.5 c 128,-1,72
 378 607 378 607 398 613 c 128,-1,73
 418 619 418 619 441 621 c 128,-1,74
 464 623 464 623 485 623 c 0,75,76
 520 623 520 623 538.5 615 c 128,-1,77
 557 607 557 607 551 578 c 2,78,-1
 549 570 l 2,79,80
 541 538 541 538 509 502.5 c 128,-1,81
 477 467 477 467 434.5 436.5 c 128,-1,82
 392 406 392 406 346 385 c 128,-1,83
 300 364 300 364 264 362 c 1,84,-1
 273 403 l 1,85,-1
 282 430 l 1,59,-1
EndSplineSet
EndChar

StartChar: Q
Encoding: 81 81 58
Width: 706
Flags: W
LayerCount: 2
Fore
SplineSet
446 34 m 0,0,1
 456 17 456 17 466.5 2 c 128,-1,2
 477 -13 477 -13 482 -25 c 0,3,4
 495 -43 495 -43 521 -43 c 0,5,6
 546 -43 546 -43 568 -27.5 c 128,-1,7
 590 -12 590 -12 598 10 c 2,8,-1
 600 17 l 2,9,10
 605 39 605 39 596.5 55.5 c 128,-1,11
 588 72 588 72 578 88 c 0,12,13
 570 102 570 102 563 114.5 c 128,-1,14
 556 127 556 127 559 140 c 2,15,-1
 560 144 l 2,16,17
 565 161 565 161 586 181 c 128,-1,18
 607 201 607 201 630 221 c 1,19,-1
 629 221 l 1,20,21
 634 225 634 225 638.5 229 c 128,-1,22
 643 233 643 233 647 237 c 0,23,24
 699 292 699 292 734 349 c 128,-1,25
 769 406 769 406 786 469 c 1,26,-1
 788 479 l 2,27,28
 795 515 795 515 792.5 557.5 c 128,-1,29
 790 600 790 600 773 636 c 128,-1,30
 756 672 756 672 723 696.5 c 128,-1,31
 690 721 690 721 637 721 c 0,32,33
 595 721 595 721 554.5 705 c 128,-1,34
 514 689 514 689 480 670 c 1,35,-1
 481 670 l 1,36,37
 407 631 407 631 342 583.5 c 128,-1,38
 277 536 277 536 225.5 481 c 128,-1,39
 174 426 174 426 137 364 c 128,-1,40
 100 302 100 302 81 235 c 1,41,-1
 81 236 l 1,42,43
 79 230 79 230 78 223.5 c 128,-1,44
 77 217 77 217 75 210 c 0,45,46
 66 169 66 169 68 133 c 128,-1,47
 70 97 70 97 87.5 70.5 c 128,-1,48
 105 44 105 44 140.5 28.5 c 128,-1,49
 176 13 176 13 233 13 c 0,50,51
 282 13 282 13 329.5 28 c 128,-1,52
 377 43 377 43 422 63 c 1,53,-1
 423 63 l 2,54,55
 427 61 427 61 428 62 c 1,56,57
 431 57 431 57 435.5 50 c 128,-1,58
 440 43 440 43 446 34 c 0,0,1
515 571 m 0,59,60
 520 573 520 573 525.5 576 c 128,-1,61
 531 579 531 579 536 582 c 1,62,-1
 534 581 l 1,63,64
 548 587 548 587 563.5 593.5 c 128,-1,65
 579 600 579 600 591 600 c 0,66,67
 618 600 618 600 632.5 585.5 c 128,-1,68
 647 571 647 571 652.5 549.5 c 128,-1,69
 658 528 658 528 656.5 503.5 c 128,-1,70
 655 479 655 479 651 459 c 2,71,-1
 648 446 l 2,72,73
 645 438 645 438 638 421 c 128,-1,74
 631 404 631 404 620 383 c 128,-1,75
 609 362 609 362 596 340.5 c 128,-1,76
 583 319 583 319 569 301 c 128,-1,77
 555 283 555 283 541 271.5 c 128,-1,78
 527 260 527 260 515 260 c 0,79,80
 507 260 507 260 503 267.5 c 128,-1,81
 499 275 499 275 495 284 c 1,82,-1
 495 283 l 1,83,84
 489 300 489 300 479 313.5 c 128,-1,85
 469 327 469 327 443 327 c 0,86,87
 424 327 424 327 412.5 324 c 128,-1,88
 401 321 401 321 393.5 315 c 128,-1,89
 386 309 386 309 381.5 299.5 c 128,-1,90
 377 290 377 290 372 276 c 2,91,-1
 370 268 l 2,92,93
 366 251 366 251 369 237 c 128,-1,94
 372 223 372 223 376 210 c 0,95,96
 379 201 379 201 381 191 c 128,-1,97
 383 181 383 181 381 172 c 2,98,-1
 380 169 l 2,99,100
 377 160 377 160 363.5 154 c 128,-1,101
 350 148 350 148 332.5 143.5 c 128,-1,102
 315 139 315 139 297.5 137 c 128,-1,103
 280 135 280 135 270 135 c 0,104,105
 227 135 227 135 214 157.5 c 128,-1,106
 201 180 201 180 208 210 c 2,107,-1
 210 220 l 2,108,109
 223 270 223 270 250.5 320.5 c 128,-1,110
 278 371 278 371 317.5 417.5 c 128,-1,111
 357 464 357 464 407 503.5 c 128,-1,112
 457 543 457 543 515 571 c 0,59,60
EndSplineSet
EndChar

StartChar: R
Encoding: 82 82 59
Width: 632
Flags: W
LayerCount: 2
Fore
SplineSet
46 71 m 2,0,1
 47 63 47 63 49.5 54 c 128,-1,2
 52 45 52 45 57.5 37.5 c 128,-1,3
 63 30 63 30 71.5 25 c 128,-1,4
 80 20 80 20 92 20 c 0,5,6
 125 20 125 20 147 37.5 c 128,-1,7
 169 55 169 55 183 80.5 c 128,-1,8
 197 106 197 106 204.5 136 c 128,-1,9
 212 166 212 166 218 192 c 2,10,-1
 223 215 l 1,11,-1
 224 222 l 1,12,13
 231 225 231 225 240 225 c 1,14,15
 239 223 239 223 244 214.5 c 128,-1,16
 249 206 249 206 256 194 c 0,17,18
 268 171 268 171 285.5 143 c 128,-1,19
 303 115 303 115 328 90 c 128,-1,20
 353 65 353 65 387 48 c 128,-1,21
 421 31 421 31 467 31 c 0,22,23
 480 31 480 31 495.5 33 c 128,-1,24
 511 35 511 35 525.5 40 c 128,-1,25
 540 45 540 45 551 55 c 128,-1,26
 562 65 562 65 567 82 c 2,27,-1
 568 86 l 2,28,29
 571 100 571 100 566 110.5 c 128,-1,30
 561 121 561 121 550 129.5 c 128,-1,31
 539 138 539 138 523.5 145 c 128,-1,32
 508 152 508 152 491 160 c 0,33,34
 472 168 472 168 452.5 177 c 128,-1,35
 433 186 433 186 418 197.5 c 128,-1,36
 403 209 403 209 395 223.5 c 128,-1,37
 387 238 387 238 391 257 c 2,38,-1
 392 262 l 2,39,40
 394 266 394 266 413.5 279 c 128,-1,41
 433 292 433 292 464 311 c 0,42,43
 500 333 500 333 542 361.5 c 128,-1,44
 584 390 584 390 623 422.5 c 128,-1,45
 662 455 662 455 692 491.5 c 128,-1,46
 722 528 722 528 733 568 c 1,47,-1
 734 575 l 2,48,49
 743 615 743 615 727 643 c 128,-1,50
 711 671 711 671 680.5 688.5 c 128,-1,51
 650 706 650 706 608.5 713.5 c 128,-1,52
 567 721 567 721 525 721 c 0,53,54
 459 721 459 721 403 711.5 c 128,-1,55
 347 702 347 702 303 679.5 c 128,-1,56
 259 657 259 657 227 619.5 c 128,-1,57
 195 582 195 582 176 525 c 0,58,59
 172 513 172 513 163 485.5 c 128,-1,60
 154 458 154 458 145 427.5 c 128,-1,61
 136 397 136 397 128 370 c 128,-1,62
 120 343 120 343 118 332 c 2,63,-1
 111 312 l 1,64,-1
 112 314 l 1,65,66
 107 303 107 303 100 275 c 0,67,68
 98 267 98 267 95.5 258 c 128,-1,69
 93 249 93 249 89 239 c 2,70,-1
 80 203 l 1,71,-1
 75 177 l 2,72,73
 69 162 69 162 64 137 c 0,74,75
 63 132 63 132 61 125 c 128,-1,76
 59 118 59 118 57 111 c 0,77,78
 56 108 56 108 54.5 104 c 128,-1,79
 53 100 53 100 53 98 c 1,80,-1
 53 99 l 1,81,-1
 46 71 l 2,0,1
322 559 m 0,82,83
 328 575 328 575 350.5 587 c 128,-1,84
 373 599 373 599 400.5 606 c 128,-1,85
 428 613 428 613 456.5 616.5 c 128,-1,86
 485 620 485 620 503 620 c 0,87,88
 533 620 533 620 556 615 c 128,-1,89
 579 610 579 610 587 589 c 0,90,91
 586 586 586 586 585 583 c 128,-1,92
 584 580 584 580 583 575 c 2,93,-1
 580 559 l 2,94,95
 570 523 570 523 538 485.5 c 128,-1,96
 506 448 506 448 462 417 c 128,-1,97
 418 386 418 386 367 366 c 128,-1,98
 316 346 316 346 268 346 c 0,99,100
 265 346 265 346 261 345 c 128,-1,101
 257 344 257 344 258 344 c 1,102,-1
 257 344 l 1,103,104
 259 348 259 348 261 356 c 2,105,-1
 267 387 l 2,106,107
 279 431 279 431 291 470.5 c 128,-1,108
 303 510 303 510 322 559 c 0,82,83
EndSplineSet
EndChar

StartChar: S
Encoding: 83 83 60
Width: 604
Flags: W
LayerCount: 2
Fore
SplineSet
80 223 m 2,0,-1
 78 214 l 2,1,2
 67 160 67 160 80 123 c 128,-1,3
 93 86 93 86 123.5 63 c 128,-1,4
 154 40 154 40 199 30 c 128,-1,5
 244 20 244 20 296 20 c 0,6,7
 366 20 366 20 424.5 44 c 128,-1,8
 483 68 483 68 529 108.5 c 128,-1,9
 575 149 575 149 606 202 c 128,-1,10
 637 255 637 255 651 314 c 1,11,-1
 652 322 l 2,12,13
 661 366 661 366 644 397 c 128,-1,14
 627 428 627 428 595.5 450.5 c 128,-1,15
 564 473 564 473 523.5 488 c 128,-1,16
 483 503 483 503 445 515 c 0,17,18
 425 521 425 521 408 527 c 128,-1,19
 391 533 391 533 378.5 538.5 c 128,-1,20
 366 544 366 544 359 548.5 c 128,-1,21
 352 553 352 553 353 556 c 2,22,-1
 353 557 l 1,23,-1
 354 561 l 1,24,25
 398 596 398 596 444 622.5 c 128,-1,26
 490 649 490 649 541 649 c 0,27,28
 554 649 554 649 563.5 645.5 c 128,-1,29
 573 642 573 642 581 637 c 0,30,31
 592 631 592 631 603.5 626.5 c 128,-1,32
 615 622 615 622 630 622 c 0,33,34
 656 622 656 622 674 638 c 128,-1,35
 692 654 692 654 698 677 c 2,36,-1
 699 682 l 2,37,38
 704 706 704 706 695 726.5 c 128,-1,39
 686 747 686 747 669 761.5 c 128,-1,40
 652 776 652 776 629 784 c 128,-1,41
 606 792 606 792 583 792 c 0,42,43
 555 792 555 792 517.5 781 c 128,-1,44
 480 770 480 770 440 751 c 128,-1,45
 400 732 400 732 360 707 c 128,-1,46
 320 682 320 682 286.5 653.5 c 128,-1,47
 253 625 253 625 229.5 595 c 128,-1,48
 206 565 206 565 198 537 c 2,49,-1
 197 532 l 2,50,51
 191 502 191 502 202 482 c 128,-1,52
 213 462 213 462 235.5 448 c 128,-1,53
 258 434 258 434 289 425 c 128,-1,54
 320 416 320 416 353 407 c 0,55,56
 385 399 385 399 415.5 390 c 128,-1,57
 446 381 446 381 469 367.5 c 128,-1,58
 492 354 492 354 503.5 334 c 128,-1,59
 515 314 515 314 509 285 c 2,60,-1
 508 280 l 1,61,62
 489 211 489 211 439.5 176.5 c 128,-1,63
 390 142 390 142 317 142 c 0,64,65
 288 142 288 142 271 149 c 128,-1,66
 254 156 254 156 244.5 167.5 c 128,-1,67
 235 179 235 179 231 192.5 c 128,-1,68
 227 206 227 206 224 219 c 128,-1,69
 221 232 221 232 217 244.5 c 128,-1,70
 213 257 213 257 206.5 266 c 128,-1,71
 200 275 200 275 189 280.5 c 128,-1,72
 178 286 178 286 160 286 c 0,73,74
 93 286 93 286 80 223 c 2,0,-1
EndSplineSet
EndChar

StartChar: T
Encoding: 84 84 61
Width: 655
Flags: W
LayerCount: 2
Fore
SplineSet
214 72 m 2,0,1
 209 49 209 49 219.5 34.5 c 128,-1,2
 230 20 230 20 255 20 c 0,3,4
 277 20 277 20 291.5 25.5 c 128,-1,5
 306 31 306 31 316.5 40.5 c 128,-1,6
 327 50 327 50 334.5 64 c 128,-1,7
 342 78 342 78 350 95 c 128,-1,8
 358 112 358 112 364.5 128 c 128,-1,9
 371 144 371 144 378 161 c 0,10,11
 423 267 423 267 463.5 368 c 128,-1,12
 504 469 504 469 539 582 c 1,13,14
 551 599 551 599 580 604 c 128,-1,15
 609 609 609 609 640 613 c 0,16,17
 664 616 664 616 686.5 619.5 c 128,-1,18
 709 623 709 623 728 631 c 128,-1,19
 747 639 747 639 761 653 c 128,-1,20
 775 667 775 667 782 691 c 1,21,-1
 782 693 l 2,22,23
 783 699 783 699 782 707.5 c 128,-1,24
 781 716 781 716 777.5 724 c 128,-1,25
 774 732 774 732 768.5 738 c 128,-1,26
 763 744 763 744 754 744 c 2,27,-1
 689 744 l 1,28,29
 673 740 673 740 633 732 c 128,-1,30
 593 724 593 724 544.5 714.5 c 128,-1,31
 496 705 496 705 446 695.5 c 128,-1,32
 396 686 396 686 360 680 c 2,33,-1
 316 671 l 2,34,35
 308 669 308 669 291.5 667 c 128,-1,36
 275 665 275 665 257.5 663.5 c 128,-1,37
 240 662 240 662 224.5 660.5 c 128,-1,38
 209 659 209 659 203 659 c 0,39,40
 188 653 188 653 178.5 647.5 c 128,-1,41
 169 642 169 642 164 635 c 128,-1,42
 159 628 159 628 156.5 620 c 128,-1,43
 154 612 154 612 151 602 c 2,44,-1
 150 599 l 2,45,46
 147 584 147 584 148.5 570.5 c 128,-1,47
 150 557 150 557 175 547 c 1,48,-1
 187 547 l 2,49,50
 189 547 189 547 193 546.5 c 128,-1,51
 197 546 197 546 201 546 c 2,52,-1
 223 546 l 2,53,54
 244 546 244 546 260.5 546.5 c 128,-1,55
 277 547 277 547 293 548.5 c 128,-1,56
 309 550 309 550 327 552.5 c 128,-1,57
 345 555 345 555 368 560 c 0,58,59
 369 559 369 559 370 559 c 256,60,61
 371 559 371 559 372 558 c 2,62,-1
 368 543 l 2,63,64
 355 492 355 492 336.5 440.5 c 128,-1,65
 318 389 318 389 298 336 c 0,66,67
 278 285 278 285 260 236 c 128,-1,68
 242 187 242 187 228 133 c 2,69,-1
 221 101 l 2,70,71
 220 97 220 97 219.5 94 c 128,-1,72
 219 91 219 91 217 87 c 2,73,-1
 214 72 l 2,0,1
EndSplineSet
EndChar

StartChar: U
Encoding: 85 85 62
Width: 520
Flags: W
AnchorPoint: "top" 433 840 basechar 0
LayerCount: 2
Fore
SplineSet
121 362 m 0,0,1
 116 345 116 345 111 324 c 128,-1,2
 106 303 106 303 101 281 c 0,3,4
 92 237 92 237 87.5 191 c 128,-1,5
 83 145 83 145 92 107 c 128,-1,6
 101 69 101 69 127 44.5 c 128,-1,7
 153 20 153 20 206 20 c 0,8,9
 261 20 261 20 310 40 c 128,-1,10
 359 60 359 60 400.5 94 c 128,-1,11
 442 128 442 128 474.5 172.5 c 128,-1,12
 507 217 507 217 530 265 c 0,13,14
 538 288 538 288 544 308.5 c 128,-1,15
 550 329 550 329 555 348 c 1,16,-1
 555 347 l 1,17,18
 572 405 572 405 587 457 c 128,-1,19
 602 509 602 509 618 569 c 2,20,-1
 627 608 l 1,21,-1
 627 607 l 1,22,23
 630 617 630 617 632.5 626.5 c 128,-1,24
 635 636 635 636 637 644 c 0,25,26
 639 653 639 653 640.5 661.5 c 128,-1,27
 642 670 642 670 644 681 c 0,28,29
 646 689 646 689 647.5 700 c 128,-1,30
 649 711 649 711 651 722 c 0,31,32
 645 764 645 764 600 764 c 0,33,34
 571 764 571 764 549.5 749 c 128,-1,35
 528 734 528 734 520 708 c 2,36,-1
 515 692 l 2,37,38
 513 683 513 683 510 674 c 128,-1,39
 507 665 507 665 503 655 c 2,40,-1
 499 635 l 2,41,42
 496 625 496 625 493.5 615 c 128,-1,43
 491 605 491 605 489 595 c 0,44,45
 487 582 487 582 484 568.5 c 128,-1,46
 481 555 481 555 479 542 c 128,-1,47
 477 529 477 529 474.5 516.5 c 128,-1,48
 472 504 472 504 469 490 c 0,49,50
 467 479 467 479 465 470 c 128,-1,51
 463 461 463 461 460 451 c 0,52,53
 455 434 455 434 446 406 c 128,-1,54
 437 378 437 378 423.5 345.5 c 128,-1,55
 410 313 410 313 393.5 280.5 c 128,-1,56
 377 248 377 248 356.5 221.5 c 128,-1,57
 336 195 336 195 312 178 c 128,-1,58
 288 161 288 161 261 161 c 0,59,60
 243 161 243 161 235 174.5 c 128,-1,61
 227 188 227 188 225 208 c 128,-1,62
 223 228 223 228 226 252.5 c 128,-1,63
 229 277 229 277 234 299 c 2,64,-1
 247 360 l 2,65,66
 249 365 249 365 251 372.5 c 128,-1,67
 253 380 253 380 255 385 c 2,68,-1
 256 388 l 2,69,70
 259 399 259 399 267 420 c 128,-1,71
 275 441 275 441 284.5 467 c 128,-1,72
 294 493 294 493 305.5 521.5 c 128,-1,73
 317 550 317 550 327.5 575 c 128,-1,74
 338 600 338 600 346 620.5 c 128,-1,75
 354 641 354 641 359 650 c 1,76,-1
 359 649 l 1,77,-1
 364 661 l 2,78,79
 367 673 367 673 367 684 c 0,80,81
 367 696 367 696 363 705 c 128,-1,82
 359 714 359 714 350 719.5 c 128,-1,83
 341 725 341 725 325 725 c 0,84,85
 304 725 304 725 288 713 c 128,-1,86
 272 701 272 701 259 689 c 1,87,88
 211 603 211 603 177 526 c 128,-1,89
 143 449 143 449 121 362 c 0,0,1
EndSplineSet
EndChar

StartChar: V
Encoding: 86 86 63
Width: 508
Flags: W
LayerCount: 2
Fore
SplineSet
181 668 m 2,0,-1
 179 660 l 2,1,2
 178 657 178 657 177 645 c 128,-1,3
 176 633 176 633 176 621 c 0,4,5
 175 609 175 609 173.5 597 c 128,-1,6
 172 585 172 585 173 587 c 1,7,8
 172 579 172 579 170.5 571 c 128,-1,9
 169 563 169 563 168 555 c 1,10,-1
 168 556 l 1,11,12
 157 488 157 488 149 433 c 128,-1,13
 141 378 141 378 137.5 325.5 c 128,-1,14
 134 273 134 273 136.5 218 c 128,-1,15
 139 163 139 163 149 97 c 0,16,17
 151 84 151 84 155 70.5 c 128,-1,18
 159 57 159 57 166.5 45.5 c 128,-1,19
 174 34 174 34 186.5 27 c 128,-1,20
 199 20 199 20 218 20 c 0,21,22
 239 20 239 20 254.5 31.5 c 128,-1,23
 270 43 270 43 278 58 c 0,24,25
 313 119 313 119 346.5 179 c 128,-1,26
 380 239 380 239 414 300 c 0,27,28
 465 394 465 394 518.5 489 c 128,-1,29
 572 584 572 584 630 677 c 1,30,-1
 631 683 l 1,31,-1
 634 692 l 2,32,33
 635 694 635 694 635.5 695.5 c 128,-1,34
 636 697 636 697 637 699 c 0,35,36
 642 724 642 724 628.5 737.5 c 128,-1,37
 615 751 615 751 589 751 c 0,38,39
 557 751 557 751 524.5 719.5 c 128,-1,40
 492 688 492 688 460.5 638.5 c 128,-1,41
 429 589 429 589 399.5 529.5 c 128,-1,42
 370 470 370 470 343 413 c 0,43,44
 327 380 327 380 313 350.5 c 128,-1,45
 299 321 299 321 287.5 299 c 128,-1,46
 276 277 276 277 268.5 264 c 128,-1,47
 261 251 261 251 258 251 c 0,48,49
 252 251 252 251 250 264.5 c 128,-1,50
 248 278 248 278 249 299.5 c 128,-1,51
 250 321 250 321 252 346 c 128,-1,52
 254 371 254 371 257 393.5 c 128,-1,53
 260 416 260 416 263 433.5 c 128,-1,54
 266 451 266 451 267 456 c 0,55,56
 267 461 267 461 269 469 c 128,-1,57
 271 477 271 477 273 488 c 0,58,59
 278 511 278 511 284.5 539 c 128,-1,60
 291 567 291 567 297 592 c 0,61,62
 302 609 302 609 304.5 623 c 128,-1,63
 307 637 307 637 309 645 c 0,64,65
 310 658 310 658 309 671.5 c 128,-1,66
 308 685 308 685 302 695.5 c 128,-1,67
 296 706 296 706 285 712.5 c 128,-1,68
 274 719 274 719 255 719 c 0,69,70
 229 719 229 719 208 706.5 c 128,-1,71
 187 694 187 694 181 668 c 2,0,-1
EndSplineSet
EndChar

StartChar: W
Encoding: 87 87 64
Width: 767
Flags: W
LayerCount: 2
Fore
SplineSet
444 171 m 0,0,1
 453 147 453 147 464 120 c 128,-1,2
 475 93 475 93 489.5 71 c 128,-1,3
 504 49 504 49 524 34.5 c 128,-1,4
 544 20 544 20 572 20 c 0,5,6
 598 20 598 20 624.5 43 c 128,-1,7
 651 66 651 66 676.5 102 c 128,-1,8
 702 138 702 138 724.5 181 c 128,-1,9
 747 224 747 224 765 264.5 c 128,-1,10
 783 305 783 305 795.5 337.5 c 128,-1,11
 808 370 808 370 812 384 c 2,12,-1
 814 395 l 1,13,-1
 820 421 l 2,14,15
 822 426 822 426 823.5 431 c 128,-1,16
 825 436 825 436 827 443 c 0,17,18
 830 453 830 453 833.5 464.5 c 128,-1,19
 837 476 837 476 840 487 c 2,20,-1
 848 519 l 1,21,-1
 855 545 l 1,22,-1
 863 578 l 1,23,-1
 863 577 l 1,24,25
 868 594 868 594 872.5 614 c 128,-1,26
 877 634 877 634 882 653 c 0,27,28
 883 657 883 657 884 662 c 128,-1,29
 885 667 885 667 887 672 c 2,30,-1
 898 709 l 2,31,32
 898 722 898 722 897.5 734.5 c 128,-1,33
 897 747 897 747 892.5 757 c 128,-1,34
 888 767 888 767 877.5 773 c 128,-1,35
 867 779 867 779 849 779 c 0,36,37
 806 779 806 779 777 738 c 1,38,39
 761 668 761 668 743.5 599 c 128,-1,40
 726 530 726 530 704 461 c 128,-1,41
 682 392 682 392 653.5 324 c 128,-1,42
 625 256 625 256 586 188 c 0,43,44
 586 186 586 186 578 184 c 0,45,46
 567 184 567 184 560.5 208.5 c 128,-1,47
 554 233 554 233 551 263.5 c 128,-1,48
 548 294 548 294 547 321.5 c 128,-1,49
 546 349 546 349 546 356 c 1,50,-1
 545 355 l 1,51,52
 546 360 546 360 546.5 363.5 c 128,-1,53
 547 367 547 367 548 371 c 0,54,55
 550 384 550 384 555 401 c 128,-1,56
 560 418 560 418 567 438 c 0,57,58
 574 462 574 462 581.5 488 c 128,-1,59
 589 514 589 514 595 542 c 0,60,61
 601 569 601 569 602.5 592.5 c 128,-1,62
 604 616 604 616 599.5 633.5 c 128,-1,63
 595 651 595 651 582 661.5 c 128,-1,64
 569 672 569 672 546 672 c 0,65,66
 528 672 528 672 504 663 c 128,-1,67
 480 654 480 654 466 628 c 1,68,-1
 384 396 l 1,69,-1
 384 397 l 1,70,71
 382 391 382 391 372.5 375.5 c 128,-1,72
 363 360 363 360 349.5 340.5 c 128,-1,73
 336 321 336 321 320 299.5 c 128,-1,74
 304 278 304 278 288.5 260 c 128,-1,75
 273 242 273 242 260.5 230.5 c 128,-1,76
 248 219 248 219 241 219 c 1,77,78
 236 223 236 223 237 242.5 c 128,-1,79
 238 262 238 262 242 288 c 128,-1,80
 246 314 246 314 251.5 343 c 128,-1,81
 257 372 257 372 262 396 c 2,82,-1
 272 444 l 2,83,84
 280 469 280 469 290 495 c 128,-1,85
 300 521 300 521 311 548 c 0,86,87
 324 577 324 577 335.5 606 c 128,-1,88
 347 635 347 635 355 668 c 2,89,-1
 356 675 l 2,90,91
 361 699 361 699 354.5 713.5 c 128,-1,92
 348 728 348 728 313 728 c 0,93,94
 271 728 271 728 242 702 c 128,-1,95
 213 676 213 676 193 639.5 c 128,-1,96
 173 603 173 603 161 562.5 c 128,-1,97
 149 522 149 522 142 493 c 0,98,99
 140 486 140 486 138.5 480.5 c 128,-1,100
 137 475 137 475 136 470 c 1,101,-1
 136 471 l 1,102,103
 132 457 132 457 129 441.5 c 128,-1,104
 126 426 126 426 123 412 c 0,105,106
 109 345 109 345 101.5 280.5 c 128,-1,107
 94 216 94 216 92 149 c 1,108,-1
 92 152 l 1,109,110
 89 134 89 134 89 112 c 256,111,112
 89 90 89 90 96 70.5 c 128,-1,113
 103 51 103 51 118 38 c 128,-1,114
 133 25 133 25 160 25 c 0,115,116
 174 25 174 25 182.5 26.5 c 128,-1,117
 191 28 191 28 210 36 c 0,118,119
 238 52 238 52 267.5 76.5 c 128,-1,120
 297 101 297 101 325 128 c 128,-1,121
 353 155 353 155 378 181 c 128,-1,122
 403 207 403 207 422 227 c 1,123,124
 426 222 426 222 431 207 c 128,-1,125
 436 192 436 192 444 171 c 0,0,1
EndSplineSet
EndChar

StartChar: X
Encoding: 88 88 65
Width: 632
Flags: W
LayerCount: 2
Fore
SplineSet
48 80 m 2,0,-1
 47 74 l 2,1,2
 42 50 42 50 52.5 35 c 128,-1,3
 63 20 63 20 92 20 c 0,4,5
 107 20 107 20 120 25.5 c 128,-1,6
 133 31 133 31 144 40 c 2,7,-1
 274 201 l 1,8,9
 274 201 274 201 274.5 201.5 c 128,-1,10
 275 202 275 202 277 204 c 0,11,12
 283 211 283 211 292 221.5 c 128,-1,13
 301 232 301 232 310.5 242 c 128,-1,14
 320 252 320 252 328 259 c 128,-1,15
 336 266 336 266 339 266 c 2,16,-1
 357 242 l 2,17,18
 361 236 361 236 373.5 214.5 c 128,-1,19
 386 193 386 193 401 169 c 1,20,-1
 400 169 l 1,21,22
 409 154 409 154 418.5 137.5 c 128,-1,23
 428 121 428 121 436.5 107.5 c 128,-1,24
 445 94 445 94 450 85 c 128,-1,25
 455 76 455 76 455 75 c 0,26,27
 463 60 463 60 476.5 55 c 128,-1,28
 490 50 490 50 504 50 c 0,29,30
 524 50 524 50 543 61.5 c 128,-1,31
 562 73 562 73 568 96 c 2,32,-1
 571 107 l 1,33,34
 563 157 563 157 540 205.5 c 128,-1,35
 517 254 517 254 492 298 c 0,36,37
 482 317 482 317 473.5 333.5 c 128,-1,38
 465 350 465 350 458 366 c 0,39,40
 454 369 454 369 454 370 c 2,41,-1
 455 377 l 2,42,43
 456 380 456 380 460 384 c 0,44,45
 462 386 462 386 464 387.5 c 128,-1,46
 466 389 466 389 471 394 c 1,47,-1
 470 393 l 1,48,49
 480 401 480 401 501 421.5 c 128,-1,50
 522 442 522 442 542 460 c 0,51,52
 554 471 554 471 562.5 479.5 c 128,-1,53
 571 488 571 488 571 488 c 2,54,55
 580 496 580 496 593 507.5 c 128,-1,56
 606 519 606 519 623 532 c 0,57,58
 643 548 643 548 664.5 565.5 c 128,-1,59
 686 583 686 583 704.5 601 c 128,-1,60
 723 619 723 619 736.5 637 c 128,-1,61
 750 655 750 655 755 673 c 2,62,-1
 756 676 l 2,63,64
 760 696 760 696 750 713 c 128,-1,65
 740 730 740 730 714 730 c 0,66,67
 692 730 692 730 667 716.5 c 128,-1,68
 642 703 642 703 616 682 c 128,-1,69
 590 661 590 661 563.5 634.5 c 128,-1,70
 537 608 537 608 512 582 c 0,71,72
 480 551 480 551 455 526.5 c 128,-1,73
 430 502 430 502 419 497 c 1,74,-1
 414 503 l 1,75,-1
 409 508 l 2,76,77
 409 509 409 509 408 509 c 1,78,79
 408 509 408 509 408 509 c 1,80,-1
 408 511 l 1,81,-1
 407 510 l 1,82,83
 405 517 405 517 399 533.5 c 128,-1,84
 393 550 393 550 386.5 568 c 128,-1,85
 380 586 380 586 374.5 602 c 128,-1,86
 369 618 369 618 367 624 c 0,87,88
 365 628 365 628 363 632 c 128,-1,89
 361 636 361 636 360 638 c 0,90,91
 355 651 355 651 350 664.5 c 128,-1,92
 345 678 345 678 336.5 689.5 c 128,-1,93
 328 701 328 701 316 708.5 c 128,-1,94
 304 716 304 716 285 716 c 0,95,96
 250 716 250 716 233.5 700.5 c 128,-1,97
 217 685 217 685 207 656 c 0,98,99
 202 630 202 630 210 610.5 c 128,-1,100
 218 591 218 591 229 573 c 0,101,102
 232 568 232 568 234.5 564 c 128,-1,103
 237 560 237 560 238 558 c 0,104,105
 241 547 241 547 248.5 524.5 c 128,-1,106
 256 502 256 502 265.5 476.5 c 128,-1,107
 275 451 275 451 284.5 427.5 c 128,-1,108
 294 404 294 404 299 393 c 0,109,110
 297 391 297 391 299 390 c 0,111,112
 299 382 299 382 299 382 c 2,113,114
 299 378 299 378 296 375 c 0,115,116
 289 369 289 369 283 363.5 c 128,-1,117
 277 358 277 358 270 351 c 0,118,119
 240 323 240 323 205 290 c 128,-1,120
 170 257 170 257 138 221.5 c 128,-1,121
 106 186 106 186 81.5 149.5 c 128,-1,122
 57 113 57 113 48 80 c 2,0,-1
EndSplineSet
EndChar

StartChar: Y
Encoding: 89 89 66
Width: 524
Flags: W
AnchorPoint: "top" 433 840 basechar 0
LayerCount: 2
Fore
SplineSet
123 88 m 2,0,1
 121 77 121 77 120.5 65.5 c 128,-1,2
 120 54 120 54 123.5 43.5 c 128,-1,3
 127 33 127 33 137 26.5 c 128,-1,4
 147 20 147 20 165 20 c 0,5,6
 193 20 193 20 220.5 36 c 128,-1,7
 248 52 248 52 258 81 c 1,8,-1
 258 80 l 1,9,10
 274 119 274 119 288.5 154 c 128,-1,11
 303 189 303 189 319 223 c 128,-1,12
 335 257 335 257 355 290.5 c 128,-1,13
 375 324 375 324 401 360 c 1,14,-1
 399 359 l 1,15,16
 410 372 410 372 433 401.5 c 128,-1,17
 456 431 456 431 483 467 c 0,18,19
 502 492 502 492 522 518 c 128,-1,20
 542 544 542 544 560 567 c 128,-1,21
 578 590 578 590 592.5 608 c 128,-1,22
 607 626 607 626 616 636 c 0,23,24
 634 659 634 659 641 677 c 128,-1,25
 648 695 648 695 656 715 c 1,26,-1
 657 722 l 2,27,28
 662 743 662 743 655.5 758.5 c 128,-1,29
 649 774 649 774 618 774 c 0,30,31
 595 774 595 774 577.5 764.5 c 128,-1,32
 560 755 560 755 545.5 740.5 c 128,-1,33
 531 726 531 726 520 708 c 128,-1,34
 509 690 509 690 499 673 c 0,35,36
 486 654 486 654 484 647 c 0,37,38
 479 641 479 641 469 628 c 128,-1,39
 459 615 459 615 446 599.5 c 128,-1,40
 433 584 433 584 419 566.5 c 128,-1,41
 405 549 405 549 392 533 c 1,42,-1
 393 534 l 1,43,44
 371 508 371 508 352 483.5 c 128,-1,45
 333 459 333 459 325 449 c 1,46,47
 326 450 326 450 322 450 c 0,48,49
 319 450 319 450 314 450 c 2,50,-1
 311 450 l 2,51,52
 289 450 289 450 280.5 457.5 c 128,-1,53
 272 465 272 465 270 482 c 1,54,-1
 278 518 l 1,55,-1
 281 526 l 2,56,57
 286 548 286 548 294.5 566.5 c 128,-1,58
 303 585 303 585 312 604 c 0,59,60
 322 624 322 624 330.5 642 c 128,-1,61
 339 660 339 660 346 680 c 1,62,-1
 346 683 l 1,63,64
 351 706 351 706 340.5 726 c 128,-1,65
 330 746 330 746 301 746 c 0,66,67
 267 746 267 746 242 725.5 c 128,-1,68
 217 705 217 705 199.5 675.5 c 128,-1,69
 182 646 182 646 170.5 612.5 c 128,-1,70
 159 579 159 579 153 554 c 1,71,-1
 153 555 l 1,72,-1
 144 525 l 1,73,-1
 142 516 l 2,74,75
 136 489 136 489 139 466 c 128,-1,76
 142 443 142 443 149.5 423 c 128,-1,77
 157 403 157 403 167.5 386.5 c 128,-1,78
 178 370 178 370 188 356 c 0,79,80
 196 344 196 344 202.5 335 c 128,-1,81
 209 326 209 326 208 324 c 2,82,-1
 208 323 l 1,83,84
 201 297 201 297 189.5 268 c 128,-1,85
 178 239 178 239 166 210 c 128,-1,86
 154 181 154 181 142.5 151.5 c 128,-1,87
 131 122 131 122 123 89 c 1,88,-1
 123 88 l 2,0,1
EndSplineSet
EndChar

StartChar: Z
Encoding: 90 90 67
Width: 593
Flags: W
LayerCount: 2
Fore
SplineSet
48 88 m 2,0,1
 47 85 47 85 45 81 c 0,2,3
 40 60 40 60 48.5 49 c 128,-1,4
 57 38 57 38 71 27 c 1,5,-1
 75 20 l 1,6,-1
 102 20 l 2,7,8
 103 20 103 20 104.5 19.5 c 128,-1,9
 106 19 106 19 108 19 c 2,10,-1
 128 19 l 2,11,12
 162 19 162 19 198.5 26.5 c 128,-1,13
 235 34 235 34 273 45 c 1,14,-1
 285 45 l 1,15,-1
 291 49 l 1,16,-1
 299 51 l 1,17,-1
 298 50 l 1,18,19
 315 54 315 54 331 58 c 128,-1,20
 347 62 347 62 364 65 c 0,21,22
 388 70 388 70 412 72.5 c 128,-1,23
 436 75 436 75 459 77 c 0,24,25
 467 78 467 78 473 78 c 0,26,27
 480 78 480 78 487 79 c 1,28,-1
 486 79 l 1,29,30
 488 79 488 79 490 79.5 c 128,-1,31
 492 80 492 80 494 80 c 0,32,33
 497 81 497 81 500 81 c 2,34,-1
 516 81 l 2,35,36
 523 81 523 81 527 82 c 0,37,38
 529 82 529 82 531 82.5 c 128,-1,39
 533 83 533 83 535 83 c 0,40,41
 540 84 540 84 545 84 c 256,42,43
 550 84 550 84 553 84 c 0,44,45
 570 84 570 84 582 98 c 128,-1,46
 594 112 594 112 599 129 c 2,47,-1
 600 133 l 2,48,49
 605 153 605 153 592 169.5 c 128,-1,50
 579 186 579 186 562 193 c 1,51,-1
 507 193 l 2,52,53
 470 193 470 193 433.5 187 c 128,-1,54
 397 181 397 181 358 173 c 1,55,-1
 350 173 l 2,56,57
 344 170 344 170 344 170 c 1,58,-1
 342 170 l 1,59,60
 316 164 316 164 290.5 160 c 128,-1,61
 265 156 265 156 240 154 c 1,62,63
 247 168 247 168 260 184.5 c 128,-1,64
 273 201 273 201 289.5 217.5 c 128,-1,65
 306 234 306 234 324 251 c 128,-1,66
 342 268 342 268 359 283 c 1,67,-1
 359 284 l 1,68,-1
 364 284 l 1,69,70
 369 292 369 292 373 296 c 128,-1,71
 377 300 377 300 377 301 c 2,72,-1
 384 306 l 1,73,74
 398 321 398 321 421 339.5 c 128,-1,75
 444 358 444 358 470 378 c 0,76,77
 507 410 507 410 546 445 c 128,-1,78
 585 480 585 480 619.5 517.5 c 128,-1,79
 654 555 654 555 680 595.5 c 128,-1,80
 706 636 706 636 717 678 c 0,81,82
 725 714 725 714 709 732.5 c 128,-1,83
 693 751 693 751 651 751 c 0,84,85
 642 751 642 751 607.5 746.5 c 128,-1,86
 573 742 573 742 525.5 734 c 128,-1,87
 478 726 478 726 424.5 714.5 c 128,-1,88
 371 703 371 703 325.5 690 c 128,-1,89
 280 677 280 677 248.5 662 c 128,-1,90
 217 647 217 647 214 632 c 2,91,-1
 212 623 l 2,92,93
 208 604 208 604 215 593.5 c 128,-1,94
 222 583 222 583 251 572 c 1,95,96
 249 572 249 572 247 571.5 c 128,-1,97
 245 571 245 571 245 571 c 1,98,-1
 265 571 l 2,99,100
 267 571 267 571 268 570.5 c 128,-1,101
 269 570 269 570 270 570 c 2,102,-1
 282 570 l 2,103,104
 314 570 314 570 345.5 573.5 c 128,-1,105
 377 577 377 577 410 583 c 1,106,-1
 414 583 l 2,107,108
 415 583 415 583 415.5 583.5 c 128,-1,109
 416 584 416 584 418 584 c 0,110,111
 426 584 426 584 434 589 c 1,112,-1
 432 587 l 1,113,114
 433 587 433 587 433.5 587.5 c 128,-1,115
 434 588 434 588 434 588 c 2,116,117
 439 589 439 589 443.5 589.5 c 128,-1,118
 448 590 448 590 453 591 c 0,119,120
 470 593 470 593 489 595 c 128,-1,121
 508 597 508 597 525 598 c 1,122,123
 520 591 520 591 512.5 584 c 128,-1,124
 505 577 505 577 497 569 c 0,125,126
 493 566 493 566 490 563.5 c 128,-1,127
 487 561 487 561 486 559 c 2,128,-1
 485 558 l 1,129,-1
 473 549 l 1,130,-1
 468 542 l 1,131,-1
 248 333 l 1,132,-1
 230 316 l 1,133,-1
 225 309 l 1,134,-1
 221 305 l 1,135,-1
 220 304 l 1,136,-1
 214 304 l 1,137,-1
 208 291 l 1,138,139
 184 268 184 268 158.5 243.5 c 128,-1,140
 133 219 133 219 111 193 c 128,-1,141
 89 167 89 167 72 140.5 c 128,-1,142
 55 114 55 114 48 89 c 1,143,-1
 48 88 l 2,0,1
430 587 m 1,144,-1
 432 587 l 1,145,-1
 430 587 l 1,144,-1
EndSplineSet
EndChar

StartChar: bracketleft
Encoding: 91 91 68
Width: 382
Flags: W
LayerCount: 2
Fore
SplineSet
47 85 m 1,0,-1
 47 83 l 2,1,2
 44 72 44 72 47.5 61 c 128,-1,3
 51 50 51 50 58.5 41 c 128,-1,4
 66 32 66 32 76 26 c 128,-1,5
 86 20 86 20 97 20 c 2,6,-1
 259 20 l 2,7,8
 269 20 269 20 280 26 c 128,-1,9
 291 32 291 32 300.5 40 c 128,-1,10
 310 48 310 48 317 57.5 c 128,-1,11
 324 67 324 67 326 74 c 0,12,13
 327 82 327 82 325 93 c 128,-1,14
 323 104 323 104 318 114.5 c 128,-1,15
 313 125 313 125 305.5 132.5 c 128,-1,16
 298 140 298 140 289 140 c 2,17,-1
 196 140 l 1,18,-1
 194 142 l 1,19,-1
 198 158 l 2,20,21
 200 163 200 163 200 164 c 0,22,23
 200 166 200 166 201 168 c 2,24,-1
 203 178 l 2,25,26
 207 191 207 191 215 216.5 c 128,-1,27
 223 242 223 242 232.5 274.5 c 128,-1,28
 242 307 242 307 253.5 344.5 c 128,-1,29
 265 382 265 382 276 420 c 0,30,31
 287 457 287 457 298 494 c 128,-1,32
 309 531 309 531 319 562.5 c 128,-1,33
 329 594 329 594 336.5 619 c 128,-1,34
 344 644 344 644 349 659 c 0,35,36
 353 664 353 664 353 665 c 0,37,38
 353 667 353 667 351 668 c 1,39,-1
 450 668 l 2,40,41
 481 668 481 668 496.5 686.5 c 128,-1,42
 512 705 512 705 517 727 c 2,43,-1
 518 735 l 2,44,45
 521 749 521 749 517.5 758 c 128,-1,46
 514 767 514 767 494 778 c 0,47,48
 489 779 489 779 482.5 779.5 c 128,-1,49
 476 780 476 780 471 781 c 1,50,-1
 472 781 l 1,51,52
 454 784 454 784 439.5 786 c 128,-1,53
 425 788 425 788 411 789.5 c 128,-1,54
 397 791 397 791 382 791.5 c 128,-1,55
 367 792 367 792 348 792 c 2,56,-1
 308 792 l 1,57,58
 287 784 287 784 277 775 c 128,-1,59
 267 766 267 766 256 755 c 0,60,61
 254 753 254 753 252 750.5 c 128,-1,62
 250 748 250 748 249 747 c 0,63,64
 207 578 207 578 160.5 417.5 c 128,-1,65
 114 257 114 257 51 95 c 1,66,-1
 52 96 l 1,67,-1
 47 85 l 1,0,-1
EndSplineSet
EndChar

StartChar: backslash
Encoding: 92 92 69
Width: 427
Flags: W
LayerCount: 2
Fore
SplineSet
175 679 m 1,0,1
 180 662 180 662 188.5 625.5 c 128,-1,2
 197 589 197 589 207.5 543.5 c 128,-1,3
 218 498 218 498 229.5 447.5 c 128,-1,4
 241 397 241 397 251 351.5 c 128,-1,5
 261 306 261 306 269 269.5 c 128,-1,6
 277 233 277 233 280 215 c 0,7,8
 280 208 280 208 283 188.5 c 128,-1,9
 286 169 286 169 289.5 148 c 128,-1,10
 293 127 293 127 296.5 108.5 c 128,-1,11
 300 90 300 90 302 84 c 0,12,13
 304 58 304 58 317 39 c 128,-1,14
 330 20 330 20 363 20 c 0,15,16
 379 20 379 20 389 25 c 128,-1,17
 399 30 399 30 406 38 c 128,-1,18
 413 46 413 46 416.5 56 c 128,-1,19
 420 66 420 66 422 77 c 0,20,21
 423 80 423 80 424 83.5 c 128,-1,22
 425 87 425 87 426 89 c 0,23,24
 431 113 431 113 428 134 c 128,-1,25
 425 155 425 155 421 178 c 0,26,27
 420 180 420 180 420.5 181 c 128,-1,28
 421 182 421 182 420 183 c 1,29,-1
 420 182 l 1,30,31
 415 208 415 208 411.5 232 c 128,-1,32
 408 256 408 256 403 281 c 0,33,34
 381 404 381 404 356 520.5 c 128,-1,35
 331 637 331 637 288 754 c 0,36,37
 283 770 283 770 269 777 c 128,-1,38
 255 784 255 784 240 784 c 0,39,40
 223 784 223 784 212.5 778.5 c 128,-1,41
 202 773 202 773 195 765 c 128,-1,42
 188 757 188 757 184.5 746.5 c 128,-1,43
 181 736 181 736 178 726 c 2,44,-1
 177 721 l 2,45,46
 176 718 176 718 175.5 715.5 c 128,-1,47
 175 713 175 713 174 710 c 0,48,49
 172 701 172 701 172.5 694 c 128,-1,50
 173 687 173 687 176 678 c 1,51,-1
 175 679 l 1,0,1
EndSplineSet
EndChar

StartChar: bracketright
Encoding: 93 93 70
Width: 351
Flags: W
LayerCount: 2
Fore
SplineSet
41 75 m 2,0,1
 39 64 39 64 38 54 c 128,-1,2
 37 44 37 44 39.5 36.5 c 128,-1,3
 42 29 42 29 50 24.5 c 128,-1,4
 58 20 58 20 73 20 c 2,5,-1
 81 20 l 1,6,-1
 237 33 l 1,7,8
 251 41 251 41 265.5 53 c 128,-1,9
 280 65 280 65 288 83 c 0,10,11
 309 165 309 165 334.5 246.5 c 128,-1,12
 360 328 360 328 387 410 c 0,13,14
 413 489 413 489 438.5 568.5 c 128,-1,15
 464 648 464 648 485 731 c 1,16,-1
 485 729 l 1,17,-1
 487 736 l 1,18,-1
 496 778 l 1,19,20
 494 807 494 807 480.5 823 c 128,-1,21
 467 839 467 839 435 839 c 0,22,23
 412 839 412 839 385 833.5 c 128,-1,24
 358 828 358 828 330 820 c 0,25,26
 313 815 313 815 296 811 c 128,-1,27
 279 807 279 807 263 805 c 1,28,29
 240 791 240 791 228 777 c 128,-1,30
 216 763 216 763 209 740 c 2,31,-1
 207 731 l 2,32,33
 205 717 205 717 208.5 708 c 128,-1,34
 212 699 212 699 232 690 c 1,35,-1
 250 690 l 2,36,37
 253 690 253 690 255 689.5 c 128,-1,38
 257 689 257 689 260 689 c 2,39,-1
 264 689 l 2,40,41
 277 689 277 689 290 691.5 c 128,-1,42
 303 694 303 694 316 698 c 0,43,44
 325 700 325 700 335 702 c 128,-1,45
 345 704 345 704 354 705 c 1,46,-1
 344 665 l 2,47,48
 327 601 327 601 307 539 c 128,-1,49
 287 477 287 477 265 414 c 0,50,51
 244 351 244 351 223 287 c 128,-1,52
 202 223 202 223 185 160 c 1,53,54
 178 152 178 152 163.5 148.5 c 128,-1,55
 149 145 149 145 134 143 c 128,-1,56
 119 141 119 141 105 138 c 128,-1,57
 91 135 91 135 78.5 128 c 128,-1,58
 66 121 66 121 56.5 109 c 128,-1,59
 47 97 47 97 41 76 c 1,60,-1
 41 75 l 2,0,1
EndSplineSet
EndChar

StartChar: asciicircum
Encoding: 94 94 71
Width: 446
Flags: W
LayerCount: 2
Fore
SplineSet
365 562 m 1,0,1
 365 562 365 562 365 562 c 1,2,3
 366 562 366 562 368 561 c 2,4,-1
 436 471 l 2,5,6
 445 461 445 461 462 461 c 2,7,-1
 473 461 l 2,8,9
 482 461 482 461 491.5 464.5 c 128,-1,10
 501 468 501 468 509.5 474 c 128,-1,11
 518 480 518 480 524.5 488 c 128,-1,12
 531 496 531 496 533 505 c 2,13,-1
 534 508 l 2,14,15
 534 512 534 512 536 516 c 0,16,17
 536 521 536 521 535.5 526 c 128,-1,18
 535 531 535 531 533 533 c 0,19,20
 516 557 516 557 496.5 586 c 128,-1,21
 477 615 477 615 461 642 c 0,22,23
 460 644 460 644 457.5 647.5 c 128,-1,24
 455 651 455 651 453 656 c 0,25,26
 445 670 445 670 435.5 684.5 c 128,-1,27
 426 699 426 699 414 699 c 2,28,-1
 395 699 l 2,29,30
 393 699 393 699 372.5 688.5 c 128,-1,31
 352 678 352 678 324.5 664 c 128,-1,32
 297 650 297 650 268.5 634.5 c 128,-1,33
 240 619 240 619 224 609 c 0,34,35
 218 605 218 605 213 603 c 0,36,37
 197 595 197 595 185 588 c 128,-1,38
 173 581 173 581 164 572.5 c 128,-1,39
 155 564 155 564 148.5 553 c 128,-1,40
 142 542 142 542 137 525 c 2,41,-1
 131 500 l 1,42,43
 144 471 144 471 174 471 c 0,44,45
 198 471 198 471 223.5 485 c 128,-1,46
 249 499 249 499 275 518 c 0,47,48
 298 535 298 535 321 548.5 c 128,-1,49
 344 562 344 562 365 562 c 1,0,1
EndSplineSet
EndChar

StartChar: underscore
Encoding: 95 95 72
Width: 701
Flags: W
LayerCount: 2
Fore
SplineSet
30 -16 m 2,0,-1
 29 -18 l 1,1,2
 26 -34 26 -34 41 -41.5 c 128,-1,3
 56 -49 56 -49 74 -52 c 2,4,-1
 521 -52 l 2,5,6
 526 -52 526 -52 540 -51.5 c 128,-1,7
 554 -51 554 -51 569 -50 c 128,-1,8
 584 -49 584 -49 597.5 -48 c 128,-1,9
 611 -47 611 -47 619 -47 c 0,10,11
 637 -39 637 -39 657 -28 c 128,-1,12
 677 -17 677 -17 681 -1 c 2,13,-1
 682 3 l 2,14,15
 684 11 684 11 680.5 15 c 128,-1,16
 677 19 677 19 662 27 c 1,17,-1
 622 27 l 1,18,-1
 530 27 l 2,19,20
 510 27 510 27 488 27 c 256,21,22
 466 27 466 27 443 28 c 128,-1,23
 420 29 420 29 397 29 c 256,24,25
 374 29 374 29 352 29 c 0,26,27
 326 29 326 29 303.5 29.5 c 128,-1,28
 281 30 281 30 262 30 c 2,29,-1
 185 30 l 2,30,31
 167 30 167 30 142 28.5 c 128,-1,32
 117 27 117 27 94 22.5 c 128,-1,33
 71 18 71 18 53 8.5 c 128,-1,34
 35 -1 35 -1 30 -16 c 2,0,-1
EndSplineSet
EndChar

StartChar: grave
Encoding: 96 96 73
Width: 257
Flags: W
AnchorPoint: "top" 313 707 mark 0
LayerCount: 2
Fore
SplineSet
385 699 m 2,0,1
 385 701 385 701 386 702.5 c 128,-1,2
 387 704 387 704 387 706 c 2,3,-1
 389 715 l 2,4,5
 392 728 392 728 390 751 c 128,-1,6
 388 774 388 774 380 797 c 128,-1,7
 372 820 372 820 355.5 837 c 128,-1,8
 339 854 339 854 313 854 c 0,9,10
 293 854 293 854 279.5 844.5 c 128,-1,11
 266 835 266 835 264 822 c 2,12,-1
 263 819 l 2,13,14
 260 804 260 804 264.5 792.5 c 128,-1,15
 269 781 269 781 274 769 c 0,16,17
 277 762 277 762 280 756 c 128,-1,18
 283 750 283 750 284 744 c 0,19,20
 285 742 285 742 284.5 740 c 128,-1,21
 284 738 284 738 285 735 c 0,22,23
 285 726 285 726 286.5 715 c 128,-1,24
 288 704 288 704 292.5 695 c 128,-1,25
 297 686 297 686 306.5 679.5 c 128,-1,26
 316 673 316 673 334 673 c 0,27,28
 346 673 346 673 356.5 676.5 c 128,-1,29
 367 680 367 680 375 685 c 2,30,-1
 385 699 l 2,0,1
EndSplineSet
EndChar

StartChar: a
Encoding: 97 97 74
Width: 525
Flags: W
AnchorPoint: "top" 487 867 basechar 0
LayerCount: 2
Fore
SplineSet
355 54 m 1,0,1
 357 30 357 30 364 25 c 128,-1,2
 371 20 371 20 389 20 c 2,3,-1
 401 20 l 2,4,5
 426 20 426 20 442.5 30 c 128,-1,6
 459 40 459 40 469.5 55.5 c 128,-1,7
 480 71 480 71 487 89 c 128,-1,8
 494 107 494 107 499 124 c 0,9,10
 500 126 500 126 500 127 c 0,11,12
 500 129 500 129 502 131 c 1,13,-1
 502 130 l 1,14,15
 504 135 504 135 505 140.5 c 128,-1,16
 506 146 506 146 508 153 c 0,17,18
 510 164 510 164 511.5 175.5 c 128,-1,19
 513 187 513 187 515 198 c 0,20,21
 517 207 517 207 518.5 216 c 128,-1,22
 520 225 520 225 522 235 c 2,23,-1
 526 255 l 1,24,-1
 536 280 l 1,25,-1
 536 282 l 1,26,27
 553 293 553 293 561.5 302.5 c 128,-1,28
 570 312 570 312 576 332 c 1,29,-1
 576 336 l 1,30,31
 581 354 581 354 576 366 c 128,-1,32
 571 378 571 378 564 389 c 1,33,-1
 563 388 l 1,34,35
 560 393 560 393 556.5 397.5 c 128,-1,36
 553 402 553 402 553 409 c 1,37,-1
 553 407 l 1,38,39
 553 415 553 415 555 434 c 128,-1,40
 557 453 557 453 559 473.5 c 128,-1,41
 561 494 561 494 563 512 c 128,-1,42
 565 530 565 530 567 538 c 0,43,44
 568 540 568 540 567.5 541 c 128,-1,45
 567 542 567 542 568 544 c 0,46,47
 570 555 570 555 571.5 567.5 c 128,-1,48
 573 580 573 580 577 596 c 0,49,50
 583 626 583 626 585 658 c 128,-1,51
 587 690 587 690 581 716.5 c 128,-1,52
 575 743 575 743 558 760.5 c 128,-1,53
 541 778 541 778 509 778 c 0,54,55
 491 778 491 778 470 768 c 128,-1,56
 449 758 449 758 429.5 744.5 c 128,-1,57
 410 731 410 731 392.5 717 c 128,-1,58
 375 703 375 703 365 694 c 2,59,-1
 357 687 l 2,60,61
 294 636 294 636 247 571 c 128,-1,62
 200 506 200 506 165.5 436 c 128,-1,63
 131 366 131 366 107 295 c 128,-1,64
 83 224 83 224 66 162 c 2,65,-1
 61 138 l 2,66,67
 58 124 58 124 57 110 c 128,-1,68
 56 96 56 96 59.5 84.5 c 128,-1,69
 63 73 63 73 73.5 65.5 c 128,-1,70
 84 58 84 58 104 58 c 0,71,72
 138 58 138 58 165 87 c 0,73,74
 171 95 171 95 173 102 c 128,-1,75
 175 109 175 109 177 119 c 128,-1,76
 179 129 179 129 182.5 141.5 c 128,-1,77
 186 154 186 154 189.5 166 c 128,-1,78
 193 178 193 178 195.5 187.5 c 128,-1,79
 198 197 198 197 200 202 c 0,80,81
 202 209 202 209 205 216 c 128,-1,82
 208 223 208 223 213 226 c 0,83,84
 257 233 257 233 299.5 237 c 128,-1,85
 342 241 342 241 385 241 c 0,86,87
 386 241 386 241 389 240.5 c 128,-1,88
 392 240 392 240 396 240 c 1,89,-1
 395 233 l 2,90,91
 393 227 393 227 392.5 220.5 c 128,-1,92
 392 214 392 214 390 206 c 128,-1,93
 388 198 388 198 386.5 189 c 128,-1,94
 385 180 385 180 383 171 c 2,95,-1
 374 125 l 2,96,97
 372 120 372 120 371 115 c 128,-1,98
 370 110 370 110 367 104 c 0,99,100
 364 84 364 84 359 70 c 0,101,102
 358 67 358 67 357 64 c 128,-1,103
 356 61 356 61 356 59 c 2,104,-1
 355 54 l 1,0,1
454 603 m 0,105,106
 458 603 458 603 457.5 588 c 128,-1,107
 457 573 457 573 453.5 550.5 c 128,-1,108
 450 528 450 528 445 502 c 128,-1,109
 440 476 440 476 436 454 c 2,110,-1
 423 397 l 2,111,112
 421 392 421 392 420 387.5 c 128,-1,113
 419 383 419 383 417 378 c 2,114,-1
 414 362 l 1,115,116
 404 354 404 354 388 350 c 128,-1,117
 372 346 372 346 354 344.5 c 128,-1,118
 336 343 336 343 319 342.5 c 128,-1,119
 302 342 302 342 292 342 c 2,120,-1
 271 342 l 2,121,122
 265 342 265 342 260.5 344 c 128,-1,123
 256 346 256 346 257 351 c 0,124,125
 260 361 260 361 272.5 383.5 c 128,-1,126
 285 406 285 406 302 434 c 128,-1,127
 319 462 319 462 339.5 492 c 128,-1,128
 360 522 360 522 381 546.5 c 128,-1,129
 402 571 402 571 421 587 c 128,-1,130
 440 603 440 603 454 603 c 0,105,106
EndSplineSet
EndChar

StartChar: b
Encoding: 98 98 75
Width: 627
Flags: W
LayerCount: 2
Fore
SplineSet
54 102 m 2,0,1
 49 77 49 77 61.5 61 c 128,-1,2
 74 45 74 45 95 36 c 128,-1,3
 116 27 116 27 140 23.5 c 128,-1,4
 164 20 164 20 181 20 c 0,5,6
 216 20 216 20 262.5 30.5 c 128,-1,7
 309 41 309 41 360 59.5 c 128,-1,8
 411 78 411 78 462 104.5 c 128,-1,9
 513 131 513 131 556 162 c 128,-1,10
 599 193 599 193 629.5 228 c 128,-1,11
 660 263 660 263 671 300 c 1,12,-1
 672 306 l 2,13,14
 678 336 678 336 671.5 356 c 128,-1,15
 665 376 665 376 651 389.5 c 128,-1,16
 637 403 637 403 617.5 412 c 128,-1,17
 598 421 598 421 578 429 c 0,18,19
 560 437 560 437 545.5 443.5 c 128,-1,20
 531 450 531 450 524 458 c 1,21,22
 527 460 527 460 530.5 462 c 128,-1,23
 534 464 534 464 541 469 c 1,24,-1
 539 468 l 1,25,26
 561 482 561 482 585 498 c 128,-1,27
 609 514 609 514 630.5 532.5 c 128,-1,28
 652 551 652 551 668.5 573 c 128,-1,29
 685 595 685 595 692 620 c 2,30,-1
 693 625 l 2,31,32
 698 649 698 649 691.5 668.5 c 128,-1,33
 685 688 685 688 670.5 702.5 c 128,-1,34
 656 717 656 717 635.5 726.5 c 128,-1,35
 615 736 615 736 593 740 c 1,36,-1
 551 740 l 2,37,38
 545 740 545 740 539.5 740.5 c 128,-1,39
 534 741 534 741 529 741 c 2,40,-1
 513 741 l 2,41,42
 491 741 491 741 460.5 740.5 c 128,-1,43
 430 740 430 740 396 736 c 128,-1,44
 362 732 362 732 327.5 724.5 c 128,-1,45
 293 717 293 717 263.5 703 c 128,-1,46
 234 689 234 689 212.5 667 c 128,-1,47
 191 645 191 645 183 614 c 0,48,49
 181 606 181 606 181 600 c 2,50,-1
 178 588 l 1,51,-1
 209 552 l 1,52,-1
 206 536 l 1,53,-1
 203 520 l 1,54,-1
 197 505 l 1,55,56
 171 402 171 402 135.5 307.5 c 128,-1,57
 100 213 100 213 58 115 c 1,58,-1
 54 102 l 2,0,1
201 158 m 1,59,60
 204 173 204 173 205 175 c 2,61,-1
 206 180 l 2,62,63
 209 189 209 189 217 210 c 128,-1,64
 225 231 225 231 234.5 255 c 128,-1,65
 244 279 244 279 253 300.5 c 128,-1,66
 262 322 262 322 266 331 c 1,67,-1
 266 330 l 1,68,69
 269 337 269 337 276 343.5 c 128,-1,70
 283 350 283 350 292 353 c 2,71,-1
 354 353 l 2,72,73
 372 353 372 353 404 351 c 128,-1,74
 436 349 436 349 466 343 c 128,-1,75
 496 337 496 337 516.5 326 c 128,-1,76
 537 315 537 315 533 297 c 1,77,-1
 533 296 l 1,78,79
 523 261 523 261 487 233 c 128,-1,80
 451 205 451 205 404.5 185 c 128,-1,81
 358 165 358 165 310 154.5 c 128,-1,82
 262 144 262 144 228 144 c 2,83,-1
 218 144 l 2,84,85
 213 144 213 144 210 144 c 0,86,87
 208 144 208 144 199 146 c 2,88,-1
 197 147 l 1,89,-1
 199 154 l 1,90,-1
 201 158 l 1,59,60
327 481 m 2,91,92
 329 489 329 489 330.5 499 c 128,-1,93
 332 509 332 509 334 518 c 2,94,-1
 345 570 l 1,95,-1
 349 584 l 2,96,97
 352 598 352 598 371 606.5 c 128,-1,98
 390 615 390 615 413.5 619.5 c 128,-1,99
 437 624 437 624 460 625.5 c 128,-1,100
 483 627 483 627 495 627 c 0,101,102
 499 627 499 627 509 626 c 128,-1,103
 519 625 519 625 528.5 623 c 128,-1,104
 538 621 538 621 546 617.5 c 128,-1,105
 554 614 554 614 554 610 c 1,106,107
 554 611 554 611 546 604 c 1,108,-1
 549 606 l 1,109,110
 531 592 531 592 503 570.5 c 128,-1,111
 475 549 475 549 444 528.5 c 128,-1,112
 413 508 413 508 381.5 493 c 128,-1,113
 350 478 350 478 326 477 c 1,114,-1
 327 481 l 2,91,92
518 454 m 1,115,116
 518 454 518 454 518 454 c 1,117,118
 518 455 518 455 519 455 c 1,119,-1
 518 454 l 1,115,116
EndSplineSet
EndChar

StartChar: c
Encoding: 99 99 76
Width: 614
Flags: W
LayerCount: 2
Fore
SplineSet
87 255 m 2,0,-1
 84 239 l 2,1,2
 71 177 71 177 79.5 135 c 128,-1,3
 88 93 88 93 116.5 67.5 c 128,-1,4
 145 42 145 42 192 31 c 128,-1,5
 239 20 239 20 302 20 c 0,6,7
 322 20 322 20 352.5 25 c 128,-1,8
 383 30 383 30 417.5 40 c 128,-1,9
 452 50 452 50 487.5 64 c 128,-1,10
 523 78 523 78 553 95.5 c 128,-1,11
 583 113 583 113 604 134 c 128,-1,12
 625 155 625 155 632 178 c 1,13,-1
 632 181 l 1,14,15
 637 204 637 204 624.5 218 c 128,-1,16
 612 232 612 232 585 232 c 0,17,18
 557 232 557 232 526.5 217.5 c 128,-1,19
 496 203 496 203 461 185 c 0,20,21
 424 165 424 165 382.5 146.5 c 128,-1,22
 341 128 341 128 297 128 c 0,23,24
 270 128 270 128 252 137.5 c 128,-1,25
 234 147 234 147 224.5 163 c 128,-1,26
 215 179 215 179 213.5 200 c 128,-1,27
 212 221 212 221 217 244 c 0,28,29
 219 252 219 252 221 257 c 0,30,31
 234 311 234 311 264 360.5 c 128,-1,32
 294 410 294 410 334.5 455 c 128,-1,33
 375 500 375 500 424.5 540 c 128,-1,34
 474 580 474 580 526 616 c 0,35,36
 534 622 534 622 537.5 623 c 128,-1,37
 541 624 541 624 548 624 c 0,38,39
 563 624 563 624 564.5 612 c 128,-1,40
 566 600 566 600 564 585 c 0,41,42
 563 571 563 571 563 558 c 256,43,44
 563 545 563 545 567.5 534.5 c 128,-1,45
 572 524 572 524 583 517.5 c 128,-1,46
 594 511 594 511 615 511 c 0,47,48
 634 511 634 511 646 516.5 c 128,-1,49
 658 522 658 522 665.5 531.5 c 128,-1,50
 673 541 673 541 677.5 553.5 c 128,-1,51
 682 566 682 566 687 580 c 2,52,-1
 690 594 l 2,53,54
 695 618 695 618 695.5 647.5 c 128,-1,55
 696 677 696 677 688 703 c 128,-1,56
 680 729 680 729 662.5 746.5 c 128,-1,57
 645 764 645 764 614 764 c 0,58,59
 573 764 573 764 529 746.5 c 128,-1,60
 485 729 485 729 441 700 c 128,-1,61
 397 671 397 671 354.5 634 c 128,-1,62
 312 597 312 597 275 558.5 c 128,-1,63
 238 520 238 520 207.5 483 c 128,-1,64
 177 446 177 446 156 417 c 0,65,66
 127 377 127 377 112.5 335 c 128,-1,67
 98 293 98 293 87 255 c 2,0,-1
EndSplineSet
EndChar

StartChar: d
Encoding: 100 100 77
Width: 673
Flags: W
LayerCount: 2
Fore
SplineSet
82 73 m 1,0,-1
 81 71 l 1,1,2
 78 55 78 55 87 37.5 c 128,-1,3
 96 20 96 20 115 20 c 2,4,-1
 157 20 l 2,5,6
 256 20 256 20 352 54.5 c 128,-1,7
 448 89 448 89 528 149 c 128,-1,8
 608 209 608 209 666.5 289 c 128,-1,9
 725 369 725 369 749 459 c 1,10,-1
 748 458 l 1,11,-1
 752 471 l 1,12,-1
 756 488 l 1,13,-1
 764 522 l 1,14,15
 764 582 764 582 729 628.5 c 128,-1,16
 694 675 694 675 640 707.5 c 128,-1,17
 586 740 586 740 521.5 756.5 c 128,-1,18
 457 773 457 773 398 773 c 0,19,20
 373 773 373 773 337 764 c 128,-1,21
 301 755 301 755 266 738 c 128,-1,22
 231 721 231 721 203.5 696.5 c 128,-1,23
 176 672 176 672 167 641 c 2,24,-1
 166 637 l 2,25,26
 162 617 162 617 171 604.5 c 128,-1,27
 180 592 180 592 202 592 c 0,28,29
 211 592 211 592 219 593 c 128,-1,30
 227 594 227 594 236 597 c 0,31,32
 240 599 240 599 245 599.5 c 128,-1,33
 250 600 250 600 255 600 c 0,34,35
 258 600 258 600 259 596 c 128,-1,36
 260 592 260 592 259.5 586 c 128,-1,37
 259 580 259 580 258 574 c 128,-1,38
 257 568 257 568 256 565 c 1,39,-1
 256 566 l 1,40,-1
 243 518 l 1,41,-1
 239 500 l 2,42,43
 239 493 239 493 234 486 c 2,44,-1
 199 346 l 1,45,-1
 199 348 l 1,46,47
 195 337 195 337 192.5 328.5 c 128,-1,48
 190 320 190 320 187 312 c 2,49,-1
 171 244 l 2,50,51
 171 243 171 243 167.5 234.5 c 128,-1,52
 164 226 164 226 160 215 c 128,-1,53
 156 204 156 204 152 193.5 c 128,-1,54
 148 183 148 183 146 178 c 0,55,56
 142 168 142 168 134 157 c 128,-1,57
 126 146 126 146 118 135 c 0,58,59
 105 119 105 119 95 104 c 128,-1,60
 85 89 85 89 82 73 c 1,0,-1
291 205 m 0,61,62
 305 266 305 266 318 320.5 c 128,-1,63
 331 375 331 375 346 432 c 2,64,-1
 379 554 l 2,65,66
 381 564 381 564 383.5 574.5 c 128,-1,67
 386 585 386 585 388 593 c 2,68,-1
 398 632 l 1,69,-1
 400 633 l 1,70,-1
 404 633 l 1,71,-1
 412 633 l 2,72,73
 461 633 461 633 503.5 620.5 c 128,-1,74
 546 608 546 608 574.5 584 c 128,-1,75
 603 560 603 560 615.5 525.5 c 128,-1,76
 628 491 628 491 619 447 c 2,77,-1
 618 440 l 2,78,79
 611 418 611 418 593 388.5 c 128,-1,80
 575 359 575 359 549.5 327 c 128,-1,81
 524 295 524 295 492.5 263.5 c 128,-1,82
 461 232 461 232 427 207.5 c 128,-1,83
 393 183 393 183 359.5 167.5 c 128,-1,84
 326 152 326 152 296 152 c 0,85,86
 284 152 284 152 281 163 c 1,87,88
 283 174 283 174 286 184.5 c 128,-1,89
 289 195 289 195 291 205 c 0,61,62
EndSplineSet
EndChar

StartChar: e
Encoding: 101 101 78
Width: 641
Flags: W
AnchorPoint: "top" 487 847 basechar 0
LayerCount: 2
Fore
SplineSet
56 106 m 1,0,-1
 51 87 l 2,1,2
 46 64 46 64 53.5 50.5 c 128,-1,3
 61 37 61 37 75.5 30.5 c 128,-1,4
 90 24 90 24 109 22 c 128,-1,5
 128 20 128 20 146 20 c 2,6,-1
 179 20 l 2,7,8
 195 20 195 20 234.5 26 c 128,-1,9
 274 32 274 32 324 44 c 128,-1,10
 374 56 374 56 429.5 72.5 c 128,-1,11
 485 89 485 89 532 109.5 c 128,-1,12
 579 130 579 130 612.5 154.5 c 128,-1,13
 646 179 646 179 653 206 c 2,14,-1
 654 211 l 2,15,16
 659 235 659 235 650.5 249.5 c 128,-1,17
 642 264 642 264 612 264 c 0,18,19
 591 264 591 264 569.5 255.5 c 128,-1,20
 548 247 548 247 527 234 c 0,21,22
 519 229 519 229 509 224 c 128,-1,23
 499 219 499 219 490 215 c 0,24,25
 429 186 429 186 359.5 163.5 c 128,-1,26
 290 141 290 141 224 141 c 2,27,-1
 209 141 l 1,28,-1
 218 179 l 1,29,-1
 218 178 l 1,30,31
 225 202 225 202 230.5 221 c 128,-1,32
 236 240 236 240 242 259 c 128,-1,33
 248 278 248 278 254.5 299 c 128,-1,34
 261 320 261 320 270 348 c 1,35,36
 284 356 284 356 325.5 359 c 128,-1,37
 367 362 367 362 421 364 c 0,38,39
 468 365 468 365 517.5 368.5 c 128,-1,40
 567 372 567 372 608.5 380 c 128,-1,41
 650 388 650 388 679 403 c 128,-1,42
 708 418 708 418 715 444 c 2,43,-1
 716 448 l 2,44,45
 728 501 728 501 669 501 c 0,46,47
 634 501 634 501 602 497.5 c 128,-1,48
 570 494 570 494 537 490 c 0,49,50
 532 490 532 490 526 490 c 0,51,52
 521 490 521 490 516 489 c 1,53,-1
 517 489 l 1,54,55
 479 484 479 484 440.5 480.5 c 128,-1,56
 402 477 402 477 366 477 c 2,57,-1
 350 477 l 2,58,59
 337 477 337 477 325 477.5 c 128,-1,60
 313 478 313 478 307 483 c 1,61,-1
 308 490 l 1,62,-1
 309 495 l 2,63,64
 309 496 309 496 309.5 496.5 c 128,-1,65
 310 497 310 497 310 499 c 2,66,-1
 311 503 l 2,67,68
 321 541 321 541 335 563.5 c 128,-1,69
 349 586 349 586 369.5 599 c 128,-1,70
 390 612 390 612 418.5 617 c 128,-1,71
 447 622 447 622 488 624 c 0,72,73
 500 624 500 624 528.5 624.5 c 128,-1,74
 557 625 557 625 589 627 c 0,75,76
 625 629 625 629 654 630.5 c 128,-1,77
 683 632 683 632 697 632 c 0,78,79
 717 633 717 633 737.5 646 c 128,-1,80
 758 659 758 659 762 679 c 2,81,-1
 763 683 l 2,82,83
 768 707 768 707 759 721.5 c 128,-1,84
 750 736 750 736 732 744.5 c 128,-1,85
 714 753 714 753 691 755.5 c 128,-1,86
 668 758 668 758 646 758 c 2,87,-1
 619 758 l 2,88,89
 611 758 611 758 605 758 c 0,90,91
 600 758 600 758 595 757 c 0,92,93
 591 757 591 757 588.5 756.5 c 128,-1,94
 586 756 586 756 583 756 c 2,95,-1
 574 756 l 2,96,97
 492 756 492 756 412.5 744.5 c 128,-1,98
 333 733 333 733 248 707 c 0,99,100
 216 695 216 695 206.5 680.5 c 128,-1,101
 197 666 197 666 191 646 c 0,102,103
 189 641 189 641 188.5 637 c 128,-1,104
 188 633 188 633 186 628 c 0,105,106
 183 611 183 611 184 597.5 c 128,-1,107
 185 584 185 584 193 567 c 1,108,-1
 103 223 l 2,109,110
 99 217 99 217 94.5 206 c 128,-1,111
 90 195 90 195 85 182 c 128,-1,112
 80 169 80 169 75 155 c 128,-1,113
 70 141 70 141 67 130 c 0,114,115
 65 125 65 125 63.5 121.5 c 128,-1,116
 62 118 62 118 60 114 c 2,117,-1
 60 111 l 1,118,-1
 56 106 l 1,0,-1
EndSplineSet
EndChar

StartChar: f
Encoding: 102 102 79
Width: 645
Flags: W
LayerCount: 2
Fore
SplineSet
54 106 m 2,0,-1
 51 95 l 2,1,2
 44 64 44 64 53 42 c 128,-1,3
 62 20 62 20 100 20 c 0,4,5
 120 20 120 20 138.5 38 c 128,-1,6
 157 56 157 56 173 84 c 128,-1,7
 189 112 189 112 203.5 146 c 128,-1,8
 218 180 218 180 231 213 c 0,9,10
 235 222 235 222 238 229.5 c 128,-1,11
 241 237 241 237 243 245 c 0,12,13
 252 268 252 268 259 286.5 c 128,-1,14
 266 305 266 305 271 314 c 0,15,16
 276 316 276 316 305.5 319.5 c 128,-1,17
 335 323 335 323 377 329 c 128,-1,18
 419 335 419 335 465.5 342 c 128,-1,19
 512 349 512 349 552 360.5 c 128,-1,20
 592 372 592 372 621 389.5 c 128,-1,21
 650 407 650 407 657 433 c 2,22,-1
 658 436 l 2,23,24
 664 465 664 465 647.5 475.5 c 128,-1,25
 631 486 631 486 606 486 c 0,26,27
 580 486 580 486 551.5 480.5 c 128,-1,28
 523 475 523 475 494 467 c 1,29,-1
 489 467 l 2,30,31
 487 466 487 466 486.5 465.5 c 128,-1,32
 486 465 486 465 486 465 c 2,33,34
 484 465 484 465 481 465 c 256,35,36
 478 465 478 465 472 463 c 1,37,-1
 474 463 l 1,38,39
 470 462 470 462 464 460 c 0,40,41
 460 458 460 458 459 458 c 1,42,-1
 460 459 l 1,43,44
 401 441 401 441 345 441 c 2,45,-1
 319 441 l 1,46,-1
 318 442 l 1,47,48
 318 441 318 441 320 449 c 0,49,50
 321 451 321 451 320.5 452 c 128,-1,51
 320 453 320 453 321 454 c 2,52,-1
 325 472 l 2,53,54
 330 489 330 489 337.5 511 c 128,-1,55
 345 533 345 533 356.5 553.5 c 128,-1,56
 368 574 368 574 385 588.5 c 128,-1,57
 402 603 402 603 428 605 c 0,58,59
 500 616 500 616 573 620.5 c 128,-1,60
 646 625 646 625 718 628 c 1,61,62
 732 633 732 633 747.5 642 c 128,-1,63
 763 651 763 651 768 671 c 1,64,-1
 768 675 l 1,65,66
 773 697 773 697 765 709.5 c 128,-1,67
 757 722 757 722 742 729 c 128,-1,68
 727 736 727 736 706.5 738 c 128,-1,69
 686 740 686 740 667 740 c 2,70,-1
 572 740 l 2,71,72
 567 740 567 740 563.5 740.5 c 128,-1,73
 560 741 560 741 556 741 c 0,74,75
 517 741 517 741 472 738.5 c 128,-1,76
 427 736 427 736 384 727 c 128,-1,77
 341 718 341 718 304 702 c 128,-1,78
 267 686 267 686 245 659 c 0,79,80
 233 641 233 641 228 629.5 c 128,-1,81
 223 618 223 618 221 606 c 2,82,-1
 209 552 l 2,83,84
 208 545 208 545 202.5 528 c 128,-1,85
 197 511 197 511 190.5 491.5 c 128,-1,86
 184 472 184 472 178 455 c 128,-1,87
 172 438 172 438 169 432 c 2,88,-1
 168 429 l 2,89,90
 166 427 166 427 164.5 425 c 128,-1,91
 163 423 163 423 161 421 c 2,92,-1
 159 421 l 1,93,94
 145 404 145 404 135 390 c 128,-1,95
 125 376 125 376 120 358 c 2,96,-1
 119 353 l 2,97,98
 118 351 118 351 117.5 348 c 128,-1,99
 117 345 117 345 116 343 c 0,100,101
 111 323 111 323 123 312 c 1,102,-1
 118 294 l 1,103,-1
 116 282 l 2,104,105
 111 263 111 263 103 241.5 c 128,-1,106
 95 220 95 220 87 200 c 0,107,108
 85 196 85 196 84.5 193.5 c 128,-1,109
 84 191 84 191 83 188 c 1,110,111
 83 188 83 188 83 189 c 0,112,113
 83 191 83 191 82 189 c 0,114,115
 82 188 82 188 81 186.5 c 128,-1,116
 80 185 80 185 80 183 c 1,117,-1
 80 185 l 1,118,119
 77 175 77 175 73.5 164.5 c 128,-1,120
 70 154 70 154 67 144 c 0,121,122
 64 135 64 135 60.5 125.5 c 128,-1,123
 57 116 57 116 54 106 c 2,0,-1
472 463 m 1,124,125
 464 463 464 463 462 462 c 128,-1,126
 460 461 460 461 460 459 c 1,127,128
 462 459 462 459 464 460 c 0,129,130
 468 461 468 461 472 463 c 1,124,125
EndSplineSet
EndChar

StartChar: g
Encoding: 103 103 80
Width: 687
Flags: W
LayerCount: 2
Fore
SplineSet
103 318 m 2,0,1
 101 313 101 313 100 308.5 c 128,-1,2
 99 304 99 304 98 299 c 0,3,4
 85 239 85 239 96.5 187.5 c 128,-1,5
 108 136 108 136 141 99 c 128,-1,6
 174 62 174 62 227 41 c 128,-1,7
 280 20 280 20 349 20 c 0,8,9
 415 20 415 20 478 45.5 c 128,-1,10
 541 71 541 71 593 113.5 c 128,-1,11
 645 156 645 156 682.5 210 c 128,-1,12
 720 264 720 264 734 321 c 0,13,14
 736 326 736 326 737 330 c 128,-1,15
 738 334 738 334 739 339 c 0,16,17
 744 362 744 362 745.5 390 c 128,-1,18
 747 418 747 418 740.5 442 c 128,-1,19
 734 466 734 466 718 482.5 c 128,-1,20
 702 499 702 499 672 499 c 0,21,22
 670 499 670 499 666.5 498.5 c 128,-1,23
 663 498 663 498 659 498 c 2,24,-1
 643 498 l 2,25,26
 637 496 637 496 621.5 491.5 c 128,-1,27
 606 487 606 487 589 482 c 0,28,29
 574 478 574 478 557 473.5 c 128,-1,30
 540 469 540 469 525.5 464.5 c 128,-1,31
 511 460 511 460 499.5 456 c 128,-1,32
 488 452 488 452 484 450 c 0,33,34
 482 449 482 449 481 449.5 c 128,-1,35
 480 450 480 450 478 449 c 1,36,-1
 480 450 l 1,37,38
 459 446 459 446 438.5 441 c 128,-1,39
 418 436 418 436 400.5 426 c 128,-1,40
 383 416 383 416 369 400 c 128,-1,41
 355 384 355 384 348 357 c 0,42,43
 345 342 345 342 349 333 c 128,-1,44
 353 324 353 324 361.5 319 c 128,-1,45
 370 314 370 314 380.5 312.5 c 128,-1,46
 391 311 391 311 401 311 c 0,47,48
 446 311 446 311 493.5 327.5 c 128,-1,49
 541 344 541 344 582 364 c 1,50,-1
 588 364 l 2,51,52
 592 364 592 364 596 361.5 c 128,-1,53
 600 359 600 359 600 356 c 2,54,-1
 571 254 l 2,55,56
 565 231 565 231 539.5 214 c 128,-1,57
 514 197 514 197 482.5 185 c 128,-1,58
 451 173 451 173 419 167 c 128,-1,59
 387 161 387 161 369 161 c 0,60,61
 337 161 337 161 309.5 171 c 128,-1,62
 282 181 282 181 263 198 c 128,-1,63
 244 215 244 215 235.5 239 c 128,-1,64
 227 263 227 263 233 291 c 2,65,-1
 235 300 l 2,66,67
 245 338 245 338 267 370.5 c 128,-1,68
 289 403 289 403 319.5 432 c 128,-1,69
 350 461 350 461 386 487.5 c 128,-1,70
 422 514 422 514 459 540 c 1,71,-1
 459 539 l 1,72,73
 467 545 467 545 474.5 550.5 c 128,-1,74
 482 556 482 556 490 562 c 0,75,76
 501 570 501 570 516.5 579.5 c 128,-1,77
 532 589 532 589 548.5 597.5 c 128,-1,78
 565 606 565 606 581 611.5 c 128,-1,79
 597 617 597 617 609 617 c 0,80,81
 613 617 613 617 615 615 c 2,82,-1
 654 577 l 1,83,84
 666 575 666 575 668 575 c 0,85,86
 671 575 671 575 674 575 c 0,87,88
 696 575 696 575 720.5 584.5 c 128,-1,89
 745 594 745 594 771 614 c 1,90,-1
 778 650 l 2,91,92
 789 703 789 703 759.5 733.5 c 128,-1,93
 730 764 730 764 673 764 c 0,94,95
 623 764 623 764 564.5 743 c 128,-1,96
 506 722 506 722 446 687 c 128,-1,97
 386 652 386 652 329 606 c 128,-1,98
 272 560 272 560 225 510.5 c 128,-1,99
 178 461 178 461 145.5 411.5 c 128,-1,100
 113 362 113 362 103 319 c 1,101,-1
 103 318 l 2,0,1
487 451 m 1,102,103
 486 450 486 450 484 450 c 1,104,-1
 487 451 l 1,102,103
EndSplineSet
EndChar

StartChar: h
Encoding: 104 104 81
Width: 656
Flags: W
LayerCount: 2
Fore
SplineSet
453 71 m 0,0,1
 442 20 442 20 495 20 c 0,2,3
 517 20 517 20 531.5 25 c 128,-1,4
 546 30 546 30 556.5 39.5 c 128,-1,5
 567 49 567 49 574 63 c 128,-1,6
 581 77 581 77 587 94 c 0,7,8
 589 99 589 99 591 108 c 128,-1,9
 593 117 593 117 596 128 c 0,10,11
 600 142 600 142 604 157.5 c 128,-1,12
 608 173 608 173 614 191 c 2,13,-1
 630 261 l 1,14,-1
 648 331 l 1,15,-1
 648 330 l 1,16,17
 658 363 658 363 665.5 389 c 128,-1,18
 673 415 673 415 676 428 c 0,19,20
 677 432 677 432 682.5 449.5 c 128,-1,21
 688 467 688 467 695 490 c 0,22,23
 702 510 702 510 708.5 528.5 c 128,-1,24
 715 547 715 547 717 555 c 0,25,26
 724 577 724 577 732.5 596.5 c 128,-1,27
 741 616 741 616 751 636 c 1,28,-1
 751 635 l 1,29,30
 762 658 762 658 773 680.5 c 128,-1,31
 784 703 784 703 790 725 c 2,32,-1
 791 730 l 2,33,34
 797 759 797 759 787 775.5 c 128,-1,35
 777 792 777 792 743 792 c 0,36,37
 715 792 715 792 695 777 c 128,-1,38
 675 762 675 762 660 737.5 c 128,-1,39
 645 713 645 713 633.5 682 c 128,-1,40
 622 651 622 651 611 619 c 0,41,42
 603 597 603 597 595.5 576.5 c 128,-1,43
 588 556 588 556 580.5 539.5 c 128,-1,44
 573 523 573 523 564.5 512 c 128,-1,45
 556 501 556 501 547 498 c 1,46,-1
 548 498 l 1,47,-1
 349 446 l 2,48,49
 343 444 343 444 336 442.5 c 128,-1,50
 329 441 329 441 325 441 c 1,51,52
 328 441 328 441 331 446 c 0,53,54
 333 452 333 452 334.5 458.5 c 128,-1,55
 336 465 336 465 337 469 c 2,56,-1
 337 471 l 1,57,58
 344 494 344 494 351.5 518 c 128,-1,59
 359 542 359 542 370 568 c 0,60,61
 380 592 380 592 388.5 617.5 c 128,-1,62
 397 643 397 643 405 672 c 2,63,-1
 406 678 l 2,64,65
 408 688 408 688 408 699 c 256,66,67
 408 710 408 710 403.5 719.5 c 128,-1,68
 399 729 399 729 390.5 735 c 128,-1,69
 382 741 382 741 367 741 c 0,70,71
 347 741 347 741 330 731 c 128,-1,72
 313 721 313 721 299 707 c 128,-1,73
 285 693 285 693 275 676.5 c 128,-1,74
 265 660 265 660 261 647 c 0,75,76
 259 640 259 640 254 624.5 c 128,-1,77
 249 609 249 609 243 589 c 0,78,79
 235 563 235 563 227 538 c 128,-1,80
 219 513 219 513 216 500 c 0,81,82
 216 496 216 496 209 477 c 0,83,84
 206 466 206 466 202.5 453.5 c 128,-1,85
 199 441 199 441 197 432 c 2,86,-1
 195 422 l 1,87,88
 189 418 189 418 182.5 415.5 c 128,-1,89
 176 413 176 413 169 410 c 0,90,91
 149 401 149 401 130.5 390 c 128,-1,92
 112 379 112 379 104 353 c 2,93,-1
 103 349 l 2,94,95
 98 323 98 323 110 311 c 128,-1,96
 122 299 122 299 139 291 c 0,97,98
 146 286 146 286 151.5 283 c 128,-1,99
 157 280 157 280 158 278 c 2,100,-1
 108 91 l 1,101,-1
 108 89 l 1,102,103
 103 64 103 64 116.5 51 c 128,-1,104
 130 38 130 38 153 38 c 0,105,106
 180 38 180 38 200.5 59 c 128,-1,107
 221 80 221 80 236 111 c 128,-1,108
 251 142 251 142 261 178.5 c 128,-1,109
 271 215 271 215 277 245 c 0,110,111
 281 261 281 261 284 273 c 128,-1,112
 287 285 287 285 290 294 c 0,113,114
 293 296 293 296 296.5 297.5 c 128,-1,115
 300 299 300 299 304 300 c 1,116,-1
 295 299 l 1,117,118
 296 299 296 299 296.5 299.5 c 128,-1,119
 297 300 297 300 298 300 c 0,120,121
 309 302 309 302 325.5 307 c 128,-1,122
 342 312 342 312 356 317 c 0,123,124
 392 329 392 329 432.5 340 c 128,-1,125
 473 351 473 351 503 351 c 2,126,-1
 505 351 l 2,127,128
 510 351 510 351 513 352 c 1,129,130
 512 347 512 347 511 343 c 128,-1,131
 510 339 510 339 509 335 c 1,132,-1
 509 336 l 1,133,134
 507 325 507 325 506.5 316.5 c 128,-1,135
 506 308 506 308 504 303 c 0,136,137
 502 290 502 290 494 257.5 c 128,-1,138
 486 225 486 225 478 187 c 0,139,140
 470 150 470 150 463 117 c 128,-1,141
 456 84 456 84 453 71 c 0,0,1
EndSplineSet
EndChar

StartChar: i
Encoding: 105 105 82
Width: 207
Flags: W
AnchorPoint: "top" 287 840 basechar 0
LayerCount: 2
Fore
SplineSet
40 70 m 1,0,1
 40 37 40 37 50 28.5 c 128,-1,2
 60 20 60 20 85 20 c 0,3,4
 107 20 107 20 126 35 c 128,-1,5
 145 50 145 50 154 74 c 0,6,7
 197 195 197 195 232.5 312.5 c 128,-1,8
 268 430 268 430 300 554 c 1,9,-1
 300 553 l 1,10,-1
 306 574 l 2,11,12
 308 585 308 585 312.5 602 c 128,-1,13
 317 619 317 619 319 631 c 2,14,-1
 326 652 l 2,15,16
 329 666 329 666 329 681 c 0,17,18
 329 697 329 697 324.5 709.5 c 128,-1,19
 320 722 320 722 310 730 c 128,-1,20
 300 738 300 738 284 738 c 0,21,22
 266 738 266 738 255 729.5 c 128,-1,23
 244 721 244 721 225 698 c 1,24,25
 207 625 207 625 185.5 557.5 c 128,-1,26
 164 490 164 490 141 421 c 0,27,28
 119 352 119 352 97.5 283.5 c 128,-1,29
 76 215 76 215 57 142 c 1,30,-1
 55 131 l 2,31,32
 51 121 51 121 49 106 c 0,33,34
 47 101 47 101 46 96 c 128,-1,35
 45 91 45 91 43 85 c 2,36,-1
 40 70 l 1,0,1
EndSplineSet
EndChar

StartChar: j
Encoding: 106 106 83
Width: 590
Flags: W
LayerCount: 2
Fore
SplineSet
76 235 m 2,0,-1
 75 230 l 2,1,2
 69 201 69 201 81 174.5 c 128,-1,3
 93 148 93 148 116.5 125 c 128,-1,4
 140 102 140 102 172 82.5 c 128,-1,5
 204 63 204 63 238 49 c 128,-1,6
 272 35 272 35 304.5 27.5 c 128,-1,7
 337 20 337 20 363 20 c 0,8,9
 396 20 396 20 427 37 c 128,-1,10
 458 54 458 54 485.5 81 c 128,-1,11
 513 108 513 108 536.5 142.5 c 128,-1,12
 560 177 560 177 578.5 211.5 c 128,-1,13
 597 246 597 246 609.5 277.5 c 128,-1,14
 622 309 622 309 628 331 c 2,15,-1
 688 556 l 1,16,-1
 691 568 l 2,17,18
 695 590 695 590 697.5 624.5 c 128,-1,19
 700 659 700 659 695.5 692 c 128,-1,20
 691 725 691 725 677 749 c 128,-1,21
 663 773 663 773 636 773 c 0,22,23
 618 773 618 773 605 766.5 c 128,-1,24
 592 760 592 760 583 749.5 c 128,-1,25
 574 739 574 739 568.5 725.5 c 128,-1,26
 563 712 563 712 560 699 c 2,27,-1
 556 682 l 2,28,29
 548 647 548 647 545.5 615.5 c 128,-1,30
 543 584 543 584 541 554 c 0,31,32
 539 522 539 522 536 490.5 c 128,-1,33
 533 459 533 459 526 427 c 2,34,-1
 524 419 l 2,35,36
 520 403 520 403 512.5 379 c 128,-1,37
 505 355 505 355 494.5 328 c 128,-1,38
 484 301 484 301 470.5 273.5 c 128,-1,39
 457 246 457 246 441 224 c 128,-1,40
 425 202 425 202 406.5 188 c 128,-1,41
 388 174 388 174 367 174 c 256,42,43
 346 174 346 174 327 180.5 c 128,-1,44
 308 187 308 187 291 197 c 128,-1,45
 274 207 274 207 259 219 c 128,-1,46
 244 231 244 231 231 243 c 0,47,48
 208 263 208 263 188 278 c 128,-1,49
 168 293 168 293 145 293 c 0,50,51
 119 293 119 293 100.5 274.5 c 128,-1,52
 82 256 82 256 76 235 c 2,0,-1
EndSplineSet
EndChar

StartChar: k
Encoding: 107 107 84
Width: 572
Flags: W
LayerCount: 2
Fore
SplineSet
44 58 m 1,0,1
 40 31 40 31 55 25.5 c 128,-1,2
 70 20 70 20 91 20 c 0,3,4
 118 20 118 20 138.5 40 c 128,-1,5
 159 60 159 60 175 90 c 128,-1,6
 191 120 191 120 202 155.5 c 128,-1,7
 213 191 213 191 222 223 c 1,8,-1
 222 222 l 1,9,10
 224 230 224 230 226 237 c 128,-1,11
 228 244 228 244 230 250 c 2,12,-1
 234 270 l 2,13,14
 235 273 235 273 234 274 c 1,15,16
 251 274 251 274 266 265.5 c 128,-1,17
 281 257 281 257 295.5 243 c 128,-1,18
 310 229 310 229 323 211.5 c 128,-1,19
 336 194 336 194 350 175 c 0,20,21
 365 153 365 153 381 132 c 128,-1,22
 397 111 397 111 415 94.5 c 128,-1,23
 433 78 433 78 454 68 c 128,-1,24
 475 58 475 58 500 58 c 256,25,26
 525 58 525 58 547 71 c 128,-1,27
 569 84 569 84 576 113 c 1,28,-1
 576 115 l 1,29,30
 582 141 582 141 565 165 c 128,-1,31
 548 189 548 189 521 214 c 0,32,33
 507 227 507 227 491.5 239.5 c 128,-1,34
 476 252 476 252 459 264 c 0,35,36
 440 278 440 278 422.5 291.5 c 128,-1,37
 405 305 405 305 391 317.5 c 128,-1,38
 377 330 377 330 368.5 340.5 c 128,-1,39
 360 351 360 351 360 360 c 1,40,41
 384 378 384 378 416.5 402.5 c 128,-1,42
 449 427 449 427 484 456 c 128,-1,43
 519 485 519 485 554 517 c 128,-1,44
 589 549 589 549 618.5 581.5 c 128,-1,45
 648 614 648 614 669 645.5 c 128,-1,46
 690 677 690 677 698 705 c 0,47,48
 703 729 703 729 698 743 c 128,-1,49
 693 757 693 757 664 757 c 2,50,-1
 647 757 l 2,51,52
 639 757 639 757 632.5 753.5 c 128,-1,53
 626 750 626 750 618 747 c 0,54,55
 548 675 548 675 477 609 c 128,-1,56
 406 543 406 543 328 489 c 0,57,58
 324 486 324 486 317 481.5 c 128,-1,59
 310 477 310 477 304 475 c 1,60,61
 306 488 306 488 309 505.5 c 128,-1,62
 312 523 312 523 315 543 c 0,63,64
 320 569 320 569 323.5 591 c 128,-1,65
 327 613 327 613 329 621 c 2,66,-1
 330 627 l 2,67,68
 333 640 333 640 335.5 658.5 c 128,-1,69
 338 677 338 677 335.5 694.5 c 128,-1,70
 333 712 333 712 322.5 724.5 c 128,-1,71
 312 737 312 737 288 737 c 0,72,73
 273 737 273 737 258.5 728.5 c 128,-1,74
 244 720 244 720 231 708 c 128,-1,75
 218 696 218 696 208.5 682 c 128,-1,76
 199 668 199 668 195 657 c 2,77,-1
 166 524 l 2,78,79
 162 506 162 506 153.5 470.5 c 128,-1,80
 145 435 145 435 133 389 c 2,81,-1
 106 292 l 1,82,-1
 82 196 l 2,83,84
 77 176 77 176 72 157.5 c 128,-1,85
 67 139 67 139 62 122 c 0,86,87
 56 102 56 102 52 86 c 128,-1,88
 48 70 48 70 45 60 c 2,89,-1
 44 58 l 1,0,1
EndSplineSet
EndChar

StartChar: l
Encoding: 108 108 85
Width: 556
Flags: W
LayerCount: 2
Fore
SplineSet
91 257 m 1,0,-1
 84 226 l 2,1,2
 81 217 81 217 79 207 c 128,-1,3
 77 197 77 197 75 188 c 0,4,5
 73 182 73 182 71.5 174.5 c 128,-1,6
 70 167 70 167 67 159 c 2,7,-1
 62 139 l 2,8,9
 61 137 61 137 60 134 c 128,-1,10
 59 131 59 131 58 128 c 0,11,12
 55 112 55 112 55 93 c 0,13,14
 55 75 55 75 61.5 58.5 c 128,-1,15
 68 42 68 42 81.5 31 c 128,-1,16
 95 20 95 20 119 20 c 2,17,-1
 126 20 l 2,18,19
 135 22 135 22 155 25 c 128,-1,20
 175 28 175 28 196 31 c 0,21,22
 218 35 218 35 237 38 c 128,-1,23
 256 41 256 41 261 42 c 0,24,25
 280 45 280 45 309 50.5 c 128,-1,26
 338 56 338 56 370.5 65 c 128,-1,27
 403 74 403 74 437 86 c 128,-1,28
 471 98 471 98 500 114 c 128,-1,29
 529 130 529 130 550 150 c 128,-1,30
 571 170 571 170 577 194 c 2,31,-1
 579 201 l 2,32,33
 584 228 584 228 572.5 237 c 128,-1,34
 561 246 561 246 529 246 c 0,35,36
 525 246 525 246 512.5 244.5 c 128,-1,37
 500 243 500 243 495 241 c 2,38,-1
 444 222 l 2,39,40
 395 205 395 205 347.5 189 c 128,-1,41
 300 173 300 173 253 173 c 2,42,-1
 222 173 l 2,43,44
 218 176 218 176 219 187 c 128,-1,45
 220 198 220 198 223 210 c 0,46,47
 225 218 225 218 228 229.5 c 128,-1,48
 231 241 231 241 233 249 c 0,49,50
 235 254 235 254 236 259 c 128,-1,51
 237 264 237 264 238 267 c 0,52,53
 252 323 252 323 272.5 379.5 c 128,-1,54
 293 436 293 436 315 494 c 0,55,56
 335 548 335 548 355 602 c 128,-1,57
 375 656 375 656 389 713 c 2,58,-1
 393 732 l 2,59,60
 395 741 395 741 395.5 750.5 c 128,-1,61
 396 760 396 760 392.5 767 c 128,-1,62
 389 774 389 774 381 778.5 c 128,-1,63
 373 783 373 783 358 783 c 0,64,65
 334 783 334 783 317 773 c 128,-1,66
 300 763 300 763 288 748.5 c 128,-1,67
 276 734 276 734 268 716.5 c 128,-1,68
 260 699 260 699 255 684 c 1,69,-1
 256 686 l 1,70,71
 247 665 247 665 233.5 633.5 c 128,-1,72
 220 602 220 602 205 566.5 c 128,-1,73
 190 531 190 531 175 494.5 c 128,-1,74
 160 458 160 458 148 427.5 c 128,-1,75
 136 397 136 397 127.5 375.5 c 128,-1,76
 119 354 119 354 117 348 c 1,77,-1
 117 350 l 1,78,-1
 112 335 l 2,79,80
 110 328 110 328 107.5 317 c 128,-1,81
 105 306 105 306 101 292 c 0,82,83
 100 289 100 289 99 285.5 c 128,-1,84
 98 282 98 282 97 279 c 2,85,-1
 91 257 l 1,0,-1
EndSplineSet
EndChar

StartChar: m
Encoding: 109 109 86
Width: 640
Flags: W
LayerCount: 2
Fore
SplineSet
40 51 m 1,0,-1
 46 44 l 2,1,2
 53 35 53 35 61 27.5 c 128,-1,3
 69 20 69 20 84 20 c 0,4,5
 105 20 105 20 127 33 c 128,-1,6
 149 46 149 46 160 66 c 0,7,8
 184 131 184 131 209 194 c 128,-1,9
 234 257 234 257 260 316 c 1,10,11
 262 308 262 308 262.5 295.5 c 128,-1,12
 263 283 263 283 264 269 c 0,13,14
 265 248 265 248 267 226.5 c 128,-1,15
 269 205 269 205 275.5 187.5 c 128,-1,16
 282 170 282 170 294.5 159 c 128,-1,17
 307 148 307 148 329 148 c 0,18,19
 355 148 355 148 380 163 c 128,-1,20
 405 178 405 178 428.5 201.5 c 128,-1,21
 452 225 452 225 473.5 253 c 128,-1,22
 495 281 495 281 515 308 c 0,23,24
 526 323 526 323 536 336 c 128,-1,25
 546 349 546 349 552 359 c 1,26,27
 551 352 551 352 551 346 c 0,28,29
 551 341 551 341 550 339 c 2,30,-1
 545 326 l 2,31,32
 540 303 540 303 532.5 279 c 128,-1,33
 525 255 525 255 518 231 c 0,34,35
 510 206 510 206 503 181 c 128,-1,36
 496 156 496 156 489 131 c 2,37,-1
 471 71 l 1,38,39
 486 45 486 45 514 45 c 0,40,41
 534 45 534 45 550 56.5 c 128,-1,42
 566 68 566 68 583 82 c 1,43,44
 629 185 629 185 657 283.5 c 128,-1,45
 685 382 685 382 711 482 c 0,46,47
 716 502 716 502 721.5 521 c 128,-1,48
 727 540 727 540 732 560 c 2,49,-1
 740 588 l 1,50,-1
 740 586 l 1,51,52
 744 597 744 597 746.5 609 c 128,-1,53
 749 621 749 621 751 632 c 0,54,55
 754 644 754 644 756.5 654.5 c 128,-1,56
 759 665 759 665 761 675 c 1,57,-1
 761 674 l 1,58,-1
 770 708 l 1,59,60
 765 757 765 757 716 757 c 0,61,62
 700 757 700 757 684.5 747 c 128,-1,63
 669 737 669 737 655.5 723 c 128,-1,64
 642 709 642 709 631 694.5 c 128,-1,65
 620 680 620 680 613 670 c 0,66,67
 612 668 612 668 611 666.5 c 128,-1,68
 610 665 610 665 609 663 c 0,69,70
 607 661 607 661 604.5 658 c 128,-1,71
 602 655 602 655 600 651 c 1,72,-1
 602 652 l 1,73,74
 594 640 594 640 581 619.5 c 128,-1,75
 568 599 568 599 554.5 578.5 c 128,-1,76
 541 558 541 558 529.5 541.5 c 128,-1,77
 518 525 518 525 514 521 c 0,78,79
 512 518 512 518 498 498.5 c 128,-1,80
 484 479 484 479 466 454.5 c 128,-1,81
 448 430 448 430 429.5 406 c 128,-1,82
 411 382 411 382 401 369 c 0,83,84
 400 366 400 366 397 361.5 c 128,-1,85
 394 357 394 357 391 352.5 c 128,-1,86
 388 348 388 348 385.5 345 c 128,-1,87
 383 342 383 342 382 342 c 0,88,89
 379 342 379 342 378 348.5 c 128,-1,90
 377 355 377 355 377 362 c 0,91,92
 377 370 377 370 378 376.5 c 128,-1,93
 379 383 379 383 379 384 c 0,94,95
 378 396 378 396 377 418.5 c 128,-1,96
 376 441 376 441 375 463.5 c 128,-1,97
 374 486 374 486 373.5 503.5 c 128,-1,98
 373 521 373 521 373 524 c 0,99,100
 375 531 375 531 377 556 c 0,101,102
 379 574 379 574 381.5 593.5 c 128,-1,103
 384 613 384 613 386 624 c 0,104,105
 386 629 386 629 388 642 c 128,-1,106
 390 655 390 655 393 669 c 2,107,-1
 404 722 l 1,108,109
 401 744 401 744 387.5 747.5 c 128,-1,110
 374 751 374 751 360 751 c 0,111,112
 331 751 331 751 313 736 c 128,-1,113
 295 721 295 721 282 696 c 0,114,115
 280 693 280 693 277.5 687 c 128,-1,116
 275 681 275 681 272 674 c 1,117,-1
 273 674 l 1,118,119
 267 660 267 660 259.5 643.5 c 128,-1,120
 252 627 252 627 245 611.5 c 128,-1,121
 238 596 238 596 232.5 583 c 128,-1,122
 227 570 227 570 226 564 c 1,123,-1
 226 565 l 1,124,125
 223 556 223 556 213.5 530 c 128,-1,126
 204 504 204 504 191 468.5 c 128,-1,127
 178 433 178 433 163.5 393.5 c 128,-1,128
 149 354 149 354 136.5 319 c 128,-1,129
 124 284 124 284 114.5 258 c 128,-1,130
 105 232 105 232 102 224 c 0,131,132
 100 219 100 219 94.5 207 c 128,-1,133
 89 195 89 195 84 182 c 0,134,135
 76 165 76 165 70.5 152 c 128,-1,136
 65 139 65 139 64 135 c 0,137,138
 61 128 61 128 59 122 c 128,-1,139
 57 116 57 116 55 108 c 2,140,-1
 52 99 l 1,141,-1
 50 91 l 2,142,143
 48 87 48 87 48 85 c 256,144,145
 48 83 48 83 47 79 c 0,146,147
 45 71 45 71 43 67 c 2,148,-1
 40 51 l 1,0,-1
EndSplineSet
EndChar

StartChar: n
Encoding: 110 110 87
Width: 547
Flags: W
LayerCount: 2
Fore
SplineSet
50 101 m 2,0,1
 49 88 49 88 49.5 74 c 128,-1,2
 50 60 50 60 55 48 c 128,-1,3
 60 36 60 36 71 28 c 128,-1,4
 82 20 82 20 102 20 c 0,5,6
 109 20 109 20 119.5 22.5 c 128,-1,7
 130 25 130 25 140.5 30.5 c 128,-1,8
 151 36 151 36 159.5 44 c 128,-1,9
 168 52 168 52 171 64 c 2,10,-1
 238 323 l 1,11,12
 244 302 244 302 247.5 289 c 128,-1,13
 251 276 251 276 253.5 267 c 128,-1,14
 256 258 256 258 258 250.5 c 128,-1,15
 260 243 260 243 263 232 c 1,16,-1
 264 233 l 1,17,-1
 281 160 l 2,18,19
 282 156 282 156 284 148 c 128,-1,20
 286 140 286 140 289 129.5 c 128,-1,21
 292 119 292 119 294.5 108 c 128,-1,22
 297 97 297 97 300 88 c 0,23,24
 302 81 302 81 303 75.5 c 128,-1,25
 304 70 304 70 305 68 c 0,26,27
 324 38 324 38 358 38 c 0,28,29
 376 38 376 38 390 46.5 c 128,-1,30
 404 55 404 55 414 67.5 c 128,-1,31
 424 80 424 80 431 93.5 c 128,-1,32
 438 107 438 107 443 118 c 0,33,34
 454 144 454 144 466.5 170 c 128,-1,35
 479 196 479 196 490 222 c 0,36,37
 544 340 544 340 593 455 c 128,-1,38
 642 570 642 570 674 691 c 1,39,-1
 687 754 l 2,40,41
 692 776 692 776 680 794 c 128,-1,42
 668 812 668 812 642 812 c 0,43,44
 622 812 622 812 606.5 800.5 c 128,-1,45
 591 789 591 789 579.5 773 c 128,-1,46
 568 757 568 757 560.5 739.5 c 128,-1,47
 553 722 553 722 549 711 c 1,48,-1
 549 712 l 1,49,50
 544 699 544 699 533.5 671.5 c 128,-1,51
 523 644 523 644 510.5 609 c 128,-1,52
 498 574 498 574 484.5 536 c 128,-1,53
 471 498 471 498 458.5 463 c 128,-1,54
 446 428 446 428 436 400 c 128,-1,55
 426 372 426 372 422 359 c 0,56,57
 420 354 420 354 417.5 349.5 c 128,-1,58
 415 345 415 345 415 343 c 1,59,-1
 415 344 l 1,60,61
 407 327 407 327 399 306 c 128,-1,62
 391 285 391 285 384 279 c 1,63,64
 385 286 385 286 382 295 c 0,65,66
 375 330 375 330 368.5 371.5 c 128,-1,67
 362 413 362 413 360 446 c 0,68,69
 360 452 360 452 360 463 c 256,70,71
 360 474 360 474 360.5 487.5 c 128,-1,72
 361 501 361 501 361.5 516 c 128,-1,73
 362 531 362 531 363 545 c 0,74,75
 363 560 363 560 362.5 571 c 128,-1,76
 362 582 362 582 363 587 c 0,77,78
 363 594 363 594 366.5 614 c 128,-1,79
 370 634 370 634 374 657 c 128,-1,80
 378 680 378 680 382 700 c 128,-1,81
 386 720 386 720 388 728 c 0,82,83
 386 750 386 750 371 764.5 c 128,-1,84
 356 779 356 779 336 779 c 0,85,86
 315 779 315 779 296.5 765.5 c 128,-1,87
 278 752 278 752 270 738 c 0,88,89
 208 604 208 604 160 471 c 128,-1,90
 112 338 112 338 76 202 c 2,91,-1
 71 182 l 2,92,93
 68 171 68 171 65.5 160 c 128,-1,94
 63 149 63 149 60 137 c 0,95,96
 58 126 58 126 56.5 118.5 c 128,-1,97
 55 111 55 111 53 109 c 2,98,-1
 50 101 l 2,0,1
EndSplineSet
EndChar

StartChar: o
Encoding: 111 111 88
Width: 725
Flags: W
AnchorPoint: "top" 613 847 basechar 0
LayerCount: 2
Fore
SplineSet
98 307 m 2,0,1
 97 302 97 302 95.5 296.5 c 128,-1,2
 94 291 94 291 93 286 c 0,3,4
 84 244 84 244 84.5 202 c 128,-1,5
 85 160 85 160 98.5 124 c 128,-1,6
 112 88 112 88 140 60.5 c 128,-1,7
 168 33 168 33 215 20 c 1,8,-1
 280 20 l 2,9,10
 340 20 340 20 393 35.5 c 128,-1,11
 446 51 446 51 493 79 c 128,-1,12
 540 107 540 107 581.5 147 c 128,-1,13
 623 187 623 187 660 235 c 0,14,15
 709 298 709 298 750.5 360 c 128,-1,16
 792 422 792 422 809 491 c 2,17,-1
 813 506 l 2,18,19
 822 549 822 549 817.5 592.5 c 128,-1,20
 813 636 813 636 792.5 671.5 c 128,-1,21
 772 707 772 707 735.5 729 c 128,-1,22
 699 751 699 751 644 751 c 0,23,24
 619 751 619 751 594 744.5 c 128,-1,25
 569 738 569 738 543 729 c 0,26,27
 464 699 464 699 392.5 657.5 c 128,-1,28
 321 616 321 616 262 563.5 c 128,-1,29
 203 511 203 511 160.5 447 c 128,-1,30
 118 383 118 383 98 308 c 1,31,-1
 98 307 l 2,0,1
225 285 m 0,32,33
 239 340 239 340 275 398.5 c 128,-1,34
 311 457 311 457 361.5 505 c 128,-1,35
 412 553 412 553 474.5 583.5 c 128,-1,36
 537 614 537 614 605 614 c 0,37,38
 634 614 634 614 652 602.5 c 128,-1,39
 670 591 670 591 679 573 c 128,-1,40
 688 555 688 555 689 532 c 128,-1,41
 690 509 690 509 685 486 c 2,42,-1
 683 477 l 2,43,44
 676 450 676 450 655.5 414.5 c 128,-1,45
 635 379 635 379 605.5 341 c 128,-1,46
 576 303 576 303 539.5 266 c 128,-1,47
 503 229 503 229 464 200 c 128,-1,48
 425 171 425 171 386 153 c 128,-1,49
 347 135 347 135 312 135 c 0,50,51
 278 135 278 135 257.5 145.5 c 128,-1,52
 237 156 237 156 226.5 174 c 128,-1,53
 216 192 216 192 215 216 c 128,-1,54
 214 240 214 240 220 267 c 0,55,56
 221 274 221 274 225 285 c 0,32,33
EndSplineSet
EndChar

StartChar: p
Encoding: 112 112 89
Width: 645
Flags: W
LayerCount: 2
Fore
SplineSet
40 60 m 1,0,1
 47 43 47 43 54.5 31.5 c 128,-1,2
 62 20 62 20 85 20 c 0,3,4
 95 20 95 20 108 23.5 c 128,-1,5
 121 27 121 27 132.5 33 c 128,-1,6
 144 39 144 39 153 47.5 c 128,-1,7
 162 56 162 56 166 67 c 2,8,-1
 221 217 l 1,9,10
 220 211 220 211 223 210 c 128,-1,11
 226 209 226 209 233 211.5 c 128,-1,12
 240 214 240 214 249.5 218.5 c 128,-1,13
 259 223 259 223 270 227 c 0,14,15
 307 239 307 239 357 256.5 c 128,-1,16
 407 274 407 274 456.5 295.5 c 128,-1,17
 506 317 506 317 550 343 c 128,-1,18
 594 369 594 369 619 398 c 1,19,-1
 617 397 l 1,20,21
 622 402 622 402 626.5 407.5 c 128,-1,22
 631 413 631 413 636 418 c 0,23,24
 675 462 675 462 706.5 504 c 128,-1,25
 738 546 738 546 752 599 c 2,26,-1
 754 609 l 2,27,28
 763 648 763 648 752 678.5 c 128,-1,29
 741 709 741 709 716 729.5 c 128,-1,30
 691 750 691 750 656 760.5 c 128,-1,31
 621 771 621 771 581 771 c 0,32,33
 558 771 558 771 523.5 767.5 c 128,-1,34
 489 764 489 764 449.5 756.5 c 128,-1,35
 410 749 410 749 369.5 737.5 c 128,-1,36
 329 726 329 726 295 709 c 128,-1,37
 261 692 261 692 236 670 c 128,-1,38
 211 648 211 648 204 620 c 0,39,40
 201 606 201 606 202.5 596 c 128,-1,41
 204 586 204 586 207 576 c 0,42,43
 212 562 212 562 211 555 c 0,44,45
 197 507 197 507 178 456.5 c 128,-1,46
 159 406 159 406 139 352 c 0,47,48
 116 293 116 293 94 235 c 128,-1,49
 72 177 72 177 56 114 c 1,50,-1
 56 115 l 1,51,-1
 53 105 l 1,52,-1
 47 77 l 1,53,-1
 40 60 l 1,0,1
274 365 m 1,54,-1
 278 385 l 2,55,56
 283 397 283 397 293 424.5 c 128,-1,57
 303 452 303 452 313 482 c 128,-1,58
 323 512 323 512 331.5 538 c 128,-1,59
 340 564 340 564 343 574 c 1,60,-1
 343 573 l 1,61,62
 353 601 353 601 377 617.5 c 128,-1,63
 401 634 401 634 431 643 c 128,-1,64
 461 652 461 652 494 654.5 c 128,-1,65
 527 657 527 657 556 657 c 2,66,-1
 564 657 l 2,67,68
 566 657 566 657 568 656.5 c 128,-1,69
 570 656 570 656 573 656 c 0,70,71
 578 655 578 655 591 655 c 2,72,-1
 599 655 l 2,73,74
 614 653 614 653 618 639.5 c 128,-1,75
 622 626 622 626 619 611 c 0,76,77
 618 609 618 609 617 606 c 128,-1,78
 616 603 616 603 616 601 c 0,79,80
 604 555 604 555 568.5 511.5 c 128,-1,81
 533 468 533 468 484.5 434 c 128,-1,82
 436 400 436 400 380 379 c 128,-1,83
 324 358 324 358 271 358 c 1,84,-1
 274 365 l 1,54,-1
EndSplineSet
EndChar

